SplineFontDB: 3.0
FontName: LinLibertineOZ
FullName: Linux Libertine O Semibold
FamilyName: Linux Libertine O
Weight: Semibold
Copyright: Linux Libertine by Philipp H. Poll,\nOpen Font under Terms of following Free Software Licenses:\nGPL (General Public License) with font-exception and OFL (Open Font License).\nCreated with FontForge (http://fontforge.sf.net)\nSept 2003, 2004, 2005, 2006, 2007, 2008, 2009, 2010, 2011,2012
UComments: "2003-08-29: Created.+AAoA-2004-07-25: v(1.0) release candidate+AAoA-2005-12-28: v(1.1.0) stable+AAoA-2006-01-01: v(2.0.0) stable+AAoA-2006-09-05: v(2.2.0) stable+AAoA-2006-12-04: v(2.3.0) stable+AAoA-2007-03-11: v(2.4.0) stable+AAoA-2007-06-11: v(2.6.0) stable+AAoA-2007-12-00: v(2.7.0) stable+AAoA-2008-06-00: v(2.8.14) stable+AAoA" 
Version: 5.1.2
ItalicAngle: 0
UnderlinePosition: -98
UnderlineWidth: 40
Ascent: 754
Descent: 246
LayerCount: 2
Layer: 0 0 "Back"  1
Layer: 1 0 "Fore"  0
XUID: [1021 993 1524925707 4740893]
FSType: 0
OS2Version: 3
OS2_WeightWidthSlopeOnly: 0
OS2_UseTypoMetrics: 0
CreationTime: 1156455862
PfmFamily: 17
TTFWeight: 600
TTFWidth: 5
LineGap: 0
VLineGap: 0
OS2TypoAscent: 894
OS2TypoAOffset: 0
OS2TypoDescent: -246
OS2TypoDOffset: 0
OS2TypoLinegap: 0
OS2WinAscent: 894
OS2WinAOffset: 0
OS2WinDescent: 246
OS2WinDOffset: 0
HheadAscent: 894
HheadAOffset: 0
HheadDescent: -246
HheadDOffset: 0
OS2FamilyClass: 261
OS2Vendor: 'PfEd'
Lookup: 3 0 0 "'ssty' Script Style in Mathematical Alphanumeric Symbols lookup 0"  {"'ssty' Script Style in Mathematical Alphanumeric Symbols lookup 0-1"  } ['ssty' ('math' <'dflt' > ) ]
Lookup: 258 0 0 "'kern' Kerning"  {"'kern' Kerning 1" [150,0,0] } ['kern' ('DFLT' <'dflt' > 'cyrl' <'dflt' > 'grek' <'dflt' > 'latn' <'AZE ' 'CRT ' 'DEU ' 'MOL ' 'ROM ' 'TRK ' 'dflt' > ) ]
MarkAttachClasses: 1
DEI: 91125
KernClass2: 22 20 "'kern' Kerning 1" 
 24 u1D41F longs uni1E1F f_f

StartChar: u1D400
Encoding: 119808 119808 0
Width: 699
Flags: W
TopAccentHorizontal: 354
HStem: -1 34<10 60.0229 142.897 211 414 482.841 622.594 692> 241 47<234.168 403> 638 20G<348.5 364.5>
DStem2: 89 91 148 79 0.384126 0.923281<-23.1403 196.063 246.684 479.281> 399 627 320 514 0.352654 -0.935754<77.8806 318.631 368.607 561.264>
LayerCount: 2
Fore
SplineSet
253 288 m 2
 403 288 l 1
 320 514 l 1
 234 300 l 1
 234 291 235 288 253 288 c 2
148 79 m 2
 137 50 136 33 195 33 c 0
 211 33 216 31 216 23 c 2
 216 3 l 1
 211 -1 l 1
 211 -1 119 1 95 1 c 0
 70 1 10 -1 10 -1 c 1
 2 2 l 1
 2 23 l 2
 2 33 10 33 22 33 c 0
 42 33 72 50 89 91 c 2
 312 627 l 2
 322 651 343 658 354 658 c 0
 375 658 391 648 399 627 c 2
 601 91 l 2
 615 54 629 33 654 33 c 2
 682 33 l 2
 697 33 697 31 697 23 c 2
 697 3 l 1
 692 -1 l 1
 692 -1 596 1 558 1 c 0
 522 1 414 -1 414 -1 c 1
 406 4 l 1
 406 23 l 2
 406 31 414 33 432 33 c 2
 459 33 l 2
 476 33 484 44 484 59 c 0
 484 64 484 70 482 73 c 2
 420 241 l 1
 236 241 l 2
 216 241 211 240 205 227 c 2
 148 79 l 2
EndSplineSet
EndChar

StartChar: u1D401
Encoding: 119809 119809 1
Width: 620
Flags: W
TopAccentHorizontal: 310
HStem: 0 40<225.077 375.965> 0 33<23 96.4211> 334 42<221 356.422> 605 42<224.143 359.733> 613 34<24 96.3856>
VStem: 99 122<45.449 334 376 599.529> 403 120<424.816 565.405> 450 127<106.58 268.4>
LayerCount: 2
Fore
SplineSet
221 562 m 2x36
 221 376 l 1
 277 376 l 2
 348 376 403 409 403 489 c 0
 403 587 337 605 291 605 c 0
 226 605 221 591 221 562 c 2x36
221 334 m 1
 221 84 l 2
 221 55 227 40 287 40 c 0
 419 40 450 127 450 187 c 0xa5
 450 273 395 334 292 334 c 2
 221 334 l 1
22 21 m 2
 22 28 25 33 40 33 c 2
 69 33 l 2
 92 33 99 42 99 74 c 2
 99 572 l 2
 99 602 93 613 69 613 c 2
 36 613 l 2
 25 613 22 616 22 623 c 2
 22 645 l 1
 24 647 l 1x6d
 24 647 124.7 645 154.7 645 c 0
 184.7 645 234 647 284 647 c 0
 485.8 647 523 560 523 491 c 0x36
 523 440 481 385 427 361 c 1
 427 359 l 1
 533 331 577 264 577 176 c 0
 577 89 511 0 306 0 c 2xb5
 23 0 l 1x65
 22 1 l 1
 22 21 l 2
EndSplineSet
EndChar

StartChar: u1D402
Encoding: 119810 119810 2
Width: 666
Flags: W
TopAccentHorizontal: 374
HStem: -10 44<290.062 474.801> 437 21G<558.5 612> 617 41<295.135 462.38>
VStem: 34 130<195.747 434.804> 574 38<443.526 484.717>
LayerCount: 2
Fore
SplineSet
371 -10 m 0
 143 -10 34 154 34 315 c 0
 34 512 187 658 372 658 c 0
 505 658 539 614 590 614 c 1
 594 556 602 500 612 445 c 1
 574 437 l 1
 543 532 500 617 372 617 c 0
 275 617 164 532 164 334 c 0
 164 192 231 34 370 34 c 0
 451 34 524 66 601 153 c 1
 631 129 l 1
 563 39 477 -10 371 -10 c 0
EndSplineSet
EndChar

StartChar: u1D403
Encoding: 119811 119811 3
Width: 718
Flags: W
TopAccentHorizontal: 359
HStem: 0 40<222.92 424.983> 0 33<24 92.1445> 606 40<223.637 384.847> 613 33<24 92.1445>
VStem: 99 122<44.4801 601.64> 549 132<185.589 421.599>
LayerCount: 2
Fore
SplineSet
221 75 m 2xac
 221 46 230 40 308 40 c 0
 436 40 549 88 549 284 c 0
 549 435 480 606 283 606 c 0
 247 606 221 603 221 571 c 2
 221 75 l 2xac
24 0 m 1x4c
 22 2 l 1
 22 24 l 2
 22 30 26 33 30 33 c 2
 44 33 l 2
 84 33 99 45 99 77 c 2
 99 569 l 2
 99 601 84 613 44 613 c 2
 30 613 l 2
 26 613 22 616 22 621 c 2
 22 644 l 1
 24 646 l 1x5c
 320 646 l 2
 523 646 681 494 681 309 c 0
 681 63 487 0 338 0 c 2xac
 24 0 l 1x4c
EndSplineSet
EndChar

StartChar: u1D404
Encoding: 119812 119812 4
Width: 562
Flags: W
TopAccentHorizontal: 281
HStem: 0 46<224.232 442.935> 0 33<27 94.1445> 323 42<224 361.625> 427 20G<383 415> 600 46<224.232 421.482> 613 33<27 94.1445>
VStem: 101 123<46.578 323 365 599.422> 372 36<251.814 315.565 372.621 436.233> 474 40<482.425 531.807> 499 43<118.211 170.628>
LayerCount: 2
Fore
SplineSet
27 0 m 1x7340
 24 2 l 1
 24 24 l 2
 24 30 28 33 32 33 c 2
 46 33 l 2
 86 33 101 45 101 77 c 2
 101 569 l 2
 101 601 86 613 46 613 c 2
 32 613 l 2
 28 613 24 616 24 621 c 2
 24 644 l 1
 27 646 l 1
 493 646 l 1x7740
 497 588 504 535 514 484 c 1
 474 475 l 1
 460 526 435 600 368 600 c 2
 238 600 l 2
 229 600 224 592 224 571 c 2
 224 365 l 1
 337 365 l 2
 362 365 366 396 372 436 c 0
 372 440 378 447 388 447 c 2
 409 447 l 1
 415 437 l 1
 413 421 408 381 408 344 c 0
 408 308 413 268 415 251 c 1
 409 242 l 1
 388 242 l 2
 378 242 372 248 372 252 c 0
 366 293 362 323 337 323 c 2
 224 323 l 1
 224 75 l 2
 224 52 229 46 238 46 c 2
 391 46 l 2xbb80
 446 46 482 105 499 179 c 1
 542 169 l 1
 532 116 522 54 515 0 c 1
 27 0 l 1x7340
EndSplineSet
EndChar

StartChar: u1D405
Encoding: 119813 119813 5
Width: 513
Flags: W
TopAccentHorizontal: 280
HStem: -2 34<26 94.7241 230.184 298> 323 42<223 360.625> 427 20G<382 414> 600 46<223.232 420.482> 613 33<27 94.1445>
VStem: 101 122<37.5094 323 365 599.422> 371 36<251.813 315.565 372.621 436.232> 473 40<482.425 531.807>
LayerCount: 2
Fore
SplineSet
223 76 m 2xf7
 223 48 237 32 278 32 c 2
 292 32 l 2
 297 32 300 29 300 23 c 2
 300 0 l 1
 298 -2 l 1
 298 -2 198 0 162 0 c 0
 123 0 26 -2 26 -2 c 1
 24 0 l 1
 24 23 l 2
 24 29 28 32 32 32 c 2
 46 32 l 2
 86 32 101 44 101 76 c 2
 101 569 l 2
 101 601 86 613 46 613 c 2
 32 613 l 2
 28 613 24 616 24 621 c 2
 24 644 l 1
 27 646 l 1
 492 646 l 1xef
 496 588 503 535 513 484 c 1
 473 475 l 1
 459 526 434 600 367 600 c 2
 237 600 l 2
 228 600 223 592 223 571 c 2
 223 365 l 1
 336 365 l 2
 361 365 365 396 371 436 c 0
 371 440 377 447 387 447 c 2
 408 447 l 1
 414 437 l 1
 412 421 407 380.4 407 344 c 0
 407 307.6 412 268 414 251 c 1
 408 242 l 1
 387 242 l 2
 377 242 371 248 371 252 c 0
 365 293 361 323 336 323 c 2
 223 323 l 1
 223 76 l 2xf7
EndSplineSet
EndChar

StartChar: u1D406
Encoding: 119814 119814 6
Width: 727
Flags: W
TopAccentHorizontal: 363
HStem: -10 44<306.541 502.262> 272 34<440 520.715 652.798 706> 437 21G<571 624> 617 41<300.747 473.546>
VStem: 29 130<202 430.82> 532 117<85.3282 262.125> 585 39<443.564 488.517>
LayerCount: 2
Fore
SplineSet
649 229 m 2xfc
 649 114 l 2xfc
 649 99 653 92 661 85 c 1
 591 26 512 -10 386 -10 c 0
 173 -10 29 134 29 308 c 0
 29 528 205 658 383 658 c 0
 518 658 551 614 602 614 c 1
 605 556 614 500 624 445 c 1
 585 437 l 1xfa
 557 531 509 617 382 617 c 0
 261 617 159 498 159 327 c 0
 159 176 243 34 404 34 c 0
 447 34 498 46 532 74 c 1
 532 229 l 2
 532 260 500 272 460 272 c 2
 446 272 l 2
 442 272 438 275 438 281 c 2
 438 304 l 1
 440 306 l 1
 440 306 537 304 576 304 c 0
 612 304 706 306 706 306 c 1
 708 304 l 1
 708 281 l 2
 708 275 705 272 700 272 c 2
 694 272 l 2
 653 272 649 256 649 229 c 2xfc
EndSplineSet
EndChar

StartChar: u1D407
Encoding: 119815 119815 7
Width: 723
Flags: W
TopAccentHorizontal: 361
HStem: -2 34<24 92.7241 229.184 297 427 495.724 632.184 700> 321 46<222 502> 613 34<24 92.7241 229.184 297 427 495.724 632.184 700>
VStem: 99 123<37.5094 321 367 607.491> 502 123<37.5094 321 367 607.491>
LayerCount: 2
Fore
SplineSet
502 569 m 2
 502 601 487 613 447 613 c 2
 433 613 l 2
 429 613 425 616 425 621 c 2
 425 645 l 1
 427 647 l 1
 427 647 524 645 563 645 c 0
 599 645 700 647 700 647 c 1
 702 645 l 1
 702 621 l 2
 702 616 699 613 694 613 c 2
 680 613 l 2
 639 613 625 597 625 569 c 2
 625 76 l 2
 625 48 639 32 680 32 c 2
 694 32 l 2
 699 32 702 29 702 23 c 2
 702 0 l 1
 700 -2 l 1
 700 -2 599 0 563 0 c 0
 524 0 427 -2 427 -2 c 1
 425 0 l 1
 425 23 l 2
 425 29 429 32 433 32 c 2
 447 32 l 2
 487 32 502 44 502 76 c 2
 502 321 l 1
 222 321 l 1
 222 76 l 2
 222 48 236 32 277 32 c 2
 291 32 l 2
 296 32 299 29 299 23 c 2
 299 0 l 1
 297 -2 l 1
 297 -2 196 0 160 0 c 0
 121 0 24 -2 24 -2 c 1
 22 0 l 1
 22 23 l 2
 22 29 26 32 30 32 c 2
 44 32 l 2
 84 32 99 44 99 76 c 2
 99 569 l 2
 99 601 84 613 44 613 c 2
 30 613 l 2
 26 613 22 616 22 621 c 2
 22 645 l 1
 24 647 l 1
 24 647 121 645 160 645 c 0
 196 645 297 647 297 647 c 1
 299 645 l 1
 299 621 l 2
 299 616 296 613 291 613 c 2
 277 613 l 2
 236 613 222 597 222 569 c 2
 222 367 l 1
 502 367 l 1
 502 569 l 2
EndSplineSet
EndChar

StartChar: u1D408
Encoding: 119816 119816 8
Width: 319
Flags: W
TopAccentHorizontal: 159
HStem: -2 34<24 92.7241 228.184 296> 613 34<24 92.7241 228.184 296>
VStem: 99 122<37.5094 607.491>
LayerCount: 2
Fore
SplineSet
221 76 m 2
 221 48 235 32 276 32 c 2
 290 32 l 2
 295 32 298 29 298 23 c 2
 298 0 l 1
 296 -2 l 1
 296 -2 196 0 160 0 c 0
 121 0 24 -2 24 -2 c 1
 22 0 l 1
 22 23 l 2
 22 29 26 32 30 32 c 2
 44 32 l 2
 84 32 99 44 99 76 c 2
 99 569 l 2
 99 601 84 613 44 613 c 2
 30 613 l 2
 26 613 22 616 22 621 c 2
 22 645 l 1
 24 647 l 1
 24 647 121 645 160 645 c 0
 196 645 296 647 296 647 c 1
 298 645 l 1
 298 621 l 2
 298 616 295 613 290 613 c 2
 276 613 l 2
 235 613 221 597 221 569 c 2
 221 76 l 2
EndSplineSet
EndChar

StartChar: u1D409
Encoding: 119817 119817 9
Width: 380
Flags: W
TopAccentHorizontal: 190
HStem: -182 60<0 111.118> 613 34<46 132.495 274.067 343>
VStem: 144 122<-31.7167 602.99>
LayerCount: 2
Fore
SplineSet
70 -122 m 0
 103 -122 144 -99 144 81 c 2
 144 554 l 2
 144 603 124 609 73 612 c 2
 53 613 l 2
 48 613 44 616 44 621 c 2
 44 645 l 1
 46 647 l 1
 93 646 145 645 184 645 c 0
 224 645 296 646 343 647 c 1
 345 645 l 1
 345 621 l 2
 345 616 342 613 337 613 c 2
 320 612 l 2
 279 610 266 597 266 569 c 2
 266 103 l 2
 266 -25 224 -92 166 -138 c 1
 121 -176 52 -182 27 -182 c 0
 -27 -182 -83 -167 -83 -119 c 0
 -83 -90 -51 -71 -32 -71 c 0
 9 -71 24 -89 37 -107 c 0
 47 -120 56 -122 70 -122 c 0
EndSplineSet
EndChar

StartChar: u1D40A
Encoding: 119818 119818 10
Width: 660
Flags: W
TopAccentHorizontal: 330
HStem: -2 34<24 92.7241 228.184 296 592.702 655> 613 34<24 92.7241 227.845 295 394 449>
VStem: 99 122<37.5094 294 368 607.491>
DStem2: 221 368 351 404 0.729537 0.683941<50.9707 327.506> 324 331 221 294 0.685275 -0.728284<-31.7083 302.124>
LayerCount: 2
Fore
SplineSet
221 76 m 2
 221 48 235 32 276 32 c 2
 290 32 l 2
 295 32 298 29 298 23 c 2
 298 0 l 1
 296 -2 l 1
 296 -2 196 0 160 0 c 0
 121 0 24 -2 24 -2 c 1
 22 0 l 1
 22 23 l 2
 22 29 26 32 30 32 c 2
 44 32 l 2
 84 32 99 44 99 76 c 2
 99 569 l 2
 99 601 84 613 44 613 c 2
 30 613 l 2
 26 613 22 616 22 621 c 2
 22 645 l 1
 24 647 l 1
 24 647 121 645 160 645 c 0
 196 645 295 647 295 647 c 1
 297 645 l 1
 297 621 l 2
 297 616 294 613 290 613 c 2
 275 613 l 2
 234 613 221 597 221 569 c 2
 221 368 l 1
 429 563 l 2
 443 576 468 611 430 611 c 0
 409 611 390 613 390 623 c 2
 390 644 l 1
 394 647 l 1
 394 647 489 645 528 645 c 0
 563 645 645 647 645 647 c 1
 650 644 l 1
 650 623 l 2
 650 614 637 612 620 611 c 1
 589 606 551 587 506 544 c 1
 351 404 l 2
 308 364 303.6 352.7 324 331 c 2
 563 77 l 2
 588 51 607 34 624 34 c 2
 642 34 l 2
 657 34 658 30 658 22 c 2
 658 0 l 1
 655 -2 l 1
 655 -2 563 0 525 0 c 0
 489 0 446 -2 446 -2 c 1
 442 2 l 1
 442 28 l 2
 442 47 442 57 427 72 c 2
 221 294 l 1
 221 76 l 2
EndSplineSet
EndChar

StartChar: u1D40B
Encoding: 119819 119819 11
Width: 538
Flags: W
TopAccentHorizontal: 159
HStem: 0 46<226.022 406.689> 0 32<26 97.3856> 613 34<24 93.4759 228.845 296>
VStem: 100 122<48.2759 607.491> 473 39<128.382 174.436>
LayerCount: 2
Fore
SplineSet
100 569 m 2x78
 100 601 84 613 45 613 c 2
 31 613 l 2
 26 613 22 616 22 621 c 2
 22 645 l 1
 24 647 l 1
 24 647 122 645 161 645 c 0
 196 645 296 647 296 647 c 1
 298 645 l 1
 298 621 l 2
 298 616 295 613 291 613 c 2
 276 613 l 2
 235 613 222 597 222 569 c 2
 222 92 l 2
 222 62 235 46 256 46 c 2
 342 46 l 2xb8
 421 46 457 120 473 181 c 1
 512 173 l 1
 501 119 490 56 488 0 c 1
 144.8 0 l 2
 104.8 0 26 -2 26 -2 c 1
 22 0 l 1
 22 20 l 2
 22 27 26 32 38 32 c 2
 70 32 l 2
 94 32 100 41 100 72 c 2
 100 569 l 2x78
EndSplineSet
EndChar

StartChar: u1D40C
Encoding: 119820 119820 12
Width: 853
Flags: W
TopAccentHorizontal: 426
HStem: -12 21G<399.5 412> -2 34<26 95.4822 172.259 240 573 639.045 762.489 829> 613 33<67 130.252 717.755 786>
DStem2: 105 76 168 76 0.0567038 0.998391<-34.2015 377.163> 236 646 189 449 0.387297 -0.921955<163.422 529.31> 711 569 612 446 0.0868912 -0.996218<113.933 521.686>
LayerCount: 2
Fore
SplineSet
711 569 m 2x60
 754 76 l 2
 757 48 768 32 809 32 c 2
 823 32 l 2
 828 32 831 29 831 23 c 2
 831 0 l 1
 829 -2 l 1
 829 -2 730 0 695 0 c 0
 656 0 573 -2 573 -2 c 1
 571 0 l 1
 571 23 l 2
 571 29 575 32 579 32 c 2
 593 32 l 2x60
 633 32 646 45 643 76 c 2
 612 446 l 1
 552 300 433 7 433 7 c 2
 428 -3 420 -12 404 -12 c 0xa0
 395 -12 379 -7 374 7 c 2
 374 7 262 278 189 449 c 1
 168 76 l 2
 166 44 179 32 220 32 c 2
 234 32 l 2
 239 32 242 29 242 23 c 2
 242 0 l 1
 240 -2 l 1
 240 -2 167 0 132 0 c 0
 93 0 26 -2 26 -2 c 1
 24 0 l 1
 24 23 l 2
 24 29 28 32 32 32 c 2
 42 32 l 2
 82 32 103 44 105 76 c 2
 133 569 l 2
 134.9 602 127 613 88 613 c 2
 74 613 l 2
 69 613 65 616 65 621 c 2
 65 645 l 1
 67 646 l 1
 67 646 197 646 236 646 c 1
 441 158 l 1
 504 315 569 491 631 646 c 1
 786 646 l 1
 788 645 l 1
 788 621 l 2
 788 616 785 613 780 613 c 2
 766 613 l 2
 725 613 708.6 597 711 569 c 2x60
EndSplineSet
EndChar

StartChar: u1D40D
Encoding: 119821 119821 13
Width: 710
Flags: W
TopAccentHorizontal: 355
HStem: -12 21G<559.5 586.5> -2 34<29 103.367 182.184 250> 613 33<25 81.1901 471 539.197 617.803 685>
VStem: 112 63<39.0858 470> 546 64<168 607.491>
DStem2: 170 646 112 560 0.60397 -0.797007<0 33.5123 143.293 608.062>
LayerCount: 2
Fore
SplineSet
546 569 m 2x78
 546 601 531 613 492 613 c 2
 478 613 l 2
 473 613 469 616 469 621 c 2
 469 645 l 1
 471 646 l 1
 471 646 539 645 578 645 c 0
 613 645 685 646 685 646 c 1
 687 645 l 1
 687 621 l 2
 687 616 684 613 679 613 c 2
 665 613 l 2
 624 613 610 597 610 569 c 2
 610 25 l 2
 610 3 601 -12 572 -12 c 0xb8
 547 -12 535 2 525 15 c 2
 175 470 l 1
 175 76 l 2
 175 48 189 32 230 32 c 2
 244 32 l 2
 249 32 252 29 252 23 c 2
 252 0 l 1
 250 -2 l 1
 250 -2 177 0 142 0 c 0
 103 0 29 -2 29 -2 c 1
 27 0 l 1
 27 23 l 2
 27 29 31 32 35 32 c 2
 49 32 l 2
 89 32 112 44 112 76 c 2
 112 560 l 1
 94 585 74 613 42 613 c 0
 25 613 22 617 22 624 c 2
 22 643 l 1
 25 646 l 1
 170 646 l 1
 546 168 l 1
 546 569 l 2x78
EndSplineSet
EndChar

StartChar: u1D40E
Encoding: 119822 119822 14
Width: 730
Flags: W
TopAccentHorizontal: 365
HStem: -10 41<303.11 453.742> 617 41<284.435 429.841>
VStem: 37 131<190.561 438.95> 562 132<199.461 449.883>
LayerCount: 2
Fore
SplineSet
351 617 m 0
 266 617 168 532 168 328 c 0
 168 140 266 31 384 31 c 0
 485 31 562 136 562 310 c 0
 562 513 464 617 351 617 c 0
694 329 m 0
 694 129 566 -10 364 -10 c 0
 182 -10 37 113 37 311 c 0
 37 507 173 658 363 658 c 0
 540 658 694 528 694 329 c 0
EndSplineSet
EndChar

StartChar: u1D40F
Encoding: 119823 119823 15
Width: 550
Flags: W
TopAccentHorizontal: 275
HStem: -2 34<24 44 281 306> 279 40<221 346.677> 611 36<24 93.1927> 613 41<126.947 352.681>
VStem: 99 122<44.5532 282 319.949 606.701> 406 127<391.868 561.741>
LayerCount: 2
Fore
SplineSet
221 558 m 2xdc
 221 322 l 1
 235 320 256 319 271 319 c 0
 353 319 406 363 406 467 c 0
 406 589 339 613 281 613 c 0
 228 613 221 593 221 558 c 2xdc
99 89 m 2
 99 560 l 2
 99 595 87 610 65 611 c 2xec
 33 613 l 2xdc
 25 613 22 617 22 621 c 2
 22 645 l 1
 24 647 l 1xec
 83 647 208 654 289 654 c 0
 490 654 533 548 533 484 c 0
 533 388 473 279 276 279 c 0
 252 279 235 280 221 282 c 1
 221 89 l 2
 221 51 241.2 38.2 281 34 c 2
 300 32 l 2
 306 31.4 308 29 308 23 c 2
 308 0 l 1
 306 -2 l 1
 269 -1 198 0 160 0 c 0
 122 0 61 -1 24 -2 c 1
 22 0 l 1
 22 23 l 2
 22 29 26.1 31.4 30 32 c 2
 44 34 l 2
 84.7 39.8 99 51 99 89 c 2
EndSplineSet
EndChar

StartChar: u1D410
Encoding: 119824 119824 16
Width: 730
VWidth: 999
Flags: W
TopAccentHorizontal: 346
HStem: -219 67<491.283 620.202> -124 54<243.5 328.318> -10 41<303.11 453.742> -2 30<382.451 415.1> 617 41<284.435 429.841>
VStem: 37 131<190.561 438.95> 562 132<199.461 449.883>
LayerCount: 2
Fore
SplineSet
351 617 m 0xee
 266 617 168 532 168 328 c 0
 168 140 266 31 384 31 c 0
 485 31 562 136 562 310 c 0
 562 513 464 617 351 617 c 0xee
156.6 -129.9 m 0
 192.9 -86.3 249.5 -38.3 311.2 -6.4 c 1
 154.7 15.1 37 132.6 37 311 c 0
 37 507 173 658 363 658 c 0
 540 658 694 528 694 329 c 0
 694 141.1 580.9 7 399.7 -8.5 c 1
 370 -19 329.7 -39.5 288.3 -70.4 c 1
 291.7 -70.1 294.9 -70 298 -70 c 0
 408 -70 489 -152 577 -152 c 0
 606 -152 642 -142 664 -115 c 1
 681 -137 l 1
 642 -193 600 -219 537 -219 c 0
 407 -219 344 -124 251 -124 c 0
 243.1 -124 228.8 -127.6 214.2 -137.7 c 1
 201.5 -151.7 189.4 -166.8 178 -183 c 1
 139 -153 l 1
 143.8 -144.7 149.8 -137 156.6 -129.9 c 0
EndSplineSet
EndChar

StartChar: u1D411
Encoding: 119825 119825 17
Width: 609
VWidth: 999
Flags: W
ItalicCorrection: 29
TopAccentHorizontal: 302
HStem: -1 34<24 91.8165 227.855 296> 5 35<552.269 614> 276 46<221 307.856> 613 41<223.352 363.21>
VStem: 99 122<38.748 276 322 603.215> 412 120<379.798 560.258>
DStem2: 418 294 316 247 0.465188 -0.885212<-0.580335 264.662>
LayerCount: 2
Fore
SplineSet
412 468 m 0x3c
 412 567 362 613 302 613 c 0
 266 613 245 610 221 605 c 1
 221 322 l 1
 270 322 l 2
 367 322 412 368 412 468 c 0x3c
532 482 m 0
 532 381 489 332 418 294 c 1
 521 98 l 2
 543 54 574 35 614 40 c 1
 618 5 l 1x7c
 589 -4 551 -6 536 -6 c 0
 477 -6 432 32 406 79 c 2
 316 247 l 2
 302 272 273 276 221 276 c 1
 221 77 l 2
 221 46 236 33 276 33 c 2
 290 33 l 2
 294 33 298 30 298 24 c 2
 298 1 l 1
 296 -1 l 1
 296 -1 222 1 183 1 c 0
 147 1 24 -1 24 -1 c 1
 22 1 l 1
 22 24 l 2
 22 30 25 33 30 33 c 2
 44 33 l 2xbc
 85 33 99 49 99 77 c 2
 99 559 l 2
 99 587 95 604 69 604 c 0
 66 604 64 604 62 604 c 2
 32 601 l 2
 27 601 24 604 24 608 c 2
 24 642 l 1
 45 647 180 654 297 654 c 0
 417 654 532 604 532 482 c 0
EndSplineSet
EndChar

StartChar: u1D412
Encoding: 119826 119826 18
Width: 475
VWidth: 999
Flags: W
TopAccentHorizontal: 227
HStem: -10 41<154.843 292.988> 0 21G<52 61.5> 619 39<169.278 290.653>
VStem: 34 40<123.525 175.525> 42 95<458.92 571.246> 334 107<83.8232 221.701> 363 40<478.125 529.967>
LayerCount: 2
Fore
SplineSet
382 631 m 1xac
 386 578 394 528 403 479 c 1
 363 474 l 1xaa
 345 540 312 619 227 619 c 0
 161 619 137 573 137 517 c 0
 137 453 216 403 258 388 c 0
 342 358 441 305 441 184 c 0
 441 51 355 -10 241 -10 c 0xac
 143 -10 123 5 99 5 c 0
 79 5 70 0 53 0 c 1
 51 51 44 99 34 175 c 1
 74 178 l 1x74
 94 87 153 31 220 31 c 0
 296 31 334 71 334 145 c 0
 334 203 304 254 243 278 c 0
 171 306 42 368 42 485 c 0
 42 605 142 658 228 658 c 0
 321 658 327 639 382 631 c 1xac
EndSplineSet
EndChar

StartChar: u1D413
Encoding: 119827 119827 19
Width: 597
VWidth: 999
Flags: W
TopAccentHorizontal: 296
HStem: -2 34<151 230.816 366.855 447> 599 46<70.4923 235.855 362.438 526.846>
VStem: 8 39<518.103 570.778> 30 36<645.204 669> 238 122<37.748 595.906> 532 36<647.479 669> 550 40<518.125 570.778>
LayerCount: 2
Fore
SplineSet
87 645 m 2xd8
 510 645 l 2
 531 645 532 663 532 669 c 1
 568 673 l 1xdc
 572 624 579 572 590 519 c 1
 550 514 l 1
 530 594 517 599 462 599 c 2
 408 599 l 2
 372 599 360 590 360 557 c 2
 360 76 l 2
 360 45 375 32 415 32 c 2
 441 32 l 2
 445 32 449 29 449 23 c 2
 449 0 l 1
 447 -2 l 1
 447 -2 328 0 289 0 c 0
 253 0 151 -2 151 -2 c 1
 149 0 l 1
 149 23 l 2
 149 29 152 32 157 32 c 2
 183 32 l 2
 224 32 238 48 238 76 c 2
 238 560 l 2
 238 590 226 599 189 599 c 2
 136 599 l 2
 81 599 67 594 47 514 c 1
 8 519 l 1xea
 19 572 26 624 30 673 c 1
 66 669 l 1
 66 663 66 645 87 645 c 2xd8
EndSplineSet
EndChar

StartChar: u1D414
Encoding: 119828 119828 20
Width: 678
Flags: W
TopAccentHorizontal: 339
HStem: -10 41<290.084 433.392> 613 32<9 76.5971 215.067 281 445 513.259 602.451 669>
VStem: 84 123<130.61 607.491> 521 73<132.604 607.491>
LayerCount: 2
Fore
SplineSet
521 569 m 2
 521 601 505 613 466 613 c 2
 452 613 l 2
 447 613 443 616 443 621 c 2
 443 645 l 1
 445 646 l 1
 445 646 518 645 557 645 c 0
 593 645 669 646 669 646 c 1
 671 645 l 1
 671 621 l 2
 671 616 668 613 663 613 c 2
 649 613 l 2
 608 613 594 597 594 569 c 2
 594 295 l 2
 594 117 555 -10 334 -10 c 0
 237 -10 84 47 84 237 c 2
 84 569 l 2
 84 601 69 613 30 613 c 2
 16 613 l 2
 11 613 7 616 7 621 c 2
 7 645 l 1
 9 646 l 1
 9 646 106 645 146 645 c 0
 181 645 281 646 281 646 c 1
 283 645 l 1
 283 621 l 2
 283 616 280 613 275 613 c 2
 261 613 l 2
 220 613 207 597 207 569 c 2
 207 270 l 2
 207 204 207 127 253 80 c 1
 282 52 318 31 355 31 c 0
 502 31 521 170 521 278 c 2
 521 569 l 2
EndSplineSet
EndChar

StartChar: u1D415
Encoding: 119829 119829 21
Width: 636
VWidth: 999
Flags: W
TopAccentHorizontal: 329
HStem: -12 21G<305.5 316> 613 32<2 64.874 205.414 282 421 489.135 569.977 635>
DStem2: 205 572 88 554 0.330273 -0.943885<-28.2337 410.201> 341 185 345 11 0.349978 0.936758<0 442.237>
LayerCount: 2
Fore
SplineSet
427 613 m 0
 423 613 419 616 419 621 c 2
 419 645 l 1
 421 646 l 1
 421 646 508 645 547 645 c 0
 583 645 635 646 635 646 c 1
 637 645 l 1
 637 621 l 2
 637 616 634 613 629 613 c 0
 573 613 566 602 546 549 c 2
 345 11 l 2
 339 -4 321 -12 311 -12 c 0
 300 -12 283 -4 278 11 c 2
 88 554 l 2
 71 600 59 613 8 613 c 0
 4 613 0 616 0 621 c 2
 0 645 l 1
 2 646 l 1
 2 646 99 645 138 645 c 0
 174 645 282 646 282 646 c 1
 284 645 l 1
 284 621 l 2
 284 616 281 613 276 613 c 0
 213 613 194 603 205 572 c 2
 330 216 l 1
 341 185 l 1
 353 213 l 1
 483 562 l 2
 499 604 492 613 427 613 c 0
EndSplineSet
EndChar

StartChar: u1D416
Encoding: 119830 119830 22
Width: 998
VWidth: 999
Flags: W
TopAccentHorizontal: 491
HStem: -12 21G<295.5 324.5 642 677> 613 33<2 59.625 200.357 254 344 408.201 550.683 610 769 832.647 908.656 976>
DStem2: 204 572 80 562 0.313524 -0.94958<-31.8815 448.415> 344 146 368 33 0.312844 0.949805<0 265.721> 553 554 443 508 0.313554 -0.94957<-47.1214 36.9442 143.308 436.401> 688 139 720 44 0.314572 0.949234<0 485.022>
LayerCount: 2
Fore
SplineSet
312 -12 m 0
 279 -12 265 5 254 35 c 1
 80 562 l 2
 71 587 53 613 25 613 c 2
 12 613 l 2
 5 613 0 616 0 621 c 2
 0 644 l 1
 2 646 l 1
 2 646 75 645 113 645 c 0
 164 645 254 646 254 646 c 1
 257 644 l 1
 257 622 l 2
 257 616 253 613 248 613 c 0
 209 613 191 609 204 572 c 2
 321 218 l 1
 344 146 l 1
 367 216 l 1
 441 442 l 2
 445 454 448 467 448 480 c 0
 448 489 447 498 443 508 c 2
 422 572 l 2
 414 599 396 613 357 613 c 2
 354 613 l 2
 347 613 342 616 342 621 c 2
 342 644 l 1
 344 646 l 1
 344 646 400 645 440 645 c 0
 489 645 610 646 610 646 c 1
 612 644 l 1
 612 620 l 2
 612 615 607 613 604 613 c 0
 568 613 534 611 553 554 c 2
 667 207 l 1
 688 139 l 1
 714 215 l 1
 832 569 l 2
 844 605 822 613 774 613 c 0
 770 613 766 617 766 620 c 2
 766 644 l 1
 769 646 l 1
 769 646 850 645 892 645 c 0
 924 645 976 646 976 646 c 1
 978 645 l 1
 978 621 l 2
 978 613 967 613 966 613 c 2
 955 613 l 2
 916 613 905 601 891 560 c 2
 720 44 l 2
 707 4 691 -12 663 -12 c 0
 621 -12 608 7 598 39 c 2
 489 367 l 2
 486 376 485 380 483 380 c 0
 482 380 480 375 479 370 c 2
 368 33 l 2
 359 4 337 -12 312 -12 c 0
EndSplineSet
EndChar

StartChar: u1D417
Encoding: 119831 119831 23
Width: 708
VWidth: 999
Flags: W
TopAccentHorizontal: 363
HStem: -2 34<6 77.2637 175.139 221 431 479.696 642.975 703> 613 32<24 81.6763 243.172 295 464 510.913 615.064 682>
DStem2: 253 572 129 549 0.578967 -0.815351<-30.4141 207.826 286.619 564.202> 388 412 565 552 0.640675 0.767812<-16.6551 209.908>
LayerCount: 2
Fore
SplineSet
24 620 m 2
 24 645 l 1
 29 646 l 1
 55 646 119 645 130 645 c 0
 135 645 260 646 291 646 c 1
 291 646 294 645 295 645 c 1
 295 620 l 2
 295 615 293 613 290 613 c 0
 239 613 233 603 253 572 c 2
 360 414 l 2
 373 396 375 397 388 412 c 0
 428 461 479 524 506 572 c 0
 526 609 492 613 469 613 c 0
 466 613 462 615 462 620 c 2
 462 645 l 1
 464 646 l 1
 486 646 573 645 584 645 c 0
 589 645 664 646 682 646 c 1
 684 645 l 1
 684 620 l 2
 684 617 684 613 675 613 c 0
 624 613 594 586 565 552 c 2
 421 383 l 2
 403 362 404 358 438 312 c 2
 591 102 l 2
 619 63 653 32 697 32 c 0
 702 32 704 28 704 24 c 2
 704 0 l 1
 703 -2 l 1
 675 -1 609 0 597 0 c 0
 591 0 431 -2 431 -2 c 1
 428 0 l 1
 428 25 l 2
 428 29 431 32 434 32 c 0
 494 32 492 38 467 73 c 2
 345 246 l 2
 324 277 321 277 307 258 c 0
 263 201 219 136 183 77 c 0
 158 35 195 32 218 32 c 0
 222 32 224 28 224 24 c 2
 224 0 l 1
 221 -2 l 1
 221 -2 104 0 90 0 c 0
 85 0 6 -2 6 -2 c 1
 5 0 l 1
 5 25 l 2
 5 30 10 32 16 32 c 0
 75 32 100 65 131 104 c 2
 277 291 l 1
 294 311 293 316 273 344 c 2
 129 549 l 2
 90 605 52 613 35 613 c 0
 28 613 24 615 24 620 c 2
EndSplineSet
EndChar

StartChar: u1D418
Encoding: 119832 119832 24
Width: 617
VWidth: 999
Flags: W
TopAccentHorizontal: 315
HStem: -1 34<167 249.271 380.901 464> 613 34<2 65.7637 188.987 243 417 464.721 539.845 615>
VStem: 254 122<37.166 281>
DStem2: 197 576 97 553 0.499906 -0.86608<-27.9379 279.078> 336 334 376 293 0.468465 0.883482<0 295.737>
LayerCount: 2
Fore
SplineSet
254 72 m 2
 254 281 l 1
 97 553 l 2
 63 610 50 613 23 613 c 2
 11 613 l 2
 5 613 0 615 0 620 c 2
 0 645 l 1
 2 647 l 1
 2 647 116 645 129 645 c 0
 135 645 243 647 243 647 c 1
 245 645 l 1
 245 621 l 2
 245 617 243 613 238 613 c 0
 187 613 177 609 197 576 c 2
 336 334 l 1
 464 576 l 2
 475 596 457 613 421 613 c 0
 416 613 415 617 415 620 c 2
 415 645 l 1
 417 647 l 1
 417 647 496 645 508 645 c 0
 517 645 615 647 615 647 c 1
 617 645 l 1
 617 621 l 2
 617 615 613 613 607 613 c 2
 586 613 l 2
 556 613 542 606 525 574 c 2
 376 293 l 1
 376 72 l 2
 376 41 392 33 431 33 c 2
 458 33 l 2
 462 33 466 30 466 24 c 2
 466 1 l 1
 464 -1 l 1
 464 -1 355 1 316 1 c 0
 280 1 167 -1 167 -1 c 1
 166 1 l 1
 166 24 l 2
 166 30 168 33 173 33 c 2
 200 33 l 2
 241 33 254 44 254 72 c 2
EndSplineSet
EndChar

StartChar: u1D419
Encoding: 119833 119833 25
Width: 624
VWidth: 999
Flags: W
TopAccentHorizontal: 319
HStem: 0 44<188.684 499.676> 602 43<134.566 417.995> 638 20G<66 86.5>
VStem: 46 39<490.103 537.024> 557 41<114.968 165.854>
DStem2: 28 38 193 72 0.583791 0.811904<105.537 679.919>
LayerCount: 2
Fore
SplineSet
572 0 m 1xd8
 39 0 l 2
 25 0 20 5 20 15 c 0
 20 22 22 30 28 38 c 2
 417 579 l 2
 424 589 433 602 415 602 c 2
 200 602 l 2xd8
 125 602 107 555 85 486 c 1
 46 491 l 1
 54 532 64 604 68 658 c 1xb8
 105 655 102 645 149 645 c 2
 506 645 l 1
 537 648 556 650 569 650 c 0
 588 650 591 647 591 640 c 0
 591 629 587 619 567 591 c 2
 193 72 l 2
 180 53 178 44 209 44 c 2
 432 44 l 2
 508 44 537 98 557 170 c 1
 598 165 l 1
 587 113 576 56 572 0 c 1xd8
EndSplineSet
EndChar

StartChar: u1D41A
Encoding: 119834 119834 26
Width: 476
Flags: W
TopAccentHorizontal: 238
HStem: -10 55<110.871 229.853 351 447.215> 406 38<148.426 256.61>
VStem: 36 105<56.7004 159.155> 48 93<295.994 379.736> 282 108<69.6589 219 257 374.929>
DStem2: 210 236 225 202 0.96 0.28<-70.2096 64.36>
LayerCount: 2
Fore
SplineSet
281 48 m 1xd8
 242.5 14.5 198 -10 156 -10 c 0
 69 -10 36 26 36 95 c 0xe8
 36 174 106.9 205.9 210 236 c 2
 282 257 l 1
 282 384 254 406 212 406 c 0
 174 406 141 393 141 371 c 0
 141 351 147 340 147 328 c 0
 147 314 123 290 95 290 c 0
 59 290 48 306 48 332 c 0
 48 392 153 444 226 444 c 0
 308 444 390 415 390 271 c 2
 390 126 l 2
 390 80 391 42 430 42 c 0
 454.2 42 455.2 58 461 58 c 0
 465 58 474 45 474 38 c 0
 474 33 436 -10 381 -10 c 0
 321 -10 295 9.5 283 48 c 1
 281 48 l 1xd8
282 85 m 1
 282 219 l 1
 225 202 l 2
 154.7 181 141 151 141 110 c 0
 141 75 156 45 204 45 c 0
 222 45 257 65 282 85 c 1
EndSplineSet
AlternateSubs2: "'ssty' Script Style in Mathematical Alphanumeric Symbols lookup 0-1" u1D41A.ssty
EndChar

StartChar: u1D41B
Encoding: 119835 119835 27
Width: 505
Flags: W
TopAccentHorizontal: 252
HStem: -10 41<188.988 292.544> 393 51<215.683 304.122> 638 34<6.01603 44> 678 20G<158.465 175.5>
VStem: 74 110<40.573 375.172 402 635.227> 353 115<135.572 330.968>
LayerCount: 2
Fore
SplineSet
184 56 m 1
 201 37 216 31 234 31 c 0
 313 31 353 109 353 220 c 0
 353 318 310 393 261 393 c 0
 237.5 393 217 383.5 184 362 c 1
 184 56 l 1
74 563 m 2
 74 628 64 636 44 636 c 1
 12 638 l 2
 8.8 638.2 6.3 640 6 643 c 2
 3 672 l 1
 43.5 675 145.9 688 171 698 c 1
 180 698 187 695 187 688 c 2
 187 688 184 648 184 583 c 2
 184 402 l 1
 213 423 248 444 286 444 c 0
 384 444 468 366 468 243 c 0
 468 83 350 -10 239 -10 c 0
 195 -10 158 12 134 40 c 1
 104 -13 l 1
 70 -7 l 1
 73 17 74 36 74 74 c 2
 74 563 l 2
EndSplineSet
AlternateSubs2: "'ssty' Script Style in Mathematical Alphanumeric Symbols lookup 0-1" u1D41B.ssty
EndChar

StartChar: u1D41C
Encoding: 119836 119836 28
Width: 435
Flags: W
TopAccentHorizontal: 217
HStem: -10 51<217.015 335.943> 402 42<202.671 287.291>
VStem: 37 114<121.53 309.251> 304 107<294.396 387.973>
LayerCount: 2
Fore
SplineSet
406 87 m 1
 376 26 320 -10 249 -10 c 0
 107 -10 37 71 37 201 c 0
 37 344 135 444 253 444 c 0
 362 444 411 394 411 340 c 0
 411 309 393 284 361 284 c 0
 329 284 307 304 304 331 c 0
 301 363 287 402 249 402 c 0
 196 402 151 337 151 226 c 0
 151 118 209 41 275 41 c 0
 312 41 343 58 386 106 c 1
 406 87 l 1
EndSplineSet
AlternateSubs2: "'ssty' Script Style in Mathematical Alphanumeric Symbols lookup 0-1" u1D41C.ssty
EndChar

StartChar: u1D41D
Encoding: 119837 119837 29
Width: 527
Flags: W
TopAccentHorizontal: 263
HStem: -10 50<201.993 305.84> 28 31<462.031 508> 402 42<202.292 301.893> 638 34<266.016 304> 678 20G<418.466 435.5>
VStem: 37 115<105.179 315.346> 334 110<71.0411 371.307 419 635.227>
LayerCount: 2
Fore
SplineSet
334 343 m 1xbe
 312 376 286 402 255 402 c 0
 214 402 152 367 152 222 c 0
 152 96 199 40 256 40 c 0
 276 40 298 50 334 84 c 1
 334 343 l 1xbe
444 583 m 2
 444 115 l 2
 444 85 455 64 508 59 c 1
 510 28 l 1x7e
 444 21 401 5 368 -12 c 1
 334 -12 l 1
 336 35 l 1
 298 2 273 -10 231 -10 c 0
 125 -10 37 81 37 205 c 0
 37 276 59 338 105 384 c 1
 146 422 192 444 269 444 c 0
 285 444 320 433 334 419 c 1
 334 563 l 2
 334 628 324 636 304 636 c 1
 272 638 l 2
 268.8 638.2 266.3 640 266 643 c 2
 263 672 l 1
 303.5 675 405.9 688 431 698 c 1
 440 698 447 695 447 688 c 2
 447 688 444 648 444 583 c 2
EndSplineSet
AlternateSubs2: "'ssty' Script Style in Mathematical Alphanumeric Symbols lookup 0-1" u1D41D.ssty
EndChar

StartChar: u1D41E
Encoding: 119838 119838 30
Width: 461
Flags: W
TopAccentHorizontal: 230
HStem: -10 56<218.732 346.305> 245 40<154 316> 402 42<199.114 288.493>
VStem: 34 115<124.669 245 285 306.603> 316 115<259 363.973>
LayerCount: 2
Fore
SplineSet
154 285 m 1
 314 285 l 1
 316 287 316 290 316 296 c 0
 316 376 275 402 248 402 c 0
 227 402 168 387 154 285 c 1
397 109 m 1
 422 88 l 1
 385 13 315 -10 246 -10 c 0
 94 -10 34 88 34 198 c 0
 34 351 144 444 249 444 c 0
 396 444 431 351 431 266 c 0
 431 252 416 245 392 245 c 2
 149 245 l 1
 149 240 149 226 149 219 c 0
 149 121 207 46 285 46 c 0
 323 46 360 64 397 109 c 1
EndSplineSet
AlternateSubs2: "'ssty' Script Style in Mathematical Alphanumeric Symbols lookup 0-1" u1D41E.ssty
EndChar

StartChar: u1D41F
Encoding: 119839 119839 31
Width: 336
Flags: W
ItalicCorrection: 71
TopAccentHorizontal: 246
HStem: -2 34<31 51 263 287> 387 47<26.0674 99 209 325> 656 42<236.761 302.441>
VStem: 99 110<43.1437 387 434 564.894>
LayerCount: 2
Fore
SplineSet
99 75 m 2
 99 387 l 1
 53 387 l 2
 30 387 26 390 26 397 c 2
 26 411 l 2
 26 419 36 434 70 434 c 2
 99 434 l 1
 99 444 l 2
 99 609 145 698 248 698 c 0
 354 698 387 641 387 624 c 0
 387 599 370 574 341 574 c 0
 310 574 288.588506588 589.015253562 280 614 c 0
 269 646 244.9765625 658.809570312 229 653 c 0
 207 645 209 634 209 485 c 2
 209 434 l 1
 305 434 l 2
 324 434 325 430 325 424 c 2
 325 404 l 2
 325 392 308 387 290 387 c 2
 209 387 l 1
 209 78 l 2
 209 50 231.8 37.5 263 34 c 2
 281 32 l 2
 285 31 289 29 289 23 c 2
 289 0 l 1
 287 -2 l 1
 287 -2 191 0 152 0 c 0
 116 0 31 -2 31 -2 c 1
 29 0 l 1
 29 23 l 2
 29 29 32 31 37 32 c 2
 51 34 l 2
 84 39 99 47 99 75 c 2
EndSplineSet
AlternateSubs2: "'ssty' Script Style in Mathematical Alphanumeric Symbols lookup 0-1" u1D41F.ssty
EndChar

StartChar: u1D420
Encoding: 119840 119840 32
Width: 508
Flags: MW
TopAccentHorizontal: 254
HStem: -238 42<178.622 331.027> -12 68<200.45 373.262> 135 37<205.129 289.171> 409 35<196.474 280.87> 424 43<370.607 460>
VStem: 38 94<-154.282 -55.8943> 62 106<210.3 365.373> 71 84<55.4643 131.752> 316 108<211.187 370.331> 406 91<-121.914 -39.1241>
LayerCount: 2
Fore
SplineSet
312 284 m 0xf0
 312 363 280 409 233 409 c 0
 194 409 164 375 164 301 c 0
 164 250 184 172 246 172 c 0
 272 172 312 188 312 284 c 0xf0
183 -15 m 0
 171 -15 160 -15 150 -11 c 1
 129 -33 128 -62 128 -96 c 0
 128 -167 203 -196 231 -196 c 0
 306 -196 402 -156 402 -81 c 0
 402 -15 301 -12 256 -12 c 0
 247 -12 238 -13 225 -14 c 0
 210 -15 194 -15 183 -15 c 0
447 383 m 0
 422 383 414 399 410 412 c 1
 407 418 404 424 395 424 c 0xe8
 385 424 374 416 366 406 c 1
 400 378 420 343 420 287 c 0
 420 189 335 135 241 135 c 0
 210 135 178.5 140 157.5 150 c 1
 152.5 138 151 117 151 101 c 0
 151 61 178 49 196 49 c 0
 205 49 252 56 290 56 c 0
 453 56 493 -17 493 -55 c 0
 493 -165 342 -238 203 -238 c 0
 121 -238 34 -205 34 -116 c 0
 34 -77 63 -34 115 1 c 1
 87 18 67 42 67 74 c 0
 67 105 89 138.5 119 166.5 c 1
 82 192 58 243 58 292 c 0
 58 385 146 444 242 444 c 0xf0
 287 444 318 435 336 425 c 1
 365 451 410 467 437 467 c 0xe8
 475 467 491 442 491 423 c 0
 491 399 475 383 447 383 c 0
EndSplineSet
AlternateSubs2: "'ssty' Script Style in Mathematical Alphanumeric Symbols lookup 0-1" u1D420.ssty
EndChar

StartChar: u1D421
Encoding: 119841 119841 33
Width: 550
Flags: W
TopAccentHorizontal: 275
HStem: -2 34<19 37 517 534> 390 55<268.267 393> 638 34<17.016 55> 678 20G<169.465 186.5>
VStem: 85 110<43.2797 355.227 381 635.227> 358 110<43.1478 384.199>
LayerCount: 2
Fore
SplineSet
468 77 m 2
 468 49 484.4 39.9 517 34 c 2
 528 32 l 2
 531.9 31.3 536 29 536 23 c 2
 536 0 l 1
 534 -2 l 1
 534 -2 450 0 411 0 c 0
 376 0 297 -2 297 -2 c 1
 295 0 l 1
 295 23 l 2
 295 29 298.1 31.2 303 32 c 2
 310 34 l 2
 340.8 42.8 358 49 358 77 c 2
 358 295 l 2
 358 373 348 390 308 390 c 0
 290 390 241 374 195 341 c 1
 195 77 l 2
 195 49 212.1 43.1 244 34 c 2
 251 32 l 2
 254.9 31.3 259 29 259 23 c 2
 259 0 l 1
 257 -2 l 1
 257 -2 177 0 138 0 c 0
 103 0 19 -2 19 -2 c 1
 17 0 l 1
 17 23 l 2
 17 29 20.1 31.2 25 32 c 2
 37 34 l 2
 68.6 39.3 85 49 85 77 c 2
 85 563 l 2
 85 628 75 636 55 636 c 1
 23 638 l 2
 19.8 638.2 17.3 640 17 643 c 2
 14 672 l 1
 54.5 675 156.9 688 182 698 c 1
 191 698 198 695 198 688 c 2
 198 688 195 648 195 583 c 2
 195 381 l 1
 250 422 313 445 350 445 c 0
 436 445 468 389 468 284 c 2
 468 77 l 2
EndSplineSet
AlternateSubs2: "'ssty' Script Style in Mathematical Alphanumeric Symbols lookup 0-1" u1D421.ssty
EndChar

StartChar: u1D422
Encoding: 119842 119842 34
Width: 286
VWidth: 999
Flags: W
TopAccentHorizontal: 143
HStem: -2 34<37 54 258 274> 387 30<38 79> 427 20G<191.25 208.219> 511 120<108.745 201.255>
VStem: 101 110<41.5278 383 522.108 619.892>
LayerCount: 2
Fore
SplineSet
211 321.3 m 2
 211 77 l 2
 211 49 228.4 39.9 258 34 c 2
 268 32 l 2
 271.9 31.1 276 29 276 23 c 2
 276 0 l 1
 274 -2 l 1
 274 -2 193 0 154 0 c 0
 118 0 37 -2 37 -2 c 1
 35 0 l 1
 35 23 l 2
 35 29 38.1 31.3 42 32 c 2
 54 34 l 2
 85 39.2 101 49 101 77 c 2
 101 321 l 2
 101 371 93 382 79 383 c 2
 38 387 l 1
 36 417 l 1
 105.5 426.5 175.5 437 207 447 c 0
 209.4 447 214 446.4 214 444 c 2
 214 444 211 371.3 211 321.3 c 2
95 571 m 0
 95 604 122 631 155 631 c 0
 188 631 215 604 215 571 c 0
 215 538 188 511 155 511 c 0
 122 511 95 538 95 571 c 0
EndSplineSet
AlternateSubs2: "'ssty' Script Style in Mathematical Alphanumeric Symbols lookup 0-1" u1D422.ssty
EndChar

StartChar: u1D423
Encoding: 119843 119843 35
Width: 289
VWidth: 999
Flags: W
TopAccentHorizontal: 144
HStem: -227.7 42.1<35.3144 87.2183> 383 34<34 85> 427 20<196.25 213.219> 511 120<101.745 194.255>
VStem: 88 120<524.745 617.255> 107 110<-103.394 379>
LayerCount: 2
Fore
SplineSet
217 321.3 m 2xf4
 217 70 l 2
 217 -97.7 181.3 -227.7 38.3 -227.7 c 0
 -8.3 -227.7 -63 -201.4 -63 -158 c 0
 -63 -130.3 -44 -120.9 -25.5 -120.9 c 0
 37.4 -120.9 28.1 -185.6 56.2 -185.6 c 0
 122.9 -185.6 107 0 107 80 c 2
 107 321 l 2
 107 371 99 378 85 379 c 2
 34 383 l 1
 32 417 l 1
 101.5 426.5 180.5 437 212 447 c 0
 214.4 447 219 445.4 219 443 c 2
 219 443 217 371.3 217 321.3 c 2xf4
86 571 m 0
 86 605 114 633 148 633 c 0
 182 633 210 605 210 571 c 0
 210 537 182 509 148 509 c 0
 114 509 86 537 86 571 c 0
EndSplineSet
AlternateSubs2: "'ssty' Script Style in Mathematical Alphanumeric Symbols lookup 0-1" u1D423.ssty
EndChar

StartChar: u1D424
Encoding: 119844 119844 36
Width: 523
Flags: W
TopAccentHorizontal: 261
HStem: -2 34<17 35 474 508> 402 34<273 302 453 490> 638 34<15.016 53> 678 20G<167.465 184.5>
VStem: 83 110<43.2797 209 249 635.227>
LayerCount: 2
Fore
SplineSet
83 77 m 2
 83 563 l 2
 83 628 73 636 53 636 c 1
 21 638 l 2
 17.8 638.2 15.3 640 15 643 c 2
 12 672 l 1
 52.5 675 154.9 688 180 698 c 1
 189 698 196 695 196 688 c 2
 196 688 193 648 193 583 c 2
 193 249 l 1
 214 252 236.3 266.2 249 277.2 c 0
 269 294.5 290 319.5 313 349 c 0
 336.9 379.7 316.9 398.6 302 400 c 2
 281 402 l 2
 270 403 268 406 268 412 c 2
 268 434 l 1
 273 436 l 1
 273 436 340 434 375 434 c 0
 414 434 490 436 490 436 c 1
 493 434 l 1
 493 412 l 2
 493 404 492 402.6 483 402 c 2
 453 400 l 2
 434.6 398.8 398 375 374 351 c 1
 350 324 299 269 299 269 c 2
 295 264 297 256 302 249 c 2
 418 78 l 2
 435 52 459.1 36.5 474 35 c 2
 503 32 l 2
 508 31.5 511 30 511 26 c 2
 511 0 l 1
 508 -2 l 1
 508 -2 438 0 399 0 c 0
 364 0 315 -2 315 -2 c 1
 313 0 l 1
 313 26 l 2
 313 41 310 50 297 78 c 0
 280.1 114.5 252 156 229 190 c 0
 218.5 205.5 209 208 193 209 c 1
 193 77 l 2
 193 49 210.1 43.1 242 34 c 2
 249 32 l 2
 252.9 31.3 257 29 257 23 c 2
 257 0 l 1
 255 -2 l 1
 255 -2 175 0 136 0 c 0
 101 0 17 -2 17 -2 c 1
 15 0 l 1
 15 23 l 2
 15 29 18.1 31.2 23 32 c 2
 35 34 l 2
 66.6 39.3 83 49 83 77 c 2
EndSplineSet
AlternateSubs2: "'ssty' Script Style in Mathematical Alphanumeric Symbols lookup 0-1" u1D424.ssty
EndChar

StartChar: u1D425
Encoding: 119845 119845 37
Width: 289
Flags: W
TopAccentHorizontal: 144
HStem: -2 34<29 47 254 271> 638 34<27.016 65> 678 20G<179.465 196.5>
VStem: 95 110<41.8692 635.227>
LayerCount: 2
Fore
SplineSet
95 563 m 2
 95 628 85 636 65 636 c 1
 33 638 l 2
 29.8 638.2 27.3 640 27 643 c 2
 24 672 l 1
 64.5 675 166.9 688 192 698 c 1
 201 698 208 695 208 688 c 2
 208 688 205 648 205 583 c 2
 205 77 l 2
 205 49 221.4 39.9 254 34 c 2
 265 32 l 2
 268.9 31.3 273 29 273 23 c 2
 273 0 l 1
 271 -2 l 1
 271 -2 187 0 148 0 c 0
 113 0 29 -2 29 -2 c 1
 27 0 l 1
 27 23 l 2
 27 29 30.1 31.2 35 32 c 2
 47 34 l 2
 78.6 39.3 95 49 95 77 c 2
 95 563 l 2
EndSplineSet
AlternateSubs2: "'ssty' Script Style in Mathematical Alphanumeric Symbols lookup 0-1" u1D425.ssty
EndChar

StartChar: u1D426
Encoding: 119846 119846 38
Width: 801
Flags: W
TopAccentHorizontal: 397
HStem: -2 34<298 344.733 470.48 517 555 601.666> 383 34<34 75> 389 55<266.378 370.767 516.713 653.824>
VStem: 97 110<41.5 357.143> 352 110<38.8418 339.378> 609 110<42.703 381.625>
LayerCount: 2
Fore
SplineSet
205 381 m 1xbc
 207 381 l 1
 242 412 292 444 347 444 c 0
 400 444 435 417 450 378 c 1
 496 418 551 444 604 444 c 0
 709 444 719 371 719 281 c 2
 719 76 l 2
 719 48 737 42 768 34 c 2
 776 32 l 2
 780 31 784 29 784 23 c 2
 784 0 l 1
 782 -2 l 1
 782 -2 701 0 662 0 c 0
 627 0 555 -2 555 -2 c 1
 553 0 l 1
 553 23 l 2
 553 28 555 31 561 32 c 0
 595 35 609 48 609 76 c 2
 609 303 l 2
 609 363 593 389 569 389 c 0
 535 389 499 373 460 340 c 1
 461 327 462 296 462 282 c 2
 462 76 l 2
 462 41 487 35 511 32 c 0
 515 32 519 29 519 23 c 2
 519 0 l 1
 517 -2 l 1
 517 -2 445 0 406 0 c 0
 370 0 298 -2 298 -2 c 1
 296 0 l 1
 296 23 l 2
 296 28 299 31 305 32 c 0
 338 35 352 48 352 76 c 2
 352 301 l 2
 352 364 336 389 311 389 c 0xbc
 282 389 249 376 207 341 c 1
 207 75 l 2
 207 40 232 35 255 32 c 0
 260 31 264 29 264 23 c 2
 264 0 l 1
 262 -2 l 1
 262 -2 190 0 150 0 c 0
 115 0 34 -2 34 -2 c 1
 32 0 l 1
 32 23 l 2
 32 29 35 31 40 32 c 2
 49 34 l 2
 82 41 97 47 97 75 c 2
 97 321 l 2
 97 371 89 378 75 379 c 2
 34 383 l 1
 32 417 l 1xdc
 102 426 168 437 200 447 c 0
 202 447 207 446 207 444 c 2
 205 381 l 1xbc
EndSplineSet
AlternateSubs2: "'ssty' Script Style in Mathematical Alphanumeric Symbols lookup 0-1" u1D426.ssty
EndChar

StartChar: u1D427
Encoding: 119847 119847 39
Width: 563
Flags: W
TopAccentHorizontal: 265
HStem: -2 21G<33 151 151 268 311 425 425 546> 383 34<35 76> 388 56<274.496 414.161>
VStem: 98 110<41.8215 353.185> 371 110<42.6477 382.953>
LayerCount: 2
Fore
SplineSet
208 381 m 1xb8
 259 420 311 444 359 444 c 0
 466 444 481 374 481 283 c 2
 481 76 l 2
 481 48 499.3 41.7 530 34 c 2
 538 32 l 2
 541.9 31 546 29 546 23 c 2
 546 0 l 1
 544 -2 l 1
 544 -2 464 0 425 0 c 0
 389 0 313 -2 313 -2 c 1
 311 0 l 1
 311 23 l 2
 311 29 314.1 30.8 319 32 c 2
 323 33 l 2
 354.2 40.8 371 48 371 76 c 2
 371 290 l 2
 371 358 365 388 329 388 c 0xb8
 299 388 257.5 372 208 341 c 1
 208 76 l 2
 208 49 225.8 40.5 256 33 c 2
 260 32 l 2
 263.9 31 268 29 268 23 c 2
 268 0 l 1
 266 -2 l 1
 266 -2 190 0 151 0 c 0
 116 0 35 -2 35 -2 c 1
 33 0 l 1
 33 23 l 2
 33 29 36.1 30.9 41 32 c 2
 50 34 l 2
 82.2 41.2 98 48 98 76 c 2
 98 321 l 2
 98 371 90 378 76 379 c 2
 35 383 l 1
 33 417 l 1xd8
 103 426 169 437 201 447 c 0
 203 447 208 446 208 444 c 2
 206 381 l 1
 208 381 l 1xb8
EndSplineSet
AlternateSubs2: "'ssty' Script Style in Mathematical Alphanumeric Symbols lookup 0-1" u1D427.ssty
EndChar

StartChar: u1D428
Encoding: 119848 119848 40
Width: 519
Flags: W
TopAccentHorizontal: 259
HStem: -10 43<223.814 325.852> 403 41<203.326 303.665>
VStem: 34 122<119.406 317.729> 364 121<118.762 320.282>
LayerCount: 2
Fore
SplineSet
250 403 m 0
 186 403 156 314 156 229 c 0
 156 155 193 33 275 33 c 0
 311 33 364 57 364 184 c 0
 364 327 318 403 250 403 c 0
34 207 m 0
 34 344 115 444 260 444 c 0
 423 444 485 321 485 216 c 0
 485 115 414 -10 259 -10 c 0
 112 -10 34 104 34 207 c 0
EndSplineSet
AlternateSubs2: "'ssty' Script Style in Mathematical Alphanumeric Symbols lookup 0-1" u1D428.ssty
EndChar

StartChar: u1D429
Encoding: 119849 119849 41
Width: 523
Flags: W
TopAccentHorizontal: 261
HStem: -234 21G<20 138 138 259> -10 42<207.971 316.107> 383 34<22 63> 392 52<243.979 331.849>
VStem: 85 110<-189.042 7 46.1131 361.062> 373 115<127.964 339.778>
LayerCount: 2
Fore
SplineSet
195 341 m 1xdc
 195 65 l 1
 220 38 245 32 256 32 c 0
 343 32 373 126 373 210 c 0
 373 327 343 392 284 392 c 0
 260 392 224 373 195 341 c 1xdc
195 381 m 1
 227.5 418.5 272.5 444 316 444 c 0xdc
 425 444 488 343 488 237 c 0
 488 159 460 96 411 47 c 0
 372 8 323 -10 262 -10 c 0
 238 -10 216.5 -4 195 7 c 1
 195 -154 l 2
 195 -182 211.9 -190.2 243 -198 c 2
 251 -200 l 2
 255.9 -201.2 259 -203 259 -208 c 2
 259 -232 l 1
 258 -234 l 1
 258 -234 177 -232 138 -232 c 0
 102 -232 22 -234 22 -234 c 1
 20 -232 l 1
 20 -208 l 2
 20 -203 23.1 -201.1 28 -200 c 2
 37 -198 l 2
 70.1 -190.6 85 -182 85 -154 c 2
 85 321 l 2
 85 371 77 378 63 379 c 2
 22 383 l 1
 20 417 l 1xec
 90 426 156 437 188 447 c 0
 190 447 195 446 195 444 c 2
 193 381 l 1
 195 381 l 1
EndSplineSet
AlternateSubs2: "'ssty' Script Style in Mathematical Alphanumeric Symbols lookup 0-1" u1D429.ssty
EndChar

StartChar: u1D42A
Encoding: 119850 119850 42
Width: 518
Flags: W
TopAccentHorizontal: 259
HStem: -234 34<272 288> -10 51<215.666 334.078> 402 42<203.119 307.884> 427 20G<426 438.833>
VStem: 36 113<116.234 312.456> 335 110<-189.341 8 50.1764 376.654>
LayerCount: 2
Fore
SplineSet
335 349 m 1xec
 309 389 283 402 255 402 c 0
 190 402 149 329 149 229 c 0
 149 82 228 41 278 41 c 0
 290 41 313 48 335 61 c 1
 335 349 l 1xec
335 -155 m 2
 335 8 l 1
 318 0 279 -10 244 -10 c 0
 89 -10 36 115 36 208 c 0
 36 341 125 444 258 444 c 0xec
 312 444 349 418 369 401 c 1
 397.3 434 415 447 437 447 c 0xdc
 440.7 447 447 444 447 436 c 2
 447 436 445 355 445 321 c 2
 445 -155 l 2
 445 -183 463.2 -190.3 494 -198 c 2
 502 -200 l 2
 505.9 -201 510 -203 510 -209 c 2
 510 -232 l 1
 508 -234 l 1
 508 -234 428 -232 389 -232 c 0
 353 -232 272 -234 272 -234 c 1
 270 -232 l 1
 270 -209 l 2
 270 -203 273.1 -201 278 -200 c 2
 288 -198 l 2
 320.9 -191.4 335 -183 335 -155 c 2
EndSplineSet
AlternateSubs2: "'ssty' Script Style in Mathematical Alphanumeric Symbols lookup 0-1" u1D42A.ssty
EndChar

StartChar: u1D42B
Encoding: 119851 119851 43
Width: 401
Flags: W
TopAccentHorizontal: 200
HStem: -2 34<34 49> 371 73<257.924 353> 383 34<34 75>
VStem: 97 110<42.7535 353.807>
LayerCount: 2
Fore
SplineSet
207 381 m 1xd0
 257 432.5 300 444 335 444 c 0
 371 444 393 414 393 388 c 0
 393 356 372 331 343 331 c 0
 303.7 331 287.6 371 269.7 371 c 0xd0
 253.7 371 245.2 366.5 233 358 c 0
 218 347.5 207 323.5 207 288 c 2
 207 77 l 2
 207 49 224.4 41.7 255 34 c 2
 263 32 l 2
 266.9 31 271 29 271 23 c 2
 271 0 l 1
 269 -2 l 1
 269 -2 189 0 150 0 c 0
 114 0 34 -2 34 -2 c 1
 32 0 l 1
 32 23 l 2
 32 29 35.1 31.2 39 32 c 2
 49 34 l 2
 80.5 40.3 97 50 97 77 c 2
 97 321 l 2
 97 371 89 378 75 379 c 2
 34 383 l 1
 32 417 l 1xb0
 102 426 168 437 200 447 c 0
 202 447 207 446 207 444 c 2
 205 381 l 1
 207 381 l 1xd0
EndSplineSet
AlternateSubs2: "'ssty' Script Style in Mathematical Alphanumeric Symbols lookup 0-1" u1D42B.ssty
EndChar

StartChar: u1D42C
Encoding: 119852 119852 44
Width: 401
Flags: W
TopAccentHorizontal: 200
HStem: -10 39<123.862 237.641> 402 42<164.912 266.612>
VStem: 37 40<84.8964 146> 50 103<291.417 385.51> 254 111<51.744 149.588> 306 39<313.103 355.283>
LayerCount: 2
Fore
SplineSet
37 146 m 1xe8
 77 148 l 1
 95 62 120 29 195 29 c 0
 222 29 254 48 254 94 c 0xe8
 254 133 243 153 188 172 c 0
 138 190 50 241 50 321 c 0
 50 390 115 444 206 444 c 0
 261 444 295 435 334 416 c 1
 338 386 342 350 345 314 c 1
 306 309 l 1
 286 379 254 402 209 402 c 0
 182 402 153 385 153 345 c 0xd4
 153 310 167 287 208 272 c 0
 294.1 240.5 365 197 365 119 c 0
 365 24 269 -10 192 -10 c 0
 144 -10 101 3 49 2 c 1
 49 50 44 94 37 146 c 1xe8
EndSplineSet
AlternateSubs2: "'ssty' Script Style in Mathematical Alphanumeric Symbols lookup 0-1" u1D42C.ssty
EndChar

StartChar: u1D42D
Encoding: 119853 119853 45
Width: 331
Flags: MW
TopAccentHorizontal: 165
HStem: -12 62<163 254> 387 46<25 88 199 299>
VStem: 89 110<51 387>
LayerCount: 2
Fore
SplineSet
199 387 m 1
 199 135 l 2
 199 69 212 62 225 62 c 0
 245 62 263.5 63.5 293 87 c 1
 316 64 l 1
 279 15 230 -10 175 -10 c 0
 125 -10 89 19 89 92 c 2
 89 387 l 1
 38 387 l 2
 22 387 20 389 20 395 c 2
 20 426 l 2
 20 432 38 434 58 434 c 0
 108 434 118 483 118 564 c 1
 199 595 l 1
 199 434 l 1
 294 434 l 2
 313 434 316 430 316 424 c 2
 316 404 l 2
 316 392 298 387 279 387 c 2
 199 387 l 1
EndSplineSet
AlternateSubs2: "'ssty' Script Style in Mathematical Alphanumeric Symbols lookup 0-1" u1D42D.ssty
EndChar

StartChar: u1D42E
Encoding: 119854 119854 46
Width: 550
Flags: W
TopAccentHorizontal: 264
HStem: -10 50<215.254 312.397> 28 31<479.262 526> 402 34<29 58 293 346.026>
VStem: 87 110<56.8091 398.969> 352 110<69.9839 399.25>
LayerCount: 2
Fore
SplineSet
462 115 m 2xb8
 462 85 472 62 526 59 c 1
 527 28 l 1x78
 436 16 412 3 386 -12 c 1
 352 -12 l 1
 355 35 l 1
 308 5 263 -10 226 -10 c 0
 110 -10 87 58 87 128 c 2
 87 352 l 2
 87 382 81.4 398.5 58 400 c 2
 27 402 l 1
 24 404 l 1
 24 434 l 1
 29 436 l 1
 29 436 108 434 140 434 c 0
 154 434 198 436 198 436 c 1
 198 436 197 391 197 354 c 2
 197 142 l 2
 197 58 230 40 251 40 c 0
 273 40 315 45 352 77 c 1
 352 352 l 2
 352 384 342 400 324 400 c 1
 293 402 l 1
 289 404 l 1
 289 434 l 1
 293 436 l 1
 293 436 377 434 404 434 c 0
 425 434 464 436 464 436 c 1
 464 436 462 394.5 462 354 c 2
 462 115 l 2xb8
EndSplineSet
AlternateSubs2: "'ssty' Script Style in Mathematical Alphanumeric Symbols lookup 0-1" u1D42E.ssty
EndChar

StartChar: u1D42F
Encoding: 119855 119855 47
Width: 527
Flags: W
TopAccentHorizontal: 263
HStem: -12 21G<251.5 276.5> 402 34<12 59.8042 215 236 333 341 456.405 513>
DStem2: 195 357 91.2 334 0.36373 -0.931504<-33.8257 270.748> 294 105 315 41 0.354745 0.934963<0 293.075>
LayerCount: 2
Fore
SplineSet
433 352 m 2
 315 41 l 2
 299 0 288 -12 265 -12 c 0
 238 -12 222 0 206 40 c 2
 91.2 334 l 2
 78.9 365.6 64.5 397.5 19 402 c 0
 14 402.5 9 404 9 409 c 2
 9 434 l 1
 12 436 l 1
 12 436 73 434 113 434 c 0
 154 434 236 436 236 436 c 1
 240 434 l 1
 240 410 l 2
 240 403 234 402.2 232 402 c 2
 215 400 l 2
 184.9 396.5 184 387 195 357 c 2
 294 105 l 1
 384 358 l 2
 393.8 385.6 376.9 392 341 401 c 2
 337 402 l 2
 332.1 403.2 329 406 329 409 c 2
 329 433 l 1
 333 436 l 1
 333 436 395.8 434 436 434 c 0
 466 434 513 436 513 436 c 1
 515 434 l 1
 515 411 l 2
 515 406 510 402.7 504 402 c 0
 474.5 398.5 448 391 433 352 c 2
EndSplineSet
AlternateSubs2: "'ssty' Script Style in Mathematical Alphanumeric Symbols lookup 0-1" u1D42F.ssty
EndChar

StartChar: u1D430
Encoding: 119856 119856 48
Width: 778
Flags: W
TopAccentHorizontal: 389
HStem: -12 21G<247 274.5 491 519> 402 34<11 61.0915 190.359 224 261 310.597 463 485 579 587 706.235 759>
DStem2: 289 100 90.9969 334.5 0.36342 -0.931625<-308.575 0> 289 100 308 35 0.373129 0.92778<0 145.107> 442 357 329 355 0.36342 -0.931625<-34.9379 44.7295 106.759 274.157> 535 99 553 33 0.374896 0.927067<0 300.199>
LayerCount: 2
Fore
SplineSet
195 357 m 2
 289 100 l 1
 360 277 l 1
 329 355 l 2
 314.9 390.4 298 398.5 268 402 c 0
 263 402.6 258 404 258 409 c 2
 258 434 l 1
 261 436 l 1
 261 436 323.2 434 363 434 c 0
 410.6 434 485 436 485 436 c 1
 489 434 l 1
 489 410 l 2
 489 403.5 483 402.4 480 402 c 2
 463 400 l 2
 432 396.4 431 386 442 357 c 2
 535 99 l 1
 628 355 l 2
 639 387 633.7 389.3 587 401 c 2
 583 402 l 2
 578.1 403.2 575 406 575 409 c 2
 575 433 l 1
 579 436 l 1
 579 436 647.3 434 691 434 c 0
 717.5 434 759 436 759 436 c 1
 761 434 l 1
 761 411 l 2
 761 406 756 402.8 750 402 c 0
 707 396.5 691.9 376.3 678.2 342.5 c 2
 553 33 l 2
 543 7 531 -12 507 -12 c 0
 475 -12 463 13 455 32 c 2
 382 219 l 1
 308 35 l 2
 298 11 287 -12 262 -12 c 0
 232 -12 220 4 209 32 c 2
 91 334.5 l 2
 76.2 372.5 64 397 19 402 c 0
 13 402.7 8 404 8 409 c 2
 8 434 l 1
 11 436 l 1
 11 436 75.7 434 117 434 c 0
 158.7 434 224 436 224 436 c 1
 228 434 l 1
 228 410 l 2
 228 402 220 402.4 217 402 c 0
 186.5 397.5 186 384 195 357 c 2
EndSplineSet
AlternateSubs2: "'ssty' Script Style in Mathematical Alphanumeric Symbols lookup 0-1" u1D430.ssty
EndChar

StartChar: u1D431
Encoding: 119857 119857 49
Width: 521
Flags: W
TopAccentHorizontal: 260
HStem: -2 34<173.352 204 279 315.512 447.998 502> 402 34<24 76.3255 211.461 250 315 348.334 437.391 500>
DStem2: 223 360 122 335 0.573253 -0.819378<-31.8806 91.664 183.452 312.019>
LayerCount: 2
Fore
SplineSet
183 73 m 2
 160 40 181.5 35.5 200 32 c 0
 204.9 31.1 208 28 208 24 c 2
 208 0 l 1
 204 -2 l 1
 204 -2 137.5 0 95 0 c 0
 64.6 0 17 -2 17 -2 c 1
 15 0 l 1
 15 22 l 2
 15 27 20.1 31.2 26 32 c 0
 55.5 36 90 48 116 79 c 2
 208 193 l 2
 216 202 215 203 211 208 c 2
 122 335 l 2
 94 375 66 402 31 402 c 0
 26 402 21 404 21 409 c 2
 21 434 l 1
 24 436 l 1
 24 436 85.6 434 125 434 c 0
 173.8 434 250 436 250 436 c 1
 253 434 l 1
 253 410 l 2
 253 403 248 402.3 245 402 c 0
 207 398 200.2 393.3 223 360 c 2
 271 290 l 2
 279 279 280 280 286 287 c 2
 336 359 l 2
 357 388 355 399 319 402 c 0
 314 402.4 312 406 312 409 c 2
 312 433 l 1
 315 436 l 1
 315 436 386.4 434 432 434 c 0
 458.5 434 500 436 500 436 c 1
 502 434 l 1
 502 411 l 2
 502 406 497 402.7 491 402 c 0
 460 398.5 428 387 401 353 c 2
 312 245 l 2
 309 241 308 239 314 230 c 2
 402 99 l 2
 434 51 458 37.5 495 32 c 0
 499.9 31.3 505 29 505 25 c 2
 505 0 l 1
 502 -2 l 1
 502 -2 440.4 0 401 0 c 0
 353.4 0 279 -2 279 -2 c 1
 275 0 l 1
 275 24 l 2
 275 30 281 31.7 283 32 c 0
 317.5 37 325.6 42.2 306 72 c 2
 264 136 l 1
 248 164 247 164 225 133 c 2
 183 73 l 2
EndSplineSet
AlternateSubs2: "'ssty' Script Style in Mathematical Alphanumeric Symbols lookup 0-1" u1D431.ssty
EndChar

StartChar: u1D432
Encoding: 119858 119858 50
Width: 533
Flags: W
TopAccentHorizontal: 266
HStem: -232.2 65.3<98.4399 174.076> 402 34<13 65.4406 195.582 240 340 384.791 462.58 516>
DStem2: 199 357 92 336 0.37552 -0.926814<-34.5285 268.481> 215 -61 266 -71 0.373718 0.927542<-120.484 52.1765 182.748 398.364>
LayerCount: 2
Fore
SplineSet
432 341 m 2
 266 -71 l 2
 232 -155 189.3 -232.2 109.1 -232.2 c 0
 87.7 -232.2 33.2 -219.4 33.2 -177.7 c 0
 33.2 -143.5 63.1 -126.3 92 -126.3 c 0
 108.1 -126.3 127.4 -140.2 133.8 -149.8 c 0
 140.2 -159.4 145.5 -166.9 153 -166.9 c 0
 160.5 -166.9 186 -138 215 -61 c 2
 233 -12 l 1
 92 336 l 2
 72 386 60 402 20 402 c 0
 14 402 10 404 10 409 c 2
 10 434 l 1
 13 436 l 1
 13 436 77.7 434 119 434 c 0
 166.2 434 240 436 240 436 c 1
 244 434 l 1
 244 410 l 2
 244 403 238 402 236 402 c 0
 196 402 188 388 199 357 c 2
 292 105 l 1
 326 188 366 297 384 355 c 0
 396 391 375 402 344 402 c 0
 339 402 336 406 336 409 c 2
 336 433 l 1
 340 436 l 1
 340 436 408.3 434 452 434 c 0
 477 434 516 436 516 436 c 1
 518 434 l 1
 518 411 l 2
 518 406 513 402 507 402 c 0
 478 402 449 383 432 341 c 2
EndSplineSet
AlternateSubs2: "'ssty' Script Style in Mathematical Alphanumeric Symbols lookup 0-1" u1D432.ssty
EndChar

StartChar: u1D433
Encoding: 119859 119859 51
Width: 432
Flags: W
TopAccentHorizontal: 216
HStem: 0 42<163 326.904> 392 42<116.625 273> 426 20G<64 100>
VStem: 43 43<301.023 355.983> 369 42<93.3671 140.5>
DStem2: 43 38 163 42 0.544822 0.838552<68.7328 422.156>
LayerCount: 2
Fore
SplineSet
98 446 m 1xb8
 102 435 109 434 115 434 c 2
 319 434 l 2
 343.1 434 367 437 370 437 c 0
 390 437 406 431 406 421 c 0
 406 418 397 402 386 385 c 2
 163 42 l 1
 279 42 l 2
 323 42 352 83 369 148 c 1
 411 139 l 1
 396 85 389 41 385 0 c 1
 87 0 l 2
 44 0 32 6 32 16 c 0
 32 18 35 25 43 38 c 0
 121 155 195 274 273 392 c 1
 157 392 l 2xd8
 127 392 103 370 86 296 c 1
 43 302 l 1
 59 368 63 403 65 446 c 1
 98 446 l 1xb8
EndSplineSet
AlternateSubs2: "'ssty' Script Style in Mathematical Alphanumeric Symbols lookup 0-1" u1D433.ssty
EndChar

StartChar: u1D6A8
Encoding: 120488 120488 52
Width: 699
VWidth: 999
Flags: W
TopAccentHorizontal: 354
HStem: -1 34<10 60.0229 142.897 211 414 482.841 622.594 692> 241 47<234.168 403> 638 20<348.5 364.5>
DStem2: 89 91 148 79 0.384126 0.923281<-23.1403 196.063 246.684 479.281> 399 627 320 514 0.352654 -0.935754<77.8806 318.631 368.607 561.264>
LayerCount: 2
Fore
SplineSet
253 288 m 2
 403 288 l 1
 320 514 l 1
 234 300 l 1
 234 291 235 288 253 288 c 2
148 79 m 2
 137 50 136 33 195 33 c 0
 211 33 216 31 216 23 c 2
 216 3 l 1
 211 -1 l 1
 211 -1 119 1 95 1 c 0
 70 1 10 -1 10 -1 c 1
 2 2 l 1
 2 23 l 2
 2 33 10 33 22 33 c 0
 42 33 72 50 89 91 c 2
 312 627 l 2
 322 651 343 658 354 658 c 0
 375 658 391 648 399 627 c 2
 601 91 l 2
 615 54 629 33 654 33 c 2
 682 33 l 2
 697 33 697 31 697 23 c 2
 697 3 l 1
 692 -1 l 1
 692 -1 596 1 558 1 c 0
 522 1 414 -1 414 -1 c 1
 406 4 l 1
 406 23 l 2
 406 31 414 33 432 33 c 2
 459 33 l 2
 476 33 484 44 484 59 c 0
 484 64 484 70 482 73 c 2
 420 241 l 1
 236 241 l 2
 216 241 211 240 205 227 c 2
 148 79 l 2
EndSplineSet
EndChar

StartChar: u1D6A9
Encoding: 120489 120489 53
Width: 620
VWidth: 999
Flags: W
TopAccentHorizontal: 310
HStem: 0 33<23 96.4211> 0 40<225.077 375.965> 334 42<221 356.422> 605 42<224.143 359.733> 613 34<24 96.3856>
VStem: 99 122<45.449 334 376 599.529> 403 120<424.816 565.405> 450 127<106.58 268.4>
LayerCount: 2
Fore
SplineSet
221 562 m 2x36
 221 376 l 1
 277 376 l 2
 348 376 403 409 403 489 c 0
 403 587 337 605 291 605 c 0
 226 605 221 591 221 562 c 2x36
221 334 m 1
 221 84 l 2
 221 55 227 40 287 40 c 0
 419 40 450 127 450 187 c 0x65
 450 273 395 334 292 334 c 2
 221 334 l 1
22 21 m 2
 22 28 25 33 40 33 c 2
 69 33 l 2
 92 33 99 42 99 74 c 2
 99 572 l 2
 99 602 93 613 69 613 c 2
 36 613 l 2
 25 613 22 616 22 623 c 2
 22 645 l 1
 24 647 l 1xad
 24 647 124.7 645 154.7 645 c 0
 184.7 645 234 647 284 647 c 0
 485.8 647 523 560 523 491 c 0x36
 523 440 481 385 427 361 c 1
 427 359 l 1
 533 331 577 264 577 176 c 0
 577 89 511 0 306 0 c 2x75
 23 0 l 1xa5
 22 1 l 1
 22 21 l 2
EndSplineSet
EndChar

StartChar: u1D6AA
Encoding: 120490 120490 54
Width: 511
VWidth: 999
Flags: W
TopAccentHorizontal: 255
HStem: -1 34<24 93.4759 228.845 296> 599 47<226.022 406.689> 613 33<26 97.6381>
VStem: 100 122<38.5094 596.457> 473 39<471.385 516.618>
LayerCount: 2
Fore
SplineSet
100 77 m 2xd8
 100 573 l 2
 100 605 94 613 70 613 c 2
 38 613 l 2
 26 613 22 617 22 625 c 2
 22 643 l 1
 26 646 l 1
 488 646 l 1xb8
 490 589 501 526 512 473 c 1
 473 464 l 1
 457 525 421 599 342 599 c 2
 256 599 l 2
 235 599 222 583 222 553 c 2
 222 77 l 2
 222 49 235 33 276 33 c 2
 291 33 l 2
 295 33 298 30 298 24 c 2
 298 1 l 1
 296 -1 l 1
 296 -1 196 1 161 1 c 0
 122 1 24 -1 24 -1 c 1
 22 1 l 1
 22 24 l 2
 22 30 26 33 31 33 c 2
 45 33 l 2
 84 33 100 45 100 77 c 2xd8
EndSplineSet
EndChar

StartChar: u1D6AB
Encoding: 120491 120491 55
Width: 692
VWidth: 487
Flags: W
TopAccentHorizontal: 346
HStem: -2 38<111 523> 631 20G<279.943 417.709>
DStem2: 33 18 111 36 0.373663 0.927564<45.8419 605.717> 410 651 321 555 0.35967 -0.933079<57.565 614.487>
LayerCount: 2
Fore
SplineSet
321 555 m 1
 111 36 l 1
 523 36 l 1
 321 555 l 1
410 651 m 1
 654 18 l 2
 657 9 658 5 658 3 c 0
 658 0 654 -2 637 -2 c 2
 49 -2 l 2
 36 -2 28 -1 28 5 c 0
 28 7 28 8 33 18 c 2
 288 651 l 1
 410 651 l 1
EndSplineSet
EndChar

StartChar: u1D6AC
Encoding: 120492 120492 56
Width: 562
VWidth: 999
Flags: W
TopAccentHorizontal: 281
HStem: 0 33<27 94.1445> 0 46<224.232 442.935> 323 42<224 361.625> 427 20<383 415> 600 46<224.232 421.482> 613 33<27 94.1445>
VStem: 101 123<46.578 323 365 599.422> 372 36<251.814 315.565 372.621 436.233> 474 40<482.425 531.807> 499 43<118.211 170.628>
LayerCount: 2
Fore
SplineSet
27 0 m 1xb340
 24 2 l 1
 24 24 l 2
 24 30 28 33 32 33 c 2
 46 33 l 2
 86 33 101 45 101 77 c 2
 101 569 l 2
 101 601 86 613 46 613 c 2
 32 613 l 2
 28 613 24 616 24 621 c 2
 24 644 l 1
 27 646 l 1
 493 646 l 1
 497 588 504 535 514 484 c 1
 474 475 l 1xb780
 460 526 435 600 368 600 c 2
 238 600 l 2
 229 600 224 592 224 571 c 2
 224 365 l 1
 337 365 l 2
 362 365 366 396 372 436 c 0
 372 440 378 447 388 447 c 2
 409 447 l 1
 415 437 l 1
 413 421 408 381 408 344 c 0
 408 308 413 268 415 251 c 1
 409 242 l 1
 388 242 l 2
 378 242 372 248 372 252 c 0
 366 293 362 323 337 323 c 2
 224 323 l 1
 224 75 l 2
 224 52 229 46 238 46 c 2
 391 46 l 2
 446 46 482 105 499 179 c 1
 542 169 l 1
 532 116 522 54 515 0 c 1x7b40
 27 0 l 1xb340
EndSplineSet
EndChar

StartChar: u1D6AD
Encoding: 120493 120493 57
Width: 624
VWidth: 999
Flags: W
TopAccentHorizontal: 319
HStem: 0 44<188.684 499.676> 602 43<134.566 417.995> 638 20<66 86.5>
VStem: 46 39<490.103 537.024> 557 41<114.968 165.854>
DStem2: 28 38 193 72 0.583791 0.811904<105.537 679.919>
LayerCount: 2
Fore
SplineSet
572 0 m 1xd8
 39 0 l 2
 25 0 20 5 20 15 c 0
 20 22 22 30 28 38 c 2
 417 579 l 2
 424 589 433 602 415 602 c 2
 200 602 l 2xd8
 125 602 107 555 85 486 c 1
 46 491 l 1
 54 532 64 604 68 658 c 1xb8
 105 655 102 645 149 645 c 2
 506 645 l 1
 537 648 556 650 569 650 c 0
 588 650 591 647 591 640 c 0
 591 629 587 619 567 591 c 2
 193 72 l 2
 180 53 178 44 209 44 c 2
 432 44 l 2
 508 44 537 98 557 170 c 1
 598 165 l 1
 587 113 576 56 572 0 c 1xd8
EndSplineSet
EndChar

StartChar: u1D6AE
Encoding: 120494 120494 58
Width: 723
VWidth: 999
Flags: W
TopAccentHorizontal: 361
HStem: -2 34<24 92.7241 229.184 297 427 495.724 632.184 700> 321 46<222 502> 613 34<24 92.7241 229.184 297 427 495.724 632.184 700>
VStem: 99 123<37.5094 321 367 607.491> 502 123<37.5094 321 367 607.491>
LayerCount: 2
Fore
SplineSet
502 569 m 2
 502 601 487 613 447 613 c 2
 433 613 l 2
 429 613 425 616 425 621 c 2
 425 645 l 1
 427 647 l 1
 427 647 524 645 563 645 c 0
 599 645 700 647 700 647 c 1
 702 645 l 1
 702 621 l 2
 702 616 699 613 694 613 c 2
 680 613 l 2
 639 613 625 597 625 569 c 2
 625 76 l 2
 625 48 639 32 680 32 c 2
 694 32 l 2
 699 32 702 29 702 23 c 2
 702 0 l 1
 700 -2 l 1
 700 -2 599 0 563 0 c 0
 524 0 427 -2 427 -2 c 1
 425 0 l 1
 425 23 l 2
 425 29 429 32 433 32 c 2
 447 32 l 2
 487 32 502 44 502 76 c 2
 502 321 l 1
 222 321 l 1
 222 76 l 2
 222 48 236 32 277 32 c 2
 291 32 l 2
 296 32 299 29 299 23 c 2
 299 0 l 1
 297 -2 l 1
 297 -2 196 0 160 0 c 0
 121 0 24 -2 24 -2 c 1
 22 0 l 1
 22 23 l 2
 22 29 26 32 30 32 c 2
 44 32 l 2
 84 32 99 44 99 76 c 2
 99 569 l 2
 99 601 84 613 44 613 c 2
 30 613 l 2
 26 613 22 616 22 621 c 2
 22 645 l 1
 24 647 l 1
 24 647 121 645 160 645 c 0
 196 645 297 647 297 647 c 1
 299 645 l 1
 299 621 l 2
 299 616 296 613 291 613 c 2
 277 613 l 2
 236 613 222 597 222 569 c 2
 222 367 l 1
 502 367 l 1
 502 569 l 2
EndSplineSet
EndChar

StartChar: u1D6AF
Encoding: 120495 120495 59
Width: 730
VWidth: 487
Flags: W
TopAccentHorizontal: 365
HStem: -10 41<303.11 453.742> 292 66<250.109 481.589> 617 41<284.435 429.841>
VStem: 37 131<190.561 438.95> 214 35<241 289.584 360.214 409.951> 483 35<241 289.017 360.742 409> 562 132<199.461 449.883>
LayerCount: 2
Fore
SplineSet
438 358 m 2
 470 358 483 361 483 395 c 2
 483 401 l 1
 484 407 486 409 490 409 c 2
 518 409 l 1
 518 409 515 362 515 332 c 0
 515 296 518 241 518 241 c 1
 491 241 l 2
 489 241 484 242 483 249 c 1
 483 256 l 2
 483 289 467 292 438 292 c 2
 294 292 l 2
 261 292 249 289 249 256 c 2
 249 249 l 1
 248 243 244 241 241 241 c 2
 214 241 l 1
 214 241 217 296 217 332 c 0
 217 362 214 410 214 410 c 1
 241 410 l 1
 248 409 249 405 249 402 c 2
 249 395 l 2
 249 360 260 358 294 358 c 2
 438 358 l 2
351 617 m 0
 266 617 168 532 168 328 c 0
 168 140 266 31 384 31 c 0
 485 31 562 136 562 310 c 0
 562 513 464 617 351 617 c 0
694 329 m 0
 694 129 566 -10 364 -10 c 0
 182 -10 37 113 37 311 c 0
 37 507 173 658 363 658 c 0
 540 658 694 528 694 329 c 0
EndSplineSet
EndChar

StartChar: u1D6B0
Encoding: 120496 120496 60
Width: 319
VWidth: 999
Flags: W
TopAccentHorizontal: 159
HStem: -2 34<24 92.7241 228.184 296> 613 34<24 92.7241 228.184 296>
VStem: 99 122<37.5094 607.491>
LayerCount: 2
Fore
SplineSet
221 76 m 2
 221 48 235 32 276 32 c 2
 290 32 l 2
 295 32 298 29 298 23 c 2
 298 0 l 1
 296 -2 l 1
 296 -2 196 0 160 0 c 0
 121 0 24 -2 24 -2 c 1
 22 0 l 1
 22 23 l 2
 22 29 26 32 30 32 c 2
 44 32 l 2
 84 32 99 44 99 76 c 2
 99 569 l 2
 99 601 84 613 44 613 c 2
 30 613 l 2
 26 613 22 616 22 621 c 2
 22 645 l 1
 24 647 l 1
 24 647 121 645 160 645 c 0
 196 645 296 647 296 647 c 1
 298 645 l 1
 298 621 l 2
 298 616 295 613 290 613 c 2
 276 613 l 2
 235 613 221 597 221 569 c 2
 221 76 l 2
EndSplineSet
EndChar

StartChar: u1D6B1
Encoding: 120497 120497 61
Width: 660
VWidth: 999
Flags: W
TopAccentHorizontal: 330
HStem: -2 34<24 92.7241 228.184 296 592.702 655> 613 34<24 92.7241 227.845 295 394 449>
VStem: 99 122<37.5094 294 368 607.491>
DStem2: 221 368 351 404 0.729537 0.683941<50.9707 327.506> 324 331 221 294 0.685275 -0.728284<-31.7083 302.124>
LayerCount: 2
Fore
SplineSet
221 76 m 2
 221 48 235 32 276 32 c 2
 290 32 l 2
 295 32 298 29 298 23 c 2
 298 0 l 1
 296 -2 l 1
 296 -2 196 0 160 0 c 0
 121 0 24 -2 24 -2 c 1
 22 0 l 1
 22 23 l 2
 22 29 26 32 30 32 c 2
 44 32 l 2
 84 32 99 44 99 76 c 2
 99 569 l 2
 99 601 84 613 44 613 c 2
 30 613 l 2
 26 613 22 616 22 621 c 2
 22 645 l 1
 24 647 l 1
 24 647 121 645 160 645 c 0
 196 645 295 647 295 647 c 1
 297 645 l 1
 297 621 l 2
 297 616 294 613 290 613 c 2
 275 613 l 2
 234 613 221 597 221 569 c 2
 221 368 l 1
 429 563 l 2
 443 576 468 611 430 611 c 0
 409 611 390 613 390 623 c 2
 390 644 l 1
 394 647 l 1
 394 647 489 645 528 645 c 0
 563 645 645 647 645 647 c 1
 650 644 l 1
 650 623 l 2
 650 614 637 612 620 611 c 1
 589 606 551 587 506 544 c 1
 351 404 l 2
 308 364 303.6 352.7 324 331 c 2
 563 77 l 2
 588 51 607 34 624 34 c 2
 642 34 l 2
 657 34 658 30 658 22 c 2
 658 0 l 1
 655 -2 l 1
 655 -2 563 0 525 0 c 0
 489 0 446 -2 446 -2 c 1
 442 2 l 1
 442 28 l 2
 442 47 442 57 427 72 c 2
 221 294 l 1
 221 76 l 2
EndSplineSet
EndChar

StartChar: u1D6B2
Encoding: 120498 120498 62
Width: 636
VWidth: 487
Flags: W
TopAccentHorizontal: 318
HStem: 1 32<2 67.0229 147.865 216 355 431.586 572.126 635> 637 21<321 331.5>
DStem2: 296 461 292 635 0.349978 0.936758<-442.237 0> 432 74 549 92 0.330273 -0.943885<-410.201 28.2337>
LayerCount: 2
Fore
SplineSet
210 33 m 0
 214 33 218 30 218 25 c 2
 218 1 l 1
 216 0 l 1
 216 0 129 1 90 1 c 0
 54 1 2 0 2 0 c 1
 0 1 l 1
 0 25 l 2
 0 30 3 33 8 33 c 0
 64 33 71 44 91 97 c 2
 292 635 l 2
 298 650 316 658 326 658 c 0
 337 658 354 650 359 635 c 2
 549 92 l 2
 566 46 578 33 629 33 c 0
 633 33 637 30 637 25 c 2
 637 1 l 1
 635 0 l 1
 635 0 538 1 499 1 c 0
 463 1 355 0 355 0 c 1
 353 1 l 1
 353 25 l 2
 353 30 356 33 361 33 c 0
 424 33 443 43 432 74 c 2
 307 430 l 1
 296 461 l 1
 284 433 l 1
 154 84 l 2
 138 42 145 33 210 33 c 0
EndSplineSet
EndChar

StartChar: u1D6B3
Encoding: 120499 120499 63
Width: 853
VWidth: 999
Flags: W
TopAccentHorizontal: 426
HStem: -12 21<399.5 412> -2 34<26 95.4822 172.259 240 573 639.045 762.489 829> 613 33<67 130.252 717.755 786>
DStem2: 105 76 168 76 0.0567038 0.998391<-34.2015 377.163> 236 646 189 449 0.387297 -0.921955<163.422 529.31> 711 569 612 446 0.0868912 -0.996218<113.933 521.686>
LayerCount: 2
Fore
SplineSet
711 569 m 2x60
 754 76 l 2
 757 48 768 32 809 32 c 2
 823 32 l 2
 828 32 831 29 831 23 c 2
 831 0 l 1
 829 -2 l 1
 829 -2 730 0 695 0 c 0
 656 0 573 -2 573 -2 c 1
 571 0 l 1
 571 23 l 2
 571 29 575 32 579 32 c 2
 593 32 l 2x60
 633 32 646 45 643 76 c 2
 612 446 l 1
 552 300 433 7 433 7 c 2
 428 -3 420 -12 404 -12 c 0xa0
 395 -12 379 -7 374 7 c 2
 374 7 262 278 189 449 c 1
 168 76 l 2
 166 44 179 32 220 32 c 2
 234 32 l 2
 239 32 242 29 242 23 c 2
 242 0 l 1
 240 -2 l 1
 240 -2 167 0 132 0 c 0
 93 0 26 -2 26 -2 c 1
 24 0 l 1
 24 23 l 2
 24 29 28 32 32 32 c 2
 42 32 l 2
 82 32 103 44 105 76 c 2
 133 569 l 2
 134.9 602 127 613 88 613 c 2
 74 613 l 2
 69 613 65 616 65 621 c 2
 65 645 l 1
 67 646 l 1
 67 646 197 646 236 646 c 1
 441 158 l 1
 504 315 569 491 631 646 c 1
 786 646 l 1
 788 645 l 1
 788 621 l 2
 788 616 785 613 780 613 c 2
 766 613 l 2
 725 613 708.6 597 711 569 c 2x60
EndSplineSet
EndChar

StartChar: u1D6B4
Encoding: 120500 120500 64
Width: 710
VWidth: 999
Flags: W
TopAccentHorizontal: 355
HStem: -12 21<559.5 586.5> -2 34<29 103.367 182.184 250> 613 33<25 81.1901 471 539.197 617.803 685>
VStem: 112 63<39.0858 470> 546 64<168 607.491>
DStem2: 170 646 112 560 0.60397 -0.797007<0 33.5123 143.293 608.062>
LayerCount: 2
Fore
SplineSet
546 569 m 2x78
 546 601 531 613 492 613 c 2
 478 613 l 2
 473 613 469 616 469 621 c 2
 469 645 l 1
 471 646 l 1
 471 646 539 645 578 645 c 0
 613 645 685 646 685 646 c 1
 687 645 l 1
 687 621 l 2
 687 616 684 613 679 613 c 2
 665 613 l 2
 624 613 610 597 610 569 c 2
 610 25 l 2
 610 3 601 -12 572 -12 c 0xb8
 547 -12 535 2 525 15 c 2
 175 470 l 1
 175 76 l 2
 175 48 189 32 230 32 c 2
 244 32 l 2
 249 32 252 29 252 23 c 2
 252 0 l 1
 250 -2 l 1
 250 -2 177 0 142 0 c 0
 103 0 29 -2 29 -2 c 1
 27 0 l 1
 27 23 l 2
 27 29 31 32 35 32 c 2
 49 32 l 2
 89 32 112 44 112 76 c 2
 112 560 l 1
 94 585 74 613 42 613 c 0
 25 613 22 617 22 624 c 2
 22 643 l 1
 25 646 l 1
 170 646 l 1
 546 168 l 1
 546 569 l 2x78
EndSplineSet
EndChar

StartChar: u1D6B5
Encoding: 120501 120501 65
Width: 648
VWidth: 487
Flags: W
TopAccentHorizontal: 324
HStem: -4 80<107.084 546.317> 279 66<172.332 477.497> 570 80<103.404 549.889>
VStem: 53 38<92.9248 173 484 554.723> 137 34<229 276.311 347.742 397> 479 34<229 275.704 348.042 396> 562 39<92.3883 173 484 558.155>
LayerCount: 2
Fore
SplineSet
53 173 m 1
 91 173 l 1
 98 82 116 76 163 76 c 2
 475 76 l 2
 545 76 555 84 562 173 c 1
 601 173 l 1
 593 -4 l 1
 553 -4 l 1
 552 -1 549 0 545 0 c 2
 113 0 l 2
 109 0 106 -2 105 -4 c 1
 60 -4 l 1
 53 173 l 1
601 484 m 1
 562 484 l 1
 554 568 546 570 479 570 c 2
 174 570 l 2
 106 570 98 567 92 484 c 1
 53 484 l 1
 53 485 58 636 60 650 c 1
 97 650 l 1
 97 647 100 646 104 646 c 2
 545 646 l 2
 549 646 552 647 554 650 c 1
 593 650 l 1
 593 640 599 516 601 484 c 1
433 345 m 2
 465 345 479 348 479 382 c 2
 479 389 l 2
 479 394 481 396 485 396 c 2
 513 396 l 1
 513 396 510 349 510 319 c 0
 510 284 513 229 513 229 c 1
 486 229 l 2
 484 229 479 229 479 236 c 2
 479 243 l 2
 479 276 462 279 433 279 c 2
 217 279 l 2
 184 279 171 276 171 243 c 2
 171 236 l 1
 170 229 167 229 164 229 c 2
 137 229 l 1
 137 229 140 284 140 319 c 0
 140 350 137 397 137 397 c 1
 164 397 l 2
 170 397 171 392 171 389 c 2
 171 382 l 2
 171 348 183 345 217 345 c 2
 433 345 l 2
EndSplineSet
EndChar

StartChar: u1D6B6
Encoding: 120502 120502 66
Width: 730
VWidth: 999
Flags: W
TopAccentHorizontal: 365
HStem: -10 41<303.11 453.742> 617 41<284.435 429.841>
VStem: 37 131<190.561 438.95> 562 132<199.461 449.883>
LayerCount: 2
Fore
SplineSet
351 617 m 0
 266 617 168 532 168 328 c 0
 168 140 266 31 384 31 c 0
 485 31 562 136 562 310 c 0
 562 513 464 617 351 617 c 0
694 329 m 0
 694 129 566 -10 364 -10 c 0
 182 -10 37 113 37 311 c 0
 37 507 173 658 363 658 c 0
 540 658 694 528 694 329 c 0
EndSplineSet
EndChar

StartChar: u1D6B7
Encoding: 120503 120503 67
Width: 750
VWidth: 487
Flags: W
TopAccentHorizontal: 375
HStem: -1 34<19 98.8165 234.855 311 440 514.816 650.855 731> 600 45<229.654 519.608> 613 32<19 99.2757 653.794 731>
VStem: 106 122<38.748 598.335> 522 122<38.748 597.91>
LayerCount: 2
Fore
SplineSet
522 77 m 2xb8
 522 555 l 2
 522 583 517 600 485 600 c 2
 264 600 l 2xd8
 233 600 228 588 228 555 c 2
 228 77 l 2
 228 46 243 33 283 33 c 2
 304 33 l 2
 309 33 312 30 312 24 c 2
 312 1 l 1
 311 -1 l 1
 311 -1 206 1 167 1 c 0
 131 1 19 -1 19 -1 c 1
 17 1 l 1
 17 24 l 2
 17 30 20 33 25 33 c 2
 51 33 l 2
 92 33 106 49 106 77 c 2
 106 569 l 2
 106 606 86 613 55 613 c 2
 25 613 l 2
 19 613 17 617 17 621 c 2
 17 645 l 1
 19 646 l 1
 26 646 149 645 163 645 c 0
 225 644 301 643 372 643 c 0
 434 643 505 644 577 645 c 0
 583 645 729 646 731 646 c 2
 733 645 l 1
 733 621 l 2
 733 617 730 613 725 613 c 2
 696 613 l 1
 668 612 644 600 644 569 c 2
 644 77 l 2
 644 46 659 33 699 33 c 2
 725 33 l 2
 729 33 733 30 733 24 c 2
 733 1 l 1
 731 -1 l 1
 731 -1 620 1 581 1 c 0
 545 1 440 -1 440 -1 c 1
 438 1 l 1
 438 24 l 2
 438 30 441 33 446 33 c 2
 467 33 l 2
 508 33 522 49 522 77 c 2xb8
EndSplineSet
EndChar

StartChar: u1D6B8
Encoding: 120504 120504 68
Width: 550
VWidth: 999
Flags: W
TopAccentHorizontal: 275
HStem: -2 34<24 44 281 306> 279 40<221 346.677> 611 36<24 93.1927> 613 41<126.947 352.681>
VStem: 99 122<44.5532 282 319.949 606.701> 406 127<391.868 561.741>
LayerCount: 2
Fore
SplineSet
221 558 m 2xdc
 221 322 l 1
 235 320 256 319 271 319 c 0
 353 319 406 363 406 467 c 0
 406 589 339 613 281 613 c 0
 228 613 221 593 221 558 c 2xdc
99 89 m 2
 99 560 l 2
 99 595 87 610 65 611 c 2xec
 33 613 l 2xdc
 25 613 22 617 22 621 c 2
 22 645 l 1
 24 647 l 1xec
 83 647 208 654 289 654 c 0
 490 654 533 548 533 484 c 0
 533 388 473 279 276 279 c 0
 252 279 235 280 221 282 c 1
 221 89 l 2
 221 51 241.2 38.2 281 34 c 2
 300 32 l 2
 306 31.4 308 29 308 23 c 2
 308 0 l 1
 306 -2 l 1
 269 -1 198 0 160 0 c 0
 122 0 61 -1 24 -2 c 1
 22 0 l 1
 22 23 l 2
 22 29 26.1 31.4 30 32 c 2
 44 34 l 2
 84.7 39.8 99 51 99 89 c 2
EndSplineSet
EndChar

StartChar: u1D6B9
Encoding: 120505 120505 69
Width: 730
VWidth: 999
Flags: W
TopAccentHorizontal: 365
HStem: -10 41<303.11 453.742> 302 45<94 584> 617 41<284.435 429.841>
VStem: 37 131<190.561 438.95> 562 132<199.461 449.883>
LayerCount: 2
Fore
SplineSet
694 329 m 0
 694 129 566 -10 364 -10 c 0
 182 -10 37 113 37 311 c 0
 37 507 173 658 363 658 c 0
 540 658 694 528 694 329 c 0
560.9 347 m 1
 549.7 525.6 456.9 617 351 617 c 0
 268.7 617 174.2 537.3 168.3 347 c 1
 560.9 347 l 1
561.9 302 m 1
 168.6 302 l 1
 177.2 130 271.6 31 384 31 c 0
 483.4 31 559.6 132.8 561.9 302 c 1
EndSplineSet
EndChar

StartChar: u1D6BA
Encoding: 120506 120506 70
Width: 615
VWidth: 487
Flags: W
TopAccentHorizontal: 307
HStem: -1 49<126 478.813> -1 34<11 51.9032> 598 48<192 467.635> 613 33<12 58.2656>
VStem: 516 41<489.146 538.274> 534 43<112.425 165.814>
DStem2: 53 51 126 48 0.629706 0.776834<43.638 332.808> 192 598 78 576 0.568888 -0.822415<0 276.678>
LayerCount: 2
Fore
SplineSet
126 48 m 1xa8
 409 48 l 2xa8
 485 48 514 98 534 170 c 1
 577 165 l 1
 565 113 555 56 550 0 c 1
 11 -1 l 1
 9 1 l 1
 9 30 l 1
 11 33 l 1
 39 33 41 35 53 51 c 2
 262 310 l 1
 78 576 l 1
 51 612 26 613 12 613 c 1
 10 615 l 1
 10 645 l 1
 12 646 l 1
 165 645 l 1
 536 646 l 1x54
 541 592 549 531 557 490 c 1
 516 485 l 1
 494 554 475 598 400 598 c 2
 192 598 l 1
 371 337 l 1
 370 336 l 1
 340 312 l 1
 126 48 l 1xa8
EndSplineSet
EndChar

StartChar: u1D6BB
Encoding: 120507 120507 71
Width: 597
VWidth: 999
Flags: W
TopAccentHorizontal: 296
HStem: -2 34<151 230.816 366.855 447> 599 46<70.4923 235.855 362.438 526.846>
VStem: 8 39<518.103 570.778> 30 36<645.204 669> 238 122<37.748 595.906> 532 36<647.479 669> 550 40<518.125 570.778>
LayerCount: 2
Fore
SplineSet
87 645 m 2xd8
 510 645 l 2
 531 645 532 663 532 669 c 1
 568 673 l 1xdc
 572 624 579 572 590 519 c 1
 550 514 l 1
 530 594 517 599 462 599 c 2
 408 599 l 2
 372 599 360 590 360 557 c 2
 360 76 l 2
 360 45 375 32 415 32 c 2
 441 32 l 2
 445 32 449 29 449 23 c 2
 449 0 l 1
 447 -2 l 1
 447 -2 328 0 289 0 c 0
 253 0 151 -2 151 -2 c 1
 149 0 l 1
 149 23 l 2
 149 29 152 32 157 32 c 2
 183 32 l 2
 224 32 238 48 238 76 c 2
 238 560 l 2
 238 590 226 599 189 599 c 2
 136 599 l 2
 81 599 67 594 47 514 c 1
 8 519 l 1xea
 19 572 26 624 30 673 c 1
 66 669 l 1
 66 663 66 645 87 645 c 2xd8
EndSplineSet
EndChar

StartChar: u1D6BC
Encoding: 120508 120508 72
Width: 617
VWidth: 999
Flags: W
TopAccentHorizontal: 315
HStem: -1 34<167 249.271 380.901 464> 613 34<2 65.7637 188.987 243 417 464.721 539.845 615>
VStem: 254 122<37.166 281>
DStem2: 197 576 97 553 0.499906 -0.86608<-27.9379 279.078> 336 334 376 293 0.468465 0.883482<0 295.737>
LayerCount: 2
Fore
SplineSet
254 72 m 2
 254 281 l 1
 97 553 l 2
 63 610 50 613 23 613 c 2
 11 613 l 2
 5 613 0 615 0 620 c 2
 0 645 l 1
 2 647 l 1
 2 647 116 645 129 645 c 0
 135 645 243 647 243 647 c 1
 245 645 l 1
 245 621 l 2
 245 617 243 613 238 613 c 0
 187 613 177 609 197 576 c 2
 336 334 l 1
 464 576 l 2
 475 596 457 613 421 613 c 0
 416 613 415 617 415 620 c 2
 415 645 l 1
 417 647 l 1
 417 647 496 645 508 645 c 0
 517 645 615 647 615 647 c 1
 617 645 l 1
 617 621 l 2
 617 615 613 613 607 613 c 2
 586 613 l 2
 556 613 542 606 525 574 c 2
 376 293 l 1
 376 72 l 2
 376 41 392 33 431 33 c 2
 458 33 l 2
 462 33 466 30 466 24 c 2
 466 1 l 1
 464 -1 l 1
 464 -1 355 1 316 1 c 0
 280 1 167 -1 167 -1 c 1
 166 1 l 1
 166 24 l 2
 166 30 168 33 173 33 c 2
 200 33 l 2
 241 33 254 44 254 72 c 2
EndSplineSet
Comment: "Geschwungen?" 
EndChar

StartChar: u1D6BD
Encoding: 120509 120509 73
Width: 709
VWidth: 487
Flags: W
TopAccentHorizontal: 354
HStem: -1 34<219 287.724 423.184 491> 114 32<247.995 294 416 464.112> 500 34<232.363 294 416 469.822> 613 32<219 286.538 424.451 491>
VStem: 37 120<244.564 396.517> 294 122<38.5094 116.107 146 500 531.859 607.491> 553 120<254.577 407.43>
CounterMasks: 1 0e
LayerCount: 2
Fore
SplineSet
294 146 m 1
 294 502 l 1
 220 492 157 453 157 331 c 0
 157 216 213 162 294 146 c 1
416 146 m 1
 542 168 553 258 553 324 c 0
 553 442 498 487 416 500 c 1
 416 146 l 1
416 77 m 2
 416 49 430 33 471 33 c 2
 485 33 l 2
 490 33 493 30 493 24 c 2
 493 1 l 1
 491 -1 l 1
 491 -1 391 1 355 1 c 0
 316 1 219 -1 219 -1 c 1
 217 1 l 1
 217 24 l 2
 217 30 221 33 225 33 c 2
 239 33 l 2
 279 33 294 45 294 77 c 2
 294 114 l 1
 74 136 37 273 37 324 c 0
 37 400 115 510 294 533 c 1
 294 569 l 2
 294 601 279 613 239 613 c 2
 225 613 l 2
 221 613 217 616 217 621 c 2
 217 645 l 1
 219 646 l 1
 219 646 316 645 355 645 c 0
 391 645 491 646 491 646 c 1
 493 645 l 1
 493 621 l 2
 493 616 490 613 485 613 c 2
 471 613 l 2
 430 613 416 597 416 569 c 2
 416 534 l 1
 565 518 673 433 673 331 c 0
 673 234 568 134 416 114 c 1
 416 77 l 2
EndSplineSet
EndChar

StartChar: u1D6BE
Encoding: 120510 120510 74
Width: 708
VWidth: 999
Flags: W
TopAccentHorizontal: 363
HStem: -2 34<6 77.2637 175.139 221 431 479.696 642.975 703> 613 32<24 81.6763 243.172 295 464 510.913 615.064 682>
DStem2: 253 572 129 549 0.578967 -0.815351<-30.4141 207.826 286.619 564.202> 388 412 565 552 0.640675 0.767812<-16.6551 209.908>
LayerCount: 2
Fore
SplineSet
24 620 m 2
 24 645 l 1
 29 646 l 1
 55 646 119 645 130 645 c 0
 135 645 260 646 291 646 c 1
 291 646 294 645 295 645 c 1
 295 620 l 2
 295 615 293 613 290 613 c 0
 239 613 233 603 253 572 c 2
 360 414 l 2
 373 396 375 397 388 412 c 0
 428 461 479 524 506 572 c 0
 526 609 492 613 469 613 c 0
 466 613 462 615 462 620 c 2
 462 645 l 1
 464 646 l 1
 486 646 573 645 584 645 c 0
 589 645 664 646 682 646 c 1
 684 645 l 1
 684 620 l 2
 684 617 684 613 675 613 c 0
 624 613 594 586 565 552 c 2
 421 383 l 2
 403 362 404 358 438 312 c 2
 591 102 l 2
 619 63 653 32 697 32 c 0
 702 32 704 28 704 24 c 2
 704 0 l 1
 703 -2 l 1
 675 -1 609 0 597 0 c 0
 591 0 431 -2 431 -2 c 1
 428 0 l 1
 428 25 l 2
 428 29 431 32 434 32 c 0
 494 32 492 38 467 73 c 2
 345 246 l 2
 324 277 321 277 307 258 c 0
 263 201 219 136 183 77 c 0
 158 35 195 32 218 32 c 0
 222 32 224 28 224 24 c 2
 224 0 l 1
 221 -2 l 1
 221 -2 104 0 90 0 c 0
 85 0 6 -2 6 -2 c 1
 5 0 l 1
 5 25 l 2
 5 30 10 32 16 32 c 0
 75 32 100 65 131 104 c 2
 277 291 l 1
 294 311 293 316 273 344 c 2
 129 549 l 2
 90 605 52 613 35 613 c 0
 28 613 24 615 24 620 c 2
EndSplineSet
EndChar

StartChar: u1D6BF
Encoding: 120511 120511 75
Width: 749
VWidth: 487
Flags: W
TopAccentHorizontal: 374
HStem: -1 34<239 307.724 443.184 511> 590 26<22.3138 62.7063 686.834 727.301> 613 32<239 306.538 444.451 511>
VStem: 96 110<342.239 563.994> 314 122<38.5094 210.575 243 607.491> 544 109<358.609 565.929>
LayerCount: 2
Fore
SplineSet
635 616 m 2xdc
 705 616 l 2
 717 616 728 609 728 599 c 0
 728 592 721 590 713 588 c 0
 691 582 653 575 653 473 c 0
 653 294 536 226 436 208 c 1
 436 77 l 2
 436 49 450 33 491 33 c 2
 505 33 l 2
 510 33 513 30 513 24 c 2
 513 1 l 1
 511 -1 l 1
 511 -1 411 1 375 1 c 0
 336 1 239 -1 239 -1 c 1
 237 1 l 1
 237 24 l 2
 237 30 241 33 245 33 c 2
 259 33 l 2
 299 33 314 45 314 77 c 2
 314 207 l 1
 210 223 96 287 96 450 c 0
 96 578 57 584 35 590 c 0
 27 592 22 594 22 600 c 0
 22 610 31 616 42 616 c 2
 114 616 l 2xdc
 175 616 206 564 206 466 c 0
 206 323 258 264 314 243 c 1
 314 569 l 2
 314 601 299 613 259 613 c 2
 245 613 l 2
 241 613 237 616 237 621 c 2
 237 645 l 1
 239 646 l 1
 239 646 336 645 375 645 c 0
 411 645 511 646 511 646 c 1
 513 645 l 1
 513 621 l 2
 513 616 510 613 505 613 c 2
 491 613 l 2xbc
 450 613 436 597 436 569 c 2
 436 242 l 1
 529 278 544 402 544 477 c 0
 544 555 562 616 635 616 c 2xdc
EndSplineSet
EndChar

StartChar: u1D6C0
Encoding: 120512 120512 76
Width: 729
VWidth: 487
Flags: W
TopAccentHorizontal: 364
HStem: 0 71<103.926 260 467 619.918> 619 39<278.914 450.157>
VStem: 44 129<282.026 472.733> 57 38<80.7458 128> 556 129<285.278 478.41> 629 38<80.7292 128>
DStem2: 416 16 467 71 0.0891953 0.996014<59.3297 121.999>
LayerCount: 2
Fore
SplineSet
472 124 m 1xe8
 467 71 l 1
 553 71 l 2
 601 71 623 72 629 128 c 1
 667 128 l 1xc4
 660 0 l 1
 432 0 l 2
 419 0 415 6 416 16 c 2
 428 150 l 1
 520 204 556 269 556 377 c 0
 556 518 494 619 364 619 c 0
 226 619 173 506 173 378 c 0xe8
 173 266 212 212 305 150 c 1
 312 16 l 2
 313 6 307 0 296 0 c 2
 64 0 l 1
 57 128 l 1
 95 128 l 1xd0
 99 76 119 71 171 71 c 2
 260 71 l 1
 257 124 l 1
 149 161 44 249 44 377 c 0
 44 509 167 658 364 658 c 0
 563 658 685 525 685 377 c 0
 685 257 583 161 472 124 c 1xe8
EndSplineSet
EndChar

StartChar: u1D6C1
Encoding: 120513 120513 77
Width: 584
VWidth: 487
Flags: W
TopAccentHorizontal: 292
HStem: 577 26<65 483>
DStem2: 14 588 65 577 0.378813 -0.925473<29.4997 579.148> 318 -13 270 67 0.387988 0.921664<55.1097 607.8>
LayerCount: 2
Fore
SplineSet
270 67 m 1
 65 577 l 1
 483 577 l 1
 270 67 l 1
260 -13 m 1
 318 -13 l 1
 417 221 571 588 571 588 c 2
 574 594 575 597 575 599 c 0
 575 601 574 602 571 603 c 1
 559 603 l 1
 26 603 l 2
 15 603 10 602 10 599 c 0
 10 597 11 594 14 588 c 2
 14 588 164 221 260 -13 c 1
EndSplineSet
EndChar

StartChar: u1D6C2
Encoding: 120514 120514 78
Width: 638
Flags: W
TopAccentHorizontal: 319
HStem: -12 71<493.693 549.001> -12 38<226.543 296.017> 408 37<208.019 311.419>
VStem: 36 123<111.432 317.696>
DStem2: 372 180 475 144 0.448393 0.893836<14.0064 29.0689 146.684 306.606>
LayerCount: 2
Fore
SplineSet
385 206 m 1x70
 377 241 l 1
 357 335 329 408 262 408 c 0
 187 408 159 336 159 226 c 0
 159 146 195 26 271 26 c 0
 296 26 336 106 372 180 c 2
 385 206 l 1x70
262 445 m 0
 366 445 412 392 436 312 c 1
 503 448 l 1
 535 443 548 442 560 442 c 0
 574 442 598 444 627 447 c 1
 475 144 l 1
 477 146 l 1
 486 87 500 59 512 59 c 0
 527 59 549 68 572 120 c 1
 620 102 l 1
 591 20 565 -12 507 -12 c 0xb0
 466 -12 438 10 421 57 c 1
 379 7 328 -12 263 -12 c 0
 112 -12 36 78 36 202 c 0
 36 388 162 445 262 445 c 0
EndSplineSet
EndChar

StartChar: u1D6C3
Encoding: 120515 120515 79
Width: 542
Flags: W
TopAccentHorizontal: 271
HStem: -233 21G<82.6471 133.696> -12 32<271.388 340.975> 372 62<208.47 300.574> 383 37<249.349 327.798> 661 37<227.673 314.066>
VStem: 74 110<-187 54 61 552.57> 355 110<482.299 620.373> 389 117<100.623 300.651>
LayerCount: 2
Fore
SplineSet
184 489 m 2xde
 184 61 l 1
 229 84 l 1
 250 44 289 20 307 20 c 0
 367 20 389 138 389 201 c 0
 389 256 364 383 301 383 c 0xdd
 292 383 277 372 248 372 c 0
 221 372 207 383 207 404 c 0
 207 424 227 434 248 434 c 0xed
 272 434 289 420 303 420 c 0
 337 420 355 503 355 544 c 0
 355 604 318 661 273 661 c 0
 240 661 184 639 184 489 c 2xde
74 -199 m 1
 74 416 l 2
 74 550 125 698 283 698 c 0
 374 698 465 649 465 554 c 0xce
 465 477 404 433 338 405 c 1
 396 392 506 349 506 205 c 0
 506 92 440 -12 312 -12 c 0
 253 -12 203 16 184 54 c 1
 184 -187 l 1
 95 -233 l 1
 74 -199 l 1
EndSplineSet
EndChar

StartChar: u1D6C4
Encoding: 120516 120516 80
Width: 550
Flags: W
TopAccentHorizontal: 319
HStem: 375 70<96.855 182.5>
VStem: 192 162<-206.38 -94.789> 430 91<277.55 403>
LayerCount: 2
Fore
SplineSet
521 386 m 0
 521 310 466 159 343 -12 c 1
 352 -41 354 -69 354 -96 c 0
 354 -131 342 -263 264 -263 c 0
 207 -263 192 -205 192 -174 c 0
 192 -130 215 -82 269 -9 c 1
 269 -2 l 1
 237 142 191 264 139 352 c 0
 130 367 122 375 116 375 c 0
 107 375 89 343 72 304 c 1
 8 325 l 1
 25 376 64 445 143 445 c 0
 222 445 243 410 259 363 c 0
 289 278 316 189 333 83 c 1
 388 177 430 265 430 316 c 0
 430 337 426 344 419 347 c 0
 402 355 374 376 374 399 c 0
 374 431 405 445 440 445 c 0
 485 445 521 420 521 386 c 0
EndSplineSet
EndChar

StartChar: u1D6C5
Encoding: 120517 120517 81
Width: 540
Flags: W
TopAccentHorizontal: 270
HStem: -12 37<227.419 325.938> 563 21G<383 402.5> 658 40<219.094 301.98>
VStem: 44 119<105.019 290.915> 111 95<557.58 646.131> 322 128<581.339 640.08> 384 121<121.112 300.305>
LayerCount: 2
Fore
SplineSet
303 377 m 1xf2
 281 396 l 1
 222 370 163 321 163 217 c 0
 163 139 198 25 275 25 c 0
 317 25 384 56 384 214 c 0
 384 267 353 338 303 377 c 1xf2
243 427 m 1
 229 438 l 1
 149 503 111 540 111 587 c 0
 111 666 188 698 267 698 c 0
 378 698 450 637 450 603 c 0
 450 571 414 563 391 563 c 0
 375 563 341 571 322 608 c 0
 303 645 282 658 266 658 c 0
 229 658 206 637 206 597 c 0xec
 206 569 252 533 298 498 c 0
 416 409 505 330 505 226 c 0
 505 62 380 -12 264 -12 c 0
 128 -12 44 83 44 200 c 0
 44 328 151 394 243 427 c 1
EndSplineSet
EndChar

StartChar: u1D6C6
Encoding: 120518 120518 82
Width: 435
Flags: W
TopAccentHorizontal: 237
HStem: -12 41<194.332 306.84> 202 46<187.312 333.773> 408 37<196.373 258.045>
VStem: 44 122<54.1754 180.502> 64 113<263.805 381.329>
LayerCount: 2
Fore
SplineSet
166 121 m 0xf0
 166 70 195 29 240 29 c 0
 276 29 320 53 370 87 c 1
 397 52 l 1
 362 19 303 -12 230 -12 c 0
 76 -12 44 66 44 118 c 0xf0
 44 141 46 194 142 229 c 1
 89 250 64 276 64 322 c 0
 64 363 103 445 237 445 c 0
 326 445 392 408 392 370 c 0
 392 338 355 330 335 330 c 0
 297 330 285 346 275 364 c 0
 264 384 250 408 231 408 c 0
 208 408 177 386 177 325 c 0xe8
 177 259 202 243 233 243 c 1
 233 243 236 244 241 244 c 0
 254 246 278 248 284 248 c 0
 316 248 334 241 334 227 c 0
 334 212 322 202 283 202 c 0
 277 202 266 204 256 205 c 0
 245 207 234 208 232 208 c 0
 191 208 166 175 166 121 c 0xf0
EndSplineSet
EndChar

StartChar: u1D6C7
Encoding: 120519 120519 83
Width: 496
Flags: W
TopAccentHorizontal: 248
HStem: -204 47<228.5 363.885> -6 79<210.979 374.88> 510 37<170.509 238.346>
VStem: 61 106<112.696 294.853 550.301 609.474> 388 76<-131.677 -17.8406>
LayerCount: 2
Fore
SplineSet
222 642 m 1
 208 637 l 2
 205 636 169 615 169 570 c 0
 169 555 186 547 213 547 c 0
 233 547 255 550 285 554 c 1
 272 553 l 1
 312 595 352 623 385 623 c 0
 427 623 441 604 441 578 c 0
 441 550 389 528 302 517 c 1
 316 518 l 1
 182 347 167 279 167 203 c 0
 167 133 180 73 303 73 c 0
 405 73 464 23 464 -62 c 0
 464 -119 425 -204 252 -204 c 0
 205 -204 141 -188 141 -146 c 0
 141 -123 159 -108 197 -108 c 0
 233 -108 244 -119 255 -132 c 0
 266 -145 278 -157 294 -157 c 0
 368 -157 388 -120 388 -63 c 0
 388 -25 366 -6 315 -6 c 0
 98 -6 61 89 61 193 c 0
 61 284 107 363 239 513 c 1
 216 511 197 510 178 510 c 0
 107 510 61 526 61 575 c 0
 61 607 120 639 210 672 c 1
 222 642 l 1
EndSplineSet
EndChar

StartChar: u1D6C8
Encoding: 120520 120520 84
Width: 561
Flags: W
TopAccentHorizontal: 280
HStem: -237 21G<446.959 500.875> 387 30<36 77> 389 56<269.522 354.57>
VStem: 99 110<13 357.068 381 383> 376 110<-186.061 366.477>
LayerCount: 2
Fore
SplineSet
209 381 m 1xd8
 238 405 287 445 351 445 c 0
 432 445 486 402 486 284 c 2
 486 0 l 2
 486 -124 496 -173 508 -205 c 1
 489 -237 l 1
 386 -188 l 1
 377 -147 376 -83 376 0 c 2
 376 277 l 2
 376 339 358 389 315 389 c 0xb8
 274 389 245.8 369.2 209 341 c 1
 209 13 l 1
 120 -33 l 1
 99 1 l 1
 99 321 l 2
 99 371 91 382 77 383 c 2
 36 387 l 1
 34 417 l 1
 104 426 170 437 202 447 c 0
 204 447 209 446 209 444 c 2
 207 381 l 1
 209 381 l 1xd8
EndSplineSet
EndChar

StartChar: u1D6C9
Encoding: 120521 120521 85
Width: 498
Flags: W
TopAccentHorizontal: 249
HStem: -12 37<215.145 286.226> 311 46<144 355> 644 37<210.333 282.905>
VStem: 29 115<176.619 311 357 485.672> 355 114<179.553 311 357 496.521>
LayerCount: 2
Fore
SplineSet
355 311 m 1
 144 311 l 1
 145 171 188 25 251 25 c 0
 314 25 354 170 355 311 c 1
246 644 m 0
 179 644 145 482 144 357 c 1
 355 357 l 1
 354 508 307 644 246 644 c 0
29 334 m 0
 29 565 144 681 252 681 c 0
 340 681 469 594 469 334 c 0
 469 76 334 -12 247 -12 c 0
 152 -12 29 86 29 334 c 0
EndSplineSet
EndChar

StartChar: u1D6CA
Encoding: 120522 120522 86
Width: 328
Flags: W
TopAccentHorizontal: 164
HStem: -12 60<168.5 266.091> 387 30<36 77> 427 20G<189.25 206.219>
VStem: 99 110<49.2292 383>
LayerCount: 2
Fore
SplineSet
99 321 m 2
 99 371 91.4 381.6 77 383 c 2
 36 387 l 1
 34 417 l 1
 103.5 426.5 173.5 437 205 447 c 0
 207.4 447 212 446.4 212 444 c 2
 212 444 209 371.3 209 321.3 c 2
 209 83 l 2
 209 61 220 48 229 48 c 0
 247 48 273 72 298 104 c 1
 329 79 l 1
 305 32 257 -12 208 -12 c 0
 129 -12 99 22 99 83 c 2
 99 321 l 2
EndSplineSet
EndChar

StartChar: u1D6CB
Encoding: 120523 120523 87
Width: 530
Flags: W
TopAccentHorizontal: 265
HStem: -12 58<366 444.381> 343 102<388.448 486.771> 387 30<28 69>
VStem: 91 110<18 155 256 383>
DStem2: 285 272 229 183 0.466878 -0.884322<52.5595 262.735>
LayerCount: 2
Fore
SplineSet
201 321.3 m 2xb0
 201 256 l 1
 219 281 241 300 258 325 c 0
 305 390 345 445 422 445 c 0
 463 445 498 436 498 390 c 0
 498 367 470 343 441 343 c 0xd0
 403 343 380 365 380 385 c 1
 373 380 348 357 318 315 c 1
 285 272 l 1
 314 219 342 165 370 111 c 0
 393 67 414 46 420 46 c 0
 425.2 46 445 66 475 101 c 1
 475 101 503 70 511 70 c 1
 457 4 429 -12 383 -12 c 0
 349 -12 321 3 289 64 c 0
 265 111 253 135 229 183 c 1
 201 155 l 1
 201 18 l 1
 112 -28 l 1
 91 6 l 1
 91 321 l 2
 91 371 83.4 381.6 69 383 c 2
 28 387 l 1
 26 417 l 1
 95.5 426.5 165.5 437 197 447 c 0
 199.4 447 204 446.4 204 444 c 2
 204 444 201 371.3 201 321.3 c 2xb0
EndSplineSet
Comment: "Ist das so richtig? In Times anders" 
EndChar

StartChar: u1D6CC
Encoding: 120524 120524 88
Width: 581
Flags: W
TopAccentHorizontal: 161
HStem: -12 74<446.859 489.202> 630 68<93.2372 172.287>
VStem: 514 56<88.5249 103.111>
DStem2: 294 567 230 476 0.288103 -0.957599<-85.3722 118.989 248.01 530.625>
LayerCount: 2
Fore
SplineSet
561 104 m 1
 570 100 l 1
 551 38 512 -12 461 -12 c 0
 397 -12 363 34 335 127 c 1
 284 305 l 1
 241 208 198 110 154 13 c 1
 54 -15 l 1
 16 0 l 1
 245 428 l 1
 240 443 235 460 230 476 c 0
 190 600 162 630 144 630 c 0
 125 630 98 614 66 589 c 1
 40 634 l 1
 67 674 116 698 158 698 c 0
 186 698 260 680 294 567 c 2
 383 270 l 1
 429 121 449 62 465 62 c 0
 476 62 490 75 514 132 c 1
 561 104 l 1
EndSplineSet
EndChar

StartChar: u1D6CD
Encoding: 120525 120525 89
Width: 529
VWidth: 999
Flags: W
TopAccentHorizontal: 264
HStem: -232 21<100 126> -12 53<175.705 270.937 395 488.115> 427 20<36 154.577 324 434>
VStem: 47 116<-210.75 -5.68021 51.2708 433.938> 64 82<-162.013 -3> 324 110<76.4375 434>
LayerCount: 2
Fore
SplineSet
325 48 m 1xf4
 284 15 247 -12 192 -12 c 0
 176 -12 160 -9 146 -3 c 1xec
 148 -35 145 -67 151 -96 c 0
 157 -122 163 -151 163 -168 c 0
 163 -211 142 -232 110 -232 c 0
 90 -232 47 -206 47 -163 c 0xf4
 47 -142 50 -118 54 -92 c 0
 58 -66 64 -40 64 -4 c 0xec
 64 10 62 26 61 46 c 1
 58 72 47 111.5 47 137 c 2
 47 323 l 2
 47 348 36 434 36 434 c 1
 154 447 l 1
 154 447 157 375 157 343 c 2
 157 150 l 2
 157 87 175 41 210 41 c 0
 251 41 302 68 324 98 c 1
 324 434 l 1
 434 448 l 1
 434 126 l 2
 434 80 435 42 474 42 c 0
 498.2 42 499.2 58 505 58 c 0
 509 58 518 45 518 38 c 0
 518 33 480 -10 425 -10 c 0
 365 -10 339 9.5 327 48 c 1
 325 48 l 1xf4
EndSplineSet
EndChar

StartChar: u1D6CE
Encoding: 120526 120526 90
Width: 517
Flags: W
TopAccentHorizontal: 258
HStem: -12 21G<203.5 348.5> 383 62<56.1611 154.988>
VStem: 394 96<299.698 409.753>
LayerCount: 2
Fore
SplineSet
424 445 m 0
 468 445 490 418 490 388 c 0
 490 372 484 349 477 324 c 1
 449 238 406 156 291 -12 c 1
 206 -12 l 1
 201 130 136 383 97 383 c 0
 76 383 62 371 49 353 c 1
 11 377 l 1
 37 412 71 445 117 445 c 0
 191 445 232 340 264 246 c 1
 277 203 291 154 299 113 c 1
 361 220 394 278 394 309 c 0
 394 341 384 353 375 360 c 0
 362 370 358 385 358 401 c 0
 358 418 379 445 424 445 c 0
EndSplineSet
EndChar

StartChar: u1D6CF
Encoding: 120527 120527 91
Width: 460
Flags: W
TopAccentHorizontal: 230
HStem: -209 47<223 350.467> -12 77<179.275 349.643> 247 1<191.695 193> 271 73<265.742 380.941> 271 40<265.5 287.993> 503 34<173.877 189>
VStem: 45 102<94.8401 220.016> 75 110<319.076 434.625> 75 96<537.447 600.796> 365 73<-141.786 -28.0155>
LayerCount: 2
Fore
SplineSet
353 556 m 1xe440
 348 553 343 550 337 547 c 1
 344 549 351 552 353 556 c 1xe440
365 -73 m 0
 365 -27 330 -12 279 -12 c 0
 86 -12 45 73 45 157 c 0xf640
 45 212 83 248 146 276 c 1
 98 306 75 339 75 384 c 0
 75 423 115 464 189 503 c 1
 185 503 l 2xf540
 125 503 75 516 75 568 c 0
 75 600 138 631 227 664 c 1
 229 649 229 640 230 637 c 0
 231 633 232 629 233 629 c 2
 219 622 l 2
 206 615 171 599 171 558 c 0xf4c0
 171 543 180 537 200 537 c 0
 213.3 537 229.7 538.9 250 542 c 1
 302 578 344 594 373 594 c 0
 411 594 430 582 430 556 c 0
 430 528 376 516 282 511 c 1
 208 471 185 429 185 373 c 0
 185 323 198 311 216 311 c 0xed40
 239 311 265 322 288 331 c 0
 306 338 322 344 341 344 c 0
 373 344 387 333 387 313 c 0
 387 284 361 271 314 271 c 0
 307 271 302 271 298 271 c 0
 295 271 293 272 291 272 c 0
 259.3 264.3 224.9 255.8 193 248 c 1
 165 234 147 208 147 162 c 0xf640
 147 107 170 65 267 65 c 0
 364 65 438 21 438 -73 c 0
 438 -151 369 -209 250 -209 c 0
 196 -209 152 -202 152 -167 c 0
 152 -146 177 -133 209 -133 c 0
 234 -133 253 -141 273 -148 c 0
 291 -155 309 -162 322 -162 c 0
 345 -162 365 -126 365 -73 c 0
EndSplineSet
EndChar

StartChar: u1D6D0
Encoding: 120528 120528 92
Width: 519
VWidth: 999
Flags: W
TopAccentHorizontal: 259
HStem: -10 43<223.814 325.852> 403 41<203.326 303.665>
VStem: 34 122<119.406 317.729> 364 121<118.762 320.282>
LayerCount: 2
Fore
SplineSet
250 403 m 0
 186 403 156 314 156 229 c 0
 156 155 193 33 275 33 c 0
 311 33 364 57 364 184 c 0
 364 327 318 403 250 403 c 0
34 207 m 0
 34 344 115 444 260 444 c 0
 423 444 485 321 485 216 c 0
 485 115 414 -10 259 -10 c 0
 112 -10 34 104 34 207 c 0
EndSplineSet
EndChar

StartChar: u1D6D1
Encoding: 120529 120529 93
Width: 607
Flags: W
TopAccentHorizontal: 303
HStem: -12 85<58.9819 120.176> -12 60<447.818 500.846> 357 76<115.135 159 448 522.086>
VStem: 23 60<283.95 321.31> 159 95<127.635 357> 346 99<50.4717 109>
LayerCount: 2
Fore
SplineSet
449 433 m 2x7c
 142 433 l 2
 75 433 31 346 23 285 c 1
 83 276 l 1
 102 332 125 355 159 357 c 1
 159 106 120 79 98 73 c 0
 59 64 46 35 46 26 c 0
 46 -4 81 -12 100 -12 c 0xbc
 212 -12 253 117 254 357 c 1
 350 357 l 1
 347 244 346 167 346 109 c 0
 346 46 367 -12 453 -12 c 0
 514 -12 556 41 580 72 c 1
 542 107 l 1
 492 54 465 48 456 48 c 0
 448 48 445 69 445 109 c 0
 445 242 445 322 448 358 c 1
 506 361 550 378 577 424 c 1
 526 459 l 1
 515 435 477 433 449 433 c 2x7c
EndSplineSet
EndChar

StartChar: u1D6D2
Encoding: 120530 120530 94
Width: 561
Flags: W
TopAccentHorizontal: 280
HStem: -11 37<217.481 338.646> 399 46<224.389 344.485>
VStem: 75 110<-202.723 -1 51.4685 326.095> 406 122<135.427 326.776>
LayerCount: 2
Fore
SplineSet
406 200 m 0
 406 354 345 399 277 399 c 0
 237 399 185 374 185 232 c 2
 185 79 l 1
 202 42 248 26 285 26 c 0
 354 26 406 97 406 200 c 0
177 -204 m 1
 71 -248 l 1
 53 -218 l 1
 65 -187 75 -128 75 -3 c 2
 75 186 l 2
 75 319 108 356 137 386 c 1
 180 428 249 445 302 445 c 0
 434 445 528 357 528 242 c 0
 528 88 416 -11 271 -11 c 0
 239 -11 207 -7 185 -1 c 1
 185 -12 186 -24 186 -36 c 0
 186 -52 186 -72 186 -87 c 0
 186 -134 184 -177 177 -204 c 1
EndSplineSet
EndChar

StartChar: u1D6D3
Encoding: 120531 120531 95
Width: 479
Flags: W
TopAccentHorizontal: 239
HStem: -222 48<180.5 344.083> -12 83<181.598 347.263> 375 70<193.36 319.447>
VStem: 28 91<130.34 289.75> 375 76<-138.557 -36.6725>
LayerCount: 2
Fore
SplineSet
28 199 m 0
 28 306 123 445 294 445 c 0
 408 445 448 403 448 375 c 0
 448 347 423 330 382 330 c 0
 355 330 334 340 318 355 c 1
 304 370 288 375 257 375 c 0
 180 375 119 286 119 220 c 0
 119 108 174 71 305 71 c 0
 352 71 383 58 402 38 c 0
 441 -1 451 -36 451 -78 c 0
 451 -117 426 -151 386 -179 c 1
 341 -209 298 -222 233 -222 c 0
 128 -222 109 -184 109 -158 c 0
 109 -128 139 -112 166 -112 c 0
 207 -112 226 -123 238 -150 c 0
 243 -160 251 -174 275 -174 c 0
 327 -174 375 -149 375 -80 c 0
 375 -25 316 -16 220 -12 c 0
 97 -7 28 104 28 199 c 0
EndSplineSet
EndChar

StartChar: u1D6D4
Encoding: 120532 120532 96
Width: 594
Flags: W
TopAccentHorizontal: 297
HStem: -12 38<225.601 327.63> 359 76<221.189 347 398 518.012>
VStem: 38 113<108.332 287.002> 384 114<99.9461 277.196>
LayerCount: 2
Fore
SplineSet
286 26 m 0
 338 26 384 96 384 187 c 0
 384 234 381 289 329 343 c 1
 336 348 348 357 347 359 c 1
 307 359 l 2
 195 359 151 282 151 189 c 0
 151 124 198 26 286 26 c 0
108 369 m 1
 145 404 211 435 312 435 c 2
 442 435 l 2
 471 435 508 445 531 465 c 1
 572 436 l 1
 543 385 496 359 424 359 c 2
 398 359 l 1
 458 324 498 264 498 184 c 0
 498 126 454 -12 280 -12 c 0
 130 -12 38 78 38 205 c 0
 38 264 64 324 108 369 c 1
EndSplineSet
EndChar

StartChar: u1D6D5
Encoding: 120533 120533 97
Width: 463
Flags: W
TopAccentHorizontal: 231
HStem: -12 60<237.776 323.734> 357 75<114.248 185 283.184 379.122>
VStem: 24 62<286.645 324.306> 164 106<48.124 352.044> 185 100<114.464 357>
LayerCount: 2
Fore
SplineSet
142 432 m 2xe8
 306 432 l 2
 335 432 373 435 384 459 c 1
 434 424 l 1
 406 373 358 357 289 357 c 2
 285 357 l 1xe8
 275 250 270 162 270 109 c 0
 270 67 273 48 280 48 c 0
 291 48 312 54 365 107 c 1
 403 72 l 1
 369 26 330 -12 272 -12 c 0
 204 -12 164 33 164 112 c 0xf0
 164 164 172 252 185 357 c 1
 152 357 l 2
 120 357 111 339 86 276 c 1
 24 288 l 1
 31 342 62 432 142 432 c 2xe8
EndSplineSet
EndChar

StartChar: u1D6D6
Encoding: 120534 120534 98
Width: 530
Flags: W
TopAccentHorizontal: 265
HStem: -12 54<240.267 351.44> 364 81<323.969 397.814> 386 59<72.5422 179>
VStem: 86 114<84.4349 372.391> 103 119<175.812 414.458> 418 81<128.003 346.796>
LayerCount: 2
Fore
SplineSet
499 250 m 0xd4
 499 75 399 -12 298 -12 c 0
 136 -12 86 78 86 175 c 0xd4
 86 220 91 258 96 291 c 0
 99 316 103 340 103 361 c 0
 103 378 101 386 99 386 c 0
 92 386 36 370 36 370 c 1
 27 397 l 1
 49 417 114 445 161 445 c 0
 197 445 222 427 222 394 c 0xac
 222 361 217 330 212 297 c 0
 206 263 200 226 200 172 c 0
 200 105 228 42 298 42 c 0
 372 42 418 144 418 238 c 0
 418 329 396 359 376 364 c 1
 360 366 317 373 317 405 c 0
 317 424 338 445 379 445 c 0
 463 445 499 372 499 250 c 0xd4
EndSplineSet
EndChar

StartChar: u1D6D7
Encoding: 120535 120535 99
Width: 604
Flags: W
TopAccentHorizontal: 302
HStem: -220 21G<239 361> 627 20G<268 335.68>
VStem: 28 118<120.903 304.544> 239 122<-220 -15> 246 109<-161.429 -13.2927 23 246> 261 82<196.545 406 439.754 621.25> 269 66<445.144 647> 458 118<120.717 304.233>
LayerCount: 2
Fore
SplineSet
146 212 m 0xe5
 146 142 167 90 202 56 c 1
 217 40 233 29 248 23 c 1
 252 151 257 278 261 406 c 1
 242 401 223 391 201 369 c 0
 168 335 146 284 146 212 c 0xe5
343 406 m 1
 354 22 l 1
 369 27 386 39 406 59 c 0
 437 90 458 142 458 212 c 0
 458 284 437 335 403 370 c 1
 380 392 361 402 343 406 c 1
104 49 m 0
 53 98 28 152 28 212 c 0
 28 274 53 328 104 376 c 1
 155 426 214 438 262 442 c 1
 264 509 267 581 269 647 c 1
 335 647 l 1xe3
 342 441 l 1
 410 437 458 418 501 376 c 0
 552 327 576 273 576 212 c 0
 576 151 551 97 501 49 c 0
 454 3 401 -11 355 -16 c 1xe9
 357 -83 359 -153 361 -220 c 1
 239 -220 l 1xf1
 246 -15 l 1xe9
 187 -8 143 11 104 49 c 0
EndSplineSet
EndChar

StartChar: u1D6D8
Encoding: 120536 120536 100
Width: 549
Flags: W
TopAccentHorizontal: 274
HStem: -177 57<413.835 477.568> 395 50<42.8818 127.367>
DStem2: 284 256 179 247 0.322114 -0.946701<-159.719 37.6245 213.153 389.023>
LayerCount: 2
Fore
SplineSet
179 247 m 0
 146 342 127 395 100 395 c 0
 93 395 75 390 44 374 c 1
 20 403 l 1
 42 431 70 445 119 445 c 0
 201 445 244 373 284 256 c 1
 292 229 287 247 295 220 c 1
 337 295 382 374 423 447 c 1
 458 438 l 1
 480 441 520 446 538 448 c 1
 459 330 l 1
 323 128 l 1
 326 131 l 1
 339 93 353 53 366 15 c 0
 406 -101 419 -120 443 -120 c 0
 453 -120 468 -112 489 -86 c 1
 528 -119 l 1
 505 -156 465 -177 432 -177 c 0
 338 -177 306 -121 262 9 c 1
 258 22 l 1
 240 -10 222 -42 204 -74 c 1
 131 -190 l 1
 63 -170 l 1
 45 -151 l 1
 55 -136 l 1
 226 112 l 1
 210 157 195 202 179 247 c 0
EndSplineSet
EndChar

StartChar: u1D6D9
Encoding: 120537 120537 101
Width: 687
Flags: W
TopAccentHorizontal: 343
HStem: -220 21G<282 416> -7 33<407 442.158> 381 57<75.8677 174>
VStem: 69 110<101.462 312.792> 106 113<301.731 413.257> 282 134<-220 -72.3> 292 115<-156.7 -7.51828> 319 67<358.8 538> 528 100<175.527 357.5>
LayerCount: 2
Fore
SplineSet
319 538 m 1xf180
 386 538 l 1xf180
 406 26 l 1
 501 52 528 159 528 212 c 0
 528 250 516 281 504 311 c 0
 491 342 480 372 480 399 c 0
 480 420 509 443 541 443 c 0
 618 443 628 387 628 328 c 0
 628 166 571 18 407 -7 c 1xe280
 410 -77 413 -151 416 -220 c 1
 282 -220 l 1xe480
 292 -9 l 1
 119 4 69 108 69 184 c 0xf280
 69 266 86 305 98 332 c 0
 103 342 106 351 106 365 c 0
 106 374 104 381 102 381 c 0
 97 381 82 377 37 361 c 1
 33 396 l 1
 77 418 121 438 148 438 c 0
 200 438 219 417 219 398 c 0xe880
 219 373 211 347 203 320 c 0
 192 285 179 243 179 175 c 0
 179 128 214 49 294 27 c 1
 303 196 311 369 319 538 c 1xf180
EndSplineSet
EndChar

StartChar: u1D6DA
Encoding: 120538 120538 102
Width: 736
Flags: W
TopAccentHorizontal: 368
HStem: -12 43<185.72 293.019 442.839 538.027>
VStem: 37 109<78.2937 267.532> 312 113<141.514 297.845> 586 114<94.3094 291.674>
LayerCount: 2
Fore
SplineSet
700 207 m 0
 700 79 635 -12 499 -12 c 0
 450 -12 402 4 370 52 c 1
 340 9 294 -12 232 -12 c 0
 132 -12 37 33 37 179 c 0
 37 277 120 383 251 456 c 1
 272 423 l 1
 241 407 146 322 146 186 c 0
 146 65 188 31 249 31 c 0
 287 31 312 65 332 133 c 1
 315 181 312 229 312 247 c 0
 312 279 328 308 368 308 c 0
 409 308 425 286 425 253 c 0
 425 230 421 188 401 134 c 1
 420 73 447 31 486 31 c 0
 562 31 586 120 586 214 c 0
 586 261 566 337 463 423 c 1
 486 453 l 1
 529 433 700 351 700 207 c 0
EndSplineSet
EndChar

StartChar: u1D6DB
Encoding: 120539 120539 103
Width: 462
VWidth: 488
Flags: W
TopAccentHorizontal: 231
HStem: -11 33<161.287 248.33> 331 38<192.923 301.232> 584 32<157.28 265.429>
VStem: 29 80<77.7701 234.319> 347 79<257.347 458.171>
LayerCount: 2
Fore
SplineSet
248 331 m 0
 172 331 109 233 109 138 c 0
 109 85 152 22 208 22 c 0
 290 22 326 168 338 278 c 1
 323 297 292 331 248 331 c 0
226 369 m 0
 273 369 312 352 344 314 c 1
 346 324 347 337 347 354 c 0
 347 435 308 584 221 584 c 0
 172 584 159 573 154 564 c 0
 144 546 129 528 110 528 c 0
 92 528 80 539 80 556 c 0
 80 589 142 616 216 616 c 0
 340 616 426 487 426 327 c 0
 426 169 361 -11 206 -11 c 0
 110 -11 29 59 29 166 c 0
 29 290 131 369 226 369 c 0
EndSplineSet
EndChar

StartChar: u1D6DC
Encoding: 120540 120540 104
Width: 446
Flags: W
TopAccentHorizontal: 223
HStem: -12 51<215.32 336.417> 203 51<150 365> 394 51<197.981 338.871>
VStem: 29 121<118.248 203 254 312.404>
LayerCount: 2
Fore
SplineSet
387 362 m 1
 356 362 l 1
 314 392 275 394 261 394 c 0
 240 394 213 391 184 361 c 1
 166 344 153 307 149 254 c 1
 365 254 l 1
 365 203 l 1
 150 203 l 1
 159 108 202 39 275 39 c 0
 309 39 349 65 385 101 c 1
 418 66 l 1
 403 43 356 -12 251 -12 c 0
 103 -12 29 96 29 212 c 0
 29 377 167 445 252 445 c 0
 315 445 365 426 403 384 c 1
 387 362 l 1
EndSplineSet
EndChar

StartChar: u1D6DD
Encoding: 120541 120541 105
Width: 618
Flags: W
TopAccentHorizontal: 242
HStem: -12 38<246.245 329.465> 339 69<243.381 389> 637 44<226.99 312.861>
VStem: 80 116<461.766 604.941> 95 108<69.4219 230.506> 389 112<155.353 335 408 516.931> 528 68<269 331.244>
LayerCount: 2
Fore
SplineSet
240 432 m 0xf6
 263 413 308 408 389 408 c 1
 388 576 307 637 268 637 c 0
 229 637 196 589 196 525 c 0
 196 492 214 453 240 432 c 0xf6
528 269 m 1
 528 311 519 329 501 335 c 1
 500 144 452 -12 276 -12 c 0
 187 -12 95 27 95 142 c 0
 95 208 95 232 81 232 c 0
 78 232 38 218 38 218 c 1
 28 247 l 1
 49 255 l 1
 47 255 l 1
 67 266 105 287 150 287 c 0
 203 287 203 234 203 151 c 0xee
 203 68 254 26 286 26 c 0
 378 26 389 213 389 339 c 1
 190 345 80 415 80 555 c 0
 80 620 153 681 241 681 c 0
 418 681 500 538 501 407 c 1
 529 405 548 399 562 390 c 1
 562 391 l 1
 586 374 596 333 596 269 c 1
 528 269 l 1
EndSplineSet
EndChar

StartChar: u1D6DE
Encoding: 120542 120542 106
Width: 532
Flags: W
TopAccentHorizontal: 266
HStem: -12 80<389.766 443.187> 331 80<88.5909 142.62>
VStem: 54 137<-7.4213 63.8865> 146 77<195.079 330.359> 310 77<68.6409 195.646> 341 138<329.084 401.421>
LayerCount: 2
Fore
SplineSet
146 274 m 0xd0
 146 312 141 331 131 331 c 0
 115 331 94 317 66 289 c 2
 49 272 l 1
 31 289 l 1
 12 308 l 2
 12 307 11 306 11 306 c 1
 10 308 l 1
 11 310 l 1
 12 308 l 1
 48 372 88 411 136 411 c 0
 196 411 223 363 223 274 c 0
 223 253 221 226 216 194 c 1
 230 210 245 228 262 249 c 0
 308 306 336 351 341 375 c 0
 347 400 372 411 414 411 c 0
 457 411 479 396 479 369 c 0xd4
 479 345 450 314 395 275 c 1
 403 278 l 1
 392 216 387 165 387 125 c 0
 387 86 392 68 401 68 c 0
 417 68 438 82 466 110 c 2
 483 127 l 1
 501 110 l 1
 520 91 l 1
 484 26 443 -12 396 -12 c 0
 336 -12 310 36 310 125 c 0
 310 144 311 168 314 197 c 1
 301 182 287 165 271 145 c 0
 225 88 196 43 191 20 c 0
 185 -6 160 -17 119 -17 c 0
 75 -17 54 -2 54 25 c 0xe8
 54 50 81 79 133 115 c 1
 124 112 l 1
 138 175 146 229 146 274 c 0xd0
520 91 m 2
 521 91 521 92 521 93 c 2
 522 91 l 1
 521 89 l 1
 520 91 l 2
EndSplineSet
EndChar

StartChar: u1D6DF
Encoding: 120543 120543 107
Width: 646
Flags: W
TopAccentHorizontal: 323
HStem: -237 21G<279.647 333.579> -8 35<230.897 271> 410 35<392.526 454.348>
VStem: 41 116<122.584 310.938> 271 100<-199 -5.74655 30 376.768> 499 115<137.648 331.228>
LayerCount: 2
Fore
SplineSet
499 224 m 0
 499 358 461 410 414 410 c 0
 390 410 371 358 371 248 c 2
 371 30 l 1
 444 53 499 135 499 224 c 0
292 -237 m 1
 271 -203 l 1
 271 -8 l 1
 122 8 41 93 41 229 c 0
 41 343 161 419 216 446 c 1
 245 414 l 1
 211 387 157 343 157 220 c 0
 157 127 191 47 271 27 c 1
 271 261 l 2
 271 331 279 372 323 416 c 0
 345 438 381 445 415 445 c 0
 540 445 614 341 614 239 c 0
 614 60 453 5 371 -7 c 1
 371 -199 l 1
 292 -237 l 1
EndSplineSet
EndChar

StartChar: u1D6E0
Encoding: 120544 120544 108
Width: 488
Flags: W
TopAccentHorizontal: 244
HStem: -194 75<174.875 337.657> -12 41<185.009 286.653> 401 44<190.504 287.426>
VStem: 27 111<16.6585 307.766> 346 116<104.666 317.8>
LayerCount: 2
Fore
SplineSet
235 29 m 0
 278 29 346 75 346 215 c 0
 346 286 315 401 238 401 c 0
 198 401 138 354 138 201 c 0
 138 60 196 29 235 29 c 0
462 210 m 0
 462 75 376 -12 237 -12 c 0
 188 -12 146 1 111 26 c 1
 126 -78 159 -119 275 -119 c 0
 389 -119 413 -188 420 -229 c 1
 361 -249 l 1
 353 -228 333 -194 266 -194 c 0
 80 -194 27 -110 27 164 c 0
 27 373 127 445 235 445 c 0
 375 445 462 348 462 210 c 0
EndSplineSet
EndChar

StartChar: u1D6E1
Encoding: 120545 120545 109
Width: 789
VWidth: 999
Flags: W
TopAccentHorizontal: 394
HStem: -12 43<225.72 333.019 482.839 578.027> 374 68<70.7273 712>
VStem: 17 20<294 318.216> 77 109<78.2937 267.532> 352 113<141.514 297.845> 626 114<94.3094 291.674>
LayerCount: 2
Fore
SplineSet
740 207 m 0
 740 79 675 -12 539 -12 c 0
 490 -12 442 4 410 52 c 1
 380 9 334 -12 272 -12 c 0
 172 -12 77 33 77 179 c 0
 77 244.5 114.1 313.6 177.8 374 c 1
 125 374 l 2
 68 374 50 330 37 294 c 1
 17 294 l 1
 35 383 49 442 142 442 c 2
 267.1 442 l 1
 274.9 446.8 282.8 451.5 291 456 c 1
 299.9 442 l 1
 517.6 442 l 1
 526 453 l 1
 531.6 450.4 539.4 446.7 548.7 442 c 1
 712 442 l 1
 712 374 l 1
 652 374 l 1
 698.9 333.2 740 277.5 740 207 c 0
554.2 374 m 1
 256.1 374 l 1
 221.5 333.1 186 269.1 186 186 c 0
 186 65 228 31 289 31 c 0
 327 31 352 65 372 133 c 1
 355 181 352 229 352 247 c 0
 352 279 368 308 408 308 c 0
 449 308 465 286 465 253 c 0
 465 230 461 188 441 134 c 1
 460 73 487 31 526 31 c 0
 602 31 626 120 626 214 c 0
 626 251.8 613 308.5 554.2 374 c 1
EndSplineSet
EndChar

StartChar: u1D7CA
Encoding: 120778 120778 110
Width: 533
Flags: W
ItalicCorrection: 28
TopAccentHorizontal: 320
HStem: 1 34<26 89.4313 213.764 286> 329 52<213 370.767> 596 50<213 426.937> 611 36<26 89.3474>
VStem: 90 123<35.0088 329 381 595.225> 372 68<231 328.982> 469 72<449 526.648>
LayerCount: 2
Fore
SplineSet
527 646 m 1xee
 541 449 l 1
 469 449 l 1
 461 492 431 596 404 596 c 2
 213 596 l 1xee
 213 381 l 1
 349 381 l 2
 370 381 420 378 440 376 c 1
 440 231 l 1
 372 231 l 1
 372 296 l 2
 372 323 364 329 349 329 c 2
 213 329 l 1
 213 74 l 2
 213 42 215 35 228 35 c 2
 257 35 l 2
 270 35 287 34 287 24 c 2
 287 5 l 1
 286 -1 l 1
 286 -1 191 1 145 1 c 0
 104 1 26 -1 26 -1 c 1
 17 8 l 1
 17 24 l 2
 17 31 28 35 46 35 c 2
 76 35 l 2
 90 35 90 47 90 74 c 2
 90 572 l 2
 90 604 88 611 76 611 c 2
 46 611 l 2
 28 611 17 615 17 622 c 2
 17 637 l 1
 26 647 l 1xde
 143 646 l 1
 527 646 l 1xee
EndSplineSet
EndChar

StartChar: u1D7CB
Encoding: 120779 120779 111
Width: 469
Flags: W
TopAccentHorizontal: 234
HStem: -214 21G<97.5 118> 110 74<137.039 316.47> 354 84<159.23 354.108> 354 76<228.123 387.39>
VStem: 46 77<-63.5431 99.209> 47 69<167 306.088>
LayerCount: 2
Fore
SplineSet
430 448 m 1xd4
 440 443 l 1
 422 388 392 354 322 354 c 2
 231 354 l 1
 121 356 118 261 116 167 c 1xe4
 132 177 153 184 179 184 c 2
 280 184 l 2
 292 184 309 195 326 216 c 1
 368 198 l 1
 355 144 314 104 251 104 c 0
 236 104 221 106 209 107 c 0
 196 109 181 110 171 110 c 0
 137 110 123 69 123 27 c 0
 123 1 132 -24 141 -52 c 0
 153 -87 167 -124 167 -153 c 0
 167 -176 162 -189 147 -203 c 1
 141 -210 129 -214 107 -214 c 0
 88 -214 73 -211 67 -205 c 0
 46 -185 46 -159 46 -142 c 2xe8
 47 214 l 2
 48 316 89 438 227 438 c 0xe4
 251 438 272 436 294 434 c 0
 315 432 336 430 355 430 c 0
 369 430 383 439 397 467 c 1
 430 448 l 1xd4
EndSplineSet
EndChar

StartChar: u1D7CE
Encoding: 120782 120782 112
Width: 490
Flags: W
HStem: -10 43<207.925 279.565> 566 44<207.482 283.191>
VStem: 40 118<157.525 438.745> 333 117<154.597 448.204>
LayerCount: 2
Fore
SplineSet
247 566 m 0
 213 566 158 525 158 284 c 0
 158 200 175 33 244 33 c 0
 256 33 291 44 310 122 c 1
 323 171 333 231 333 323 c 0
 333 457 304 528 277 551 c 0
 267 560 255 566 247 566 c 0
243 -10 m 0
 122 -10 40 131 40 294 c 0
 40 491 140 610 247 610 c 0
 298 610 352 577 384 539 c 1
 428 478 450 398 450 304 c 0
 450 69 326 -10 243 -10 c 0
EndSplineSet
AlternateSubs2: "'ssty' Script Style in Mathematical Alphanumeric Symbols lookup 0-1" u1D7CE.ssty
EndChar

StartChar: u1D7CF
Encoding: 120783 120783 113
Width: 490
Flags: W
HStem: -2 34<102.77 190.845 326.501 400.23> 444 21G<70.0909 103.5>
VStem: 207 110<46.0723 482.998>
LayerCount: 2
Fore
SplineSet
207 81 m 2
 207 430 l 2
 207.1 480 201 483 190 483 c 0
 178 483 126 467 81 444 c 1
 63 477 l 1
 136 512 214 565 265 593 c 0
 284 604 299 610 307 610 c 0
 314 610 320 606 320 593 c 2
 320 593 317 530 317 477 c 2
 317 81 l 2
 316.9 34 348 36 397 32 c 1
 403 26 403 4 397 -2 c 1
 365 -1 302.4 0 263 0 c 0
 217 0 138 -1 106 -2 c 1
 100 4 100 26 106 32 c 1
 149 35 207 35 207 81 c 2
EndSplineSet
AlternateSubs2: "'ssty' Script Style in Mathematical Alphanumeric Symbols lookup 0-1" u1D7CF.ssty
EndChar

StartChar: u1D7D0
Encoding: 120784 120784 114
Width: 490
Flags: W
HStem: 0 79<154 361.39> 570 40<167.661 269.828>
VStem: 51 97<79 87.375 429.277 510.487> 51 90<446.757 529.309> 306 119<379.79 535.222> 386 43<106.6 156.465>
LayerCount: 2
Fore
SplineSet
51 465 m 0xe0
 51 526 116 610 235 610 c 0
 324 610 425 578 425 455 c 0xe8
 425 380 362 316 277 233 c 0
 240 196 154 128 154 79 c 1
 316 79 l 2
 354 79 368 96 386 164 c 1
 429 155 l 1xc4
 417 102 411 42 407 0 c 1
 50 0 l 1
 50 59 70 104 169 210 c 1
 241 286 l 2
 292 341 306 385 306 451 c 0
 306 543 255 570 228 570 c 0
 175 570 141 534 141 511 c 0xd8
 141 500 142 492 145 485 c 0
 148 477 148 469 148 464 c 0
 148 433 121 422 100 422 c 0
 73 422 51 441 51 465 c 0xe0
EndSplineSet
AlternateSubs2: "'ssty' Script Style in Mathematical Alphanumeric Symbols lookup 0-1" u1D7D0.ssty
EndChar

StartChar: u1D7D1
Encoding: 120785 120785 115
Width: 490
Flags: W
HStem: -11 41<160.981 259.712> 305 40<154.95 206.92> 440 21G<76 117.5> 570 40<170.716 273.517>
VStem: 54 90<446.622 534.023> 296 103<436.812 549.429> 315 116<106.537 277.13>
LayerCount: 2
Fore
SplineSet
234 570 m 0xfc
 203.9 570 144 556 144 495 c 0
 144 475 138 440 97 440 c 0
 55 440 54 474 54 477 c 0
 54 511 95 610 253 610 c 0
 367 610 399 543 399 500 c 0xfc
 399 476 379 402 290 364 c 1
 354 357 431 303 431 204 c 0
 431 64 323 -11 197 -11 c 0
 131 -11 43 16 43 58 c 0
 43 75 65 95 95 95 c 0
 126 95 136 84 145 69 c 0
 155 52 177 30 210 30 c 0
 237 30 315 61 315 190 c 0xfa
 315 299 253 315 208 315 c 0
 201 315 183 311 156 305 c 1
 150 345 l 1
 267 372 296 437 296 484 c 0
 296 541 263 570 234 570 c 0xfc
EndSplineSet
AlternateSubs2: "'ssty' Script Style in Mathematical Alphanumeric Symbols lookup 0-1" u1D7D1.ssty
EndChar

StartChar: u1D7D2
Encoding: 120786 120786 116
Width: 490
VWidth: 487
Flags: W
HStem: -2 34<186.77 259.892 381.03 447.23> 169 50<90 271 374 478.453>
VStem: 271 103<41.5879 169 219 493.017>
LayerCount: 2
Fore
SplineSet
271 493 m 1
 202 398.8 141.3 301.2 90 219 c 1
 271 219 l 1
 271 493 l 1
467 219 m 2
 478 219 482 213 482 203 c 0
 482 191 467 169 453 169 c 2
 374 169 l 1
 374 81 l 2
 374 34 395 36 444 32 c 1
 450 26 450 4 444 -2 c 1
 412 -1 347.4 0 308 0 c 0
 262 0 222 -1 190 -2 c 1
 184 4 184 26 190 32 c 1
 233 35 271 35 271 81 c 2
 271 169 l 1
 67 169 l 2
 37 169 31 199 28 214 c 1
 119.5 357 236 521.5 299 599 c 0
 302.7 603.5 308 610 315 610 c 2
 374 610 l 1
 376 608 l 1
 374.3 600.2 374 561 374 511 c 2
 374 219 l 1
 467 219 l 2
EndSplineSet
AlternateSubs2: "'ssty' Script Style in Mathematical Alphanumeric Symbols lookup 0-1" u1D7D2.ssty
EndChar

StartChar: u1D7D3
Encoding: 120787 120787 117
Width: 490
Flags: W
HStem: -13 44<163.658 259.663> 344 57<145.439 267.871> 526 75<157.417 397.388>
VStem: 316 115<113.894 288.439>
LayerCount: 2
Fore
SplineSet
316 186 m 0
 316 285 269 344 219 344 c 0
 177 344 144 336 83 310 c 1
 118 607 l 1
 166 603 207 601 242 601 c 0
 292 601 337 604 398 611 c 1
 417 601 l 1
 402 532 l 1
 351 528 321 526 291 526 c 0
 255 526 187 528 160 531 c 1
 155 480 150 445 144 393 c 1
 163 397 218 401 244 401 c 0
 365 401 431 307 431 208 c 0
 431 90 339 -13 211 -13 c 0
 145 -13 46 22 46 65 c 0
 46 87 64 107 94 107 c 0
 125 107 141 89 151 69 c 0
 164 45 191 31 207 31 c 0
 259 31 316 89 316 186 c 0
EndSplineSet
AlternateSubs2: "'ssty' Script Style in Mathematical Alphanumeric Symbols lookup 0-1" u1D7D3.ssty
EndChar

StartChar: u1D7D4
Encoding: 120788 120788 118
Width: 490
Flags: W
HStem: -10 38<210.287 295.504> 319 42<174.993 284.066> 579 33<329.938 415.848>
VStem: 40 113<114.614 296.134> 330 113<87.8768 268.712>
LayerCount: 2
Fore
SplineSet
154 280 m 1
 153 269 153 251 153 240 c 0
 153 68 215 28 257 28 c 0
 293 28 330 67 330 174 c 0
 330 221 312 319 233 319 c 0
 218 319 190 317 154 280 c 1
419 579 m 1
 371 576 310 572 241 502 c 0
 206 466 177 410 163 340 c 1
 191 353 224 361 252 361 c 0
 421 361 443 231 443 182 c 0
 443 109 404 -10 248 -10 c 0
 164 -10 40 32 40 243 c 0
 40 338 73 431 146 508 c 0
 212 577 291 605 415 612 c 1
 419 579 l 1
EndSplineSet
AlternateSubs2: "'ssty' Script Style in Mathematical Alphanumeric Symbols lookup 0-1" u1D7D4.ssty
EndChar

StartChar: u1D7D5
Encoding: 120789 120789 119
Width: 490
Flags: W
HStem: -13 21G<117 216> 444 21G<55 102> 517 77<112.287 352>
VStem: 55 39<450.564 497.42>
LayerCount: 2
Fore
SplineSet
128 594 m 2
 437 594 l 1
 441 586 l 1
 334 317 271 167 216 -2 c 1
 122 -13 l 1
 117 0 l 1
 185 151 299 385 352 517 c 1
 159 517 l 2
 127 517 110 513 94 444 c 1
 55 452 l 1
 71 521 79 555 81 600 c 1
 89 600 l 1
 97 594 121 594 128 594 c 2
EndSplineSet
AlternateSubs2: "'ssty' Script Style in Mathematical Alphanumeric Symbols lookup 0-1" u1D7D5.ssty
EndChar

StartChar: u1D7D6
Encoding: 120790 120790 120
Width: 490
VWidth: 487
Flags: MW
HStem: -11 39<185 304> 575 35<199 297>
VStem: 46 102<67 215> 69 107<428 543> 317 102<428 551> 338 106<89 215>
DStem2: 235 393 164 326 0.834021 -0.551733<-75.0204 -4.6253 29.4286 41.1468 77.7619 188.249>
LayerCount: 2
Fore
SplineSet
247 575 m 0xd8
 194 575 176 537 176 491 c 0
 176 460 194 420 235 393 c 2
 264 374 l 1
 291 394 317 426 317 480 c 0
 317 526 305 575 247 575 c 0xd8
419 489 m 0
 419 425 343 380 300 350 c 1
 359 310 l 2
 409 276 444 219 444 161 c 0
 444 85 368 -11 238 -11 c 0
 132 -11 46 44 46 146 c 0xe4
 46 222 107 258 182 316 c 1
 164 326 l 1
 105 364 69 416 69 472 c 0
 69 549 129 610 252 610 c 0
 361 610 419 561 419 489 c 0
240 28 m 0
 284 28 338 46 338 141 c 0
 338 188 321 226 261 264 c 2
 216 292 l 1
 150 242 148 176 148 146 c 0
 148 58 196 28 240 28 c 0
EndSplineSet
AlternateSubs2: "'ssty' Script Style in Mathematical Alphanumeric Symbols lookup 0-1" u1D7D6.ssty
EndChar

StartChar: u1D7D7
Encoding: 120791 120791 121
Width: 490
VWidth: 487
Flags: W
HStem: -12 33<70.6515 156.562> 239 42<202.434 311.507> 572 38<190.996 276.213>
VStem: 43.5 113<331.288 512.123> 333.5 113<303.866 485.386>
LayerCount: 2
Fore
SplineSet
332.5 320 m 1
 333.5 331 333.5 349 333.5 360 c 0
 333.5 532 271.5 572 229.5 572 c 0
 193.5 572 156.5 533 156.5 426 c 0
 156.5 379 174.5 281 253.5 281 c 0
 268.5 281 296.5 283 332.5 320 c 1
67.5 21 m 1
 115.5 24 176.5 28 245.5 98 c 0
 280.5 134 309.5 190 323.5 260 c 1
 295.5 247 262.5 239 234.5 239 c 0
 65.5 239 43.5 369 43.5 418 c 0
 43.5 491 82.5 610 238.5 610 c 0
 322.5 610 446.5 568 446.5 357 c 0
 446.5 262 413.5 169 340.5 92 c 0
 274.5 23 195.5 -5 71.5 -12 c 1
 67.5 21 l 1
EndSplineSet
EndChar

StartChar: u1D41A.ssty
Encoding: 1114125 -1 122
Width: 564
VWidth: 1208
Flags: W
HStem: -10 72<395.5 500.583> -10 65<186.185 274.389> 469 51<180.65 307.931>
VStem: 51 122<67.7461 187.895> 60 114<360.591 436.551> 334 126<100.155 262 317 418.551>
LayerCount: 2
Fore
SplineSet
334 262 m 1x74
 193 222 173 167 173 129 c 0
 173 89 186 55 235 55 c 0
 275 55 283 73 334 119 c 1
 334 262 l 1x74
425 -10 m 0xac
 366 -10 342 30 336 64 c 1
 271 7 260 -10 197 -10 c 0
 117 -10 51 41 51 123 c 0x74
 51 203 127 258 247 288 c 1
 334 317 l 1
 334 458 298 469 254 469 c 0
 191 469 174 452 174 422 c 0
 174 409 176 401 178 397 c 0
 182 393 184 384 184 374 c 0
 184 359 157 334 121 334 c 0
 93 334 60 354 60 382 c 0
 60 458 178 520 258 520 c 0
 351 520 460 483 460 304 c 2
 460 171 l 2
 460 93 469 62 486 62 c 0
 494 62 503 66 509 70 c 1
 528 32 l 1
 496 4 461 -10 425 -10 c 0xac
EndSplineSet
EndChar

StartChar: u1D41B.ssty
Encoding: 1114126 -1 123
Width: 564
VWidth: 1052
Flags: W
HStem: -10 59<237.57 357.481> 440 68<251.472 410.908> 621 51<0.45098 51.3863>
VStem: 81 123<83.9035 414.996 461 628.295> 404 135<152.1 375.576>
LayerCount: 2
Fore
SplineSet
81 579 m 2
 81 609 79 629 52 629 c 0
 39 629 20 627 1 621 c 1
 -3 672 l 1
 58 680 118 691 164 714 c 1
 204 714 l 1
 204 461 l 1
 252 491 301 508 350 508 c 0
 468 508 539 391 539 262 c 0
 539 121 436 -10 312 -10 c 0
 255 -10 188 9 158 36 c 1
 147 21 113 3 102 -10 c 1
 77 -2 l 1
 81 26 81 48 81 97 c 2
 81 579 l 2
204 399 m 1
 204 173 l 2
 204 74 253 49 295 49 c 0
 339 49 404 62 404 239 c 0
 404 378 360 440 303 440 c 0
 254 440 244 429 204 399 c 1
EndSplineSet
EndChar

StartChar: u1D41C.ssty
Encoding: 1114127 -1 124
Width: 629
VWidth: 467
Flags: W
HStem: -10 70<279.86 415.572> 460 61<279.715 404.036>
VStem: 79 135<136.498 361.361> 425 103<341.215 439.359>
LayerCount: 2
Fore
SplineSet
326 521 m 0
 444 521 528 458 528 393 c 0
 528 355 505 328 478 328 c 0
 453 328 429 352 425 382 c 0
 419 424 411 460 337 460 c 0
 278 460 214 406 214 252 c 0
 214 85 305 60 343 60 c 0
 415 60 453 100 489 142 c 1
 528 102 l 1
 479 36 402 -10 316 -10 c 0
 154 -10 79 106 79 245 c 0
 79 384 163 521 326 521 c 0
EndSplineSet
EndChar

StartChar: u1D41D.ssty
Encoding: 1114128 -1 125
Width: 630
VWidth: 1052
Flags: W
HStem: -10 21G<387 455> -2 57<229.368 337.676> 32 51<541.612 592.549> 452 57<220.037 337.479> 621 51<306.451 357.479>
VStem: 43 135<127.176 355.958> 387 125<92.2076 401.405 469 628.481>
LayerCount: 2
Fore
SplineSet
387 114 m 1x5e
 387 376 l 1
 357 412 329 452 280 452 c 0
 215 452 178 409 178 268 c 0
 178 97 224 55 290 55 c 0
 330 55 349 74 387 114 c 1x5e
387 53 m 1
 353 23 304 -2 260 -2 c 0x5e
 133 -2 43 93 43 239 c 0
 43 361 114 509 260 509 c 0
 309 509 359 496 387 469 c 1
 387 579 l 2
 387 609 386 629 358 629 c 0
 347 629 328 627 307 621 c 1
 303 672 l 1
 366 680 407 691 453 714 c 1
 512 714 l 1
 512 125 l 2
 512 97 514 76 541 76 c 0
 554 76 571 77 592 83 c 1
 596 32 l 1
 533 24 478 15 432 -10 c 1
 387 -10 l 1xbe
 387 53 l 1
EndSplineSet
EndChar

StartChar: u1D41E.ssty
Encoding: 1114129 -1 126
Width: 582
VWidth: 1210
Flags: W
HStem: -8 68<237.598 384.813> 285 62<176 355> 463 57<223.36 333.586>
VStem: 32 137<138.445 285>
LayerCount: 2
Fore
SplineSet
298 60 m 0
 370 60 425 100 463 142 c 1
 501 102 l 1
 452 36 383 -8 288 -8 c 0
 108 -8 32 106 32 245 c 0
 32 386 123 520 279 520 c 0
 458 520 491 403 497 285 c 1
 169 285 l 1
 169 277 169 258 169 254 c 0
 169 85 260 60 298 60 c 0
355 347 m 1
 355 448 323 463 277 463 c 0
 218 463 184 402 176 347 c 1
 355 347 l 1
EndSplineSet
EndChar

StartChar: u1D41F.ssty
Encoding: 1114130 -1 127
Width: 630
VWidth: 1208
Flags: W
HStem: 2 53<85 158.995 295.005 387> 382 65<79.0794 164 290 429> 566 21G<480.5 505.5> 657 57<322.919 420.467>
VStem: 164 126<59.8667 382 447 565.5> 436 105<577.845 642.999>
LayerCount: 2
Fore
SplineSet
164 106 m 2
 164 382 l 1
 83 382 l 2
 79 382 79 383 79 387 c 2
 79 423 l 2
 79 433 83 447 104 447 c 2
 164 447 l 1
 164 629 282 714 381 714 c 0
 427 714 469 711 501 688 c 0
 526 669 541 634 541 613 c 0
 541 586 518 566 493 566 c 0
 468 566 447 581 436 604 c 1
 419 646 408 657 374 657 c 0
 334 657 290 645 290 465 c 2
 290 447 l 1
 419 447 l 2
 425 447 429 444 429 440 c 2
 429 397 l 2
 429 386 411 382 400 382 c 2
 290 382 l 1
 290 106 l 2
 290 74 301 55 339 55 c 2
 379 55 l 2
 383 55 389 53 389 45 c 2
 389 4 l 1
 387 2 l 1
 387 2 266 4 220 4 c 0
 178 4 85 2 85 2 c 1
 83 4 l 1
 83 45 l 2
 83 53 86 55 92 55 c 2
 115 55 l 2
 153 55 164 74 164 106 c 2
EndSplineSet
EndChar

StartChar: u1D420.ssty
Encoding: 1114131 -1 128
Width: 632
VWidth: 1208
Flags: W
HStem: -253 66<194.524 406.951> -14 92<239.288 410.697> 169 51<233.189 359.369> 469 51<222.255 350.803> 488 61<439.252 532.5>
VStem: 55 105<-155.342 -57.3876> 85 118<273.675 423.011> 91 91<75.5952 166.18> 380 122<263.344 416.15> 481 95<-136.274 -63.5051>
LayerCount: 2
Fore
SplineSet
538 444 m 0xea
 519 444 506 458 500 471 c 0
 494 482 481 488 464 488 c 0
 449 488 441 474 437 463 c 1
 473 435 502 397 502 342 c 0
 502 228 391 169 294 169 c 0
 254 169 223 175 198 188 c 1
 190 175 182 154 182 127 c 0xe980
 182 78 207 68 239 68 c 0
 245 68 260 70 277 72 c 0
 302 74 332 78 351 78 c 0
 393 78 478 70 526 28 c 0
 558 0 576 -29 576 -67 c 0
 576 -194 401 -253 249 -253 c 0
 163 -253 55 -227 55 -124 c 0xec40
 55 -75 91 -25 152 13 c 1
 122 26 91 56 91 98 c 0xe9
 91 159 154 220 154 220 c 1
 122 250 85 287 85 346 c 0
 85 454 195 520 294 520 c 0xf2
 347 520 384 503 403 492 c 1
 433 526 459 549 507 549 c 0
 558 549 587 521 587 494 c 0
 587 467 563 444 538 444 c 0xea
192 4 m 1
 164 -21 160 -61 160 -101 c 0
 160 -175 241 -187 281 -187 c 0
 382 -187 481 -181 481 -97 c 0xe440
 481 -61 392 -14 312 -14 c 0
 263 -14 215 -4 192 4 c 1
380 338 m 0xf280
 380 433 355 469 285 469 c 0
 222 469 203 448 203 357 c 0
 203 296 205 220 300 220 c 0
 340 220 380 220 380 338 c 0xf280
EndSplineSet
EndChar

StartChar: u1D421.ssty
Encoding: 1114132 -1 129
Width: 582
VWidth: 1052
Flags: W
TeX: 108 0
HStem: 2 43<33 101.585 201.456 275 330 404.513 503.966 571> 444 65<286.986 374.545> 630 42<23.3333 74.3863>
VStem: 104 93<48.6994 383.183 412 637.265> 408 93<48.5938 406.327>
LayerCount: 2
Fore
SplineSet
20 672 m 1
 81 680 122 691 170 714 c 1
 197 714 l 1
 197 412 l 1
 224 442 290 509 358 509 c 0
 444 509 501 461 501 334 c 2
 501 97 l 2
 501 49 512 47 550 45 c 1
 562 45 l 2
 570 45 571 40 571 36 c 2
 571 2 l 1
 571 2 499 4 453 4 c 0
 405 4 330 2 330 2 c 1
 330 36 l 2
 330 40 331 45 339 45 c 2
 360 45 l 1
 396 47 408 51 408 97 c 2
 408 315 l 2
 408 412 370 444 313 444 c 0
 273 444 233 403 197 359 c 1
 197 97 l 2
 197 55 212 45 244 45 c 2
 265 45 l 2
 269 45 275 44 275 36 c 2
 275 2 l 1
 275 2 198 4 149 4 c 0
 103 4 33 2 33 2 c 1
 33 36 l 2
 33 40 33 45 41 45 c 2
 56 45 l 1
 102 47 104 57 104 97 c 2
 104 589 l 2
 104 617 102 638 75 638 c 0
 62 638 43 636 24 630 c 1
 20 672 l 1
EndSplineSet
Comment: "Anfang{Spacing modifying letters}" 
Colour: ff00ff
EndChar

StartChar: u1D422.ssty
Encoding: 1114133 -1 130
Width: 414
VWidth: 1210
Flags: W
HStem: -10 61<57 147.677 304.366 395> 309 63<56.1111 128.699> 490 125<149.474 281.279>
VStem: 127 177<512.094 595.615> 148 156<51 333.986>
LayerCount: 2
Fore
SplineSet
216 615 m 0xf0
 279 615 304 581 304 553 c 0
 304 519 265 490 216 490 c 0
 165 490 127 519 127 553 c 0
 127 587 157 615 216 615 c 0xf0
304 87 m 2xe8
 304 51 309 51 319 51 c 2
 353 51 l 2
 372 51 395 43 395 30 c 2
 395 -10 l 1
 224 -6 l 1
 178 -8 101 -10 57 -10 c 1
 57 30 l 2
 57 43 62 51 98 51 c 2
 133 51 l 2
 146 51 148 59 148 87 c 2
 148 292 l 2
 148 315 148 334 152 334 c 1
 133 334 99 324 57 309 c 1
 49 372 l 1
 133 387 186 402 235 423 c 1
 304 423 l 1
 304 87 l 2xe8
EndSplineSet
EndChar

StartChar: u1D423.ssty
Encoding: 1114134 -1 131
Width: 392
VWidth: 1118
Flags: W
TeX: 108 0
HStem: -190 36<91.2859 147.829> 435 38<86.0789 152.922> 606 108<173.149 264.423>
VStem: 0 91<-153.719 -93.6497> 162 114<618.513 703.717> 182 94<-79.1276 447.166>
LayerCount: 2
Fore
SplineSet
218 714 m 0xf8
 260 714 276 686 276 659 c 0
 276 631 250 606 218 606 c 0
 186 606 162 631 162 659 c 0
 162 689 182 714 218 714 c 0xf8
182 89 m 2xf4
 182 397 l 2
 182 424 175 448 154 448 c 0
 131 448 108 443 87 435 c 1
 82 473 l 1
 158 488 201 499 249 520 c 1
 276 520 l 1
 276 127 l 2
 276 -35 266 -86 215 -143 c 0
 185 -177 146 -190 116 -190 c 0
 65 -190 0 -166 0 -128 c 0
 0 -98 17 -80 40 -80 c 0
 68 -80 83 -108 91 -135 c 0
 93 -146 100 -154 110 -154 c 0
 165 -154 182 -88 182 89 c 2xf4
EndSplineSet
Colour: ff00ff
EndChar

StartChar: u1D424.ssty
Encoding: 1114135 -1 132
Width: 629
VWidth: 1052
Flags: W
HStem: 2 53<39 108.535 236.098 294 520.909 604> 458 51<353 394.984 481.234 581> 621 51<29.451 80.4785>
VStem: 110 125<57.9053 241 295 628.481>
LayerCount: 2
Fore
SplineSet
235 241 m 1
 235 104 l 2
 235 62 237 55 269 55 c 2
 284 55 l 2
 288 55 294 53 294 45 c 2
 294 2 l 1
 294 2 210 4 155 4 c 0
 109 4 39 2 39 2 c 1
 39 45 l 2
 39 49 39 55 49 55 c 2
 62 55 l 1
 110 57 110 66 110 104 c 2
 110 579 l 2
 110 609 109 629 81 629 c 0
 70 629 51 627 30 621 c 1
 26 672 l 1
 89 680 149 691 195 714 c 1
 235 714 l 1
 235 295 l 1
 277 313 310 336 366 399 c 0
 381 416 395 431 395 439 c 0
 395 454 373 458 358 458 c 0
 352 458 349 461 349 465 c 2
 349 507 l 1
 353 509 l 1
 353 509 417 507 459 507 c 0
 505 507 581 509 581 509 c 1
 585 507 l 1
 585 465 l 2
 585 459 577 458 573 458 c 0
 527 458 474 445 434 399 c 2
 362 319 l 2
 358 315 358 310 358 306 c 0
 358 300 360 294 364 290 c 2
 484 114 l 2
 497 95 529 55 592 55 c 0
 600 55 607 51 607 45 c 2
 607 5 l 1
 604 2 l 1
 604 2 524 4 478 4 c 0
 436 4 396 2 396 2 c 1
 393 5 l 1
 393 45 l 2
 393 47 379 68 366 87 c 2
 290 199 l 2
 275 221 260 240 235 241 c 1
EndSplineSet
EndChar

StartChar: u1D425.ssty
Encoding: 1114136 -1 133
Width: 305
VWidth: 1052
Flags: W
HStem: 2 43<33 101.585 201.456 275> 630 42<23.3333 74.3863>
VStem: 104 93<48.6994 637.265>
LayerCount: 2
Fore
SplineSet
197 714 m 1
 197 97 l 2
 197 55 212 45 244 45 c 2
 265 45 l 2
 269 45 275 44 275 36 c 2
 275 2 l 1
 275 2 198 4 149 4 c 0
 103 4 33 2 33 2 c 1
 33 36 l 2
 33 40 33 45 41 45 c 2
 56 45 l 1
 102 47 104 57 104 97 c 2
 104 589 l 2
 104 617 102 638 75 638 c 0
 62 638 43 636 24 630 c 1
 20 672 l 1
 81 680 122 691 170 714 c 1
 197 714 l 1
EndSplineSet
Colour: ff00ff
EndChar

StartChar: u1D426.ssty
Encoding: 1114137 -1 134
Width: 920
VWidth: 1052
Flags: W
HStem: 2 53<35 104.535 232.439 296 353 411.435 540.782 592 647 709.964 838.713 888> 418 61<25.541 78.3862> 446 74<307.825 410.156 602.684 685.526>
VStem: 106 125<57.9053 390.428> 413 126<55.799 384.296> 712 125<55.7625 418.328>
LayerCount: 2
Fore
SplineSet
22 479 m 1xdc
 85 487 145 497 191 520 c 1
 218 520 l 1
 218 422 l 1
 245 454 311 520 379 520 c 0
 440 520 494 493 521 432 c 1
 552 466 614 520 676 520 c 0
 762 520 837 463 837 336 c 2
 837 104 l 2
 837 62 843 55 868 55 c 2
 879 55 l 2
 887 55 888 49 888 45 c 2
 888 2 l 1
 888 2 817 4 771 4 c 0
 723 4 647 2 647 2 c 1
 647 45 l 2
 647 49 649 55 657 55 c 2
 678 55 l 2
 703 55 712 60 712 104 c 2
 712 317 l 2
 712 414 687 446 630 446 c 0
 598 446 565 419 535 385 c 1
 538 370 539 354 539 336 c 2
 539 104 l 2
 539 68 543 55 571 55 c 2
 582 55 l 2
 592 55 592 49 592 45 c 2
 592 2 l 1
 592 2 520 4 474 4 c 0
 426 4 353 2 353 2 c 1
 353 45 l 2
 353 49 354 55 360 55 c 2
 381 55 l 2
 408 55 413 62 413 104 c 2
 413 317 l 2
 413 414 375 446 318 446 c 0xbc
 278 446 267 405 231 361 c 1
 231 104 l 2
 231 62 235 55 265 55 c 2
 286 55 l 2
 290 55 296 53 296 45 c 2
 296 2 l 1
 296 2 208 4 151 4 c 0
 105 4 35 2 35 2 c 1
 35 45 l 2
 35 49 37 55 45 55 c 2
 58 55 l 1
 106 57 106 66 106 104 c 2
 106 378 l 2
 106 406 106 425 79 425 c 0
 66 425 47 424 26 418 c 1
 22 479 l 1xdc
EndSplineSet
EndChar

StartChar: u1D427.ssty
Encoding: 1114138 -1 135
Width: 630
VWidth: 1210
Flags: W
HStem: -10 57<28 96.5822 254.109 326.528 327.285 398.302 555.381 623> 431 82<300.192 431.766>
VStem: 97 156<47.0006 357> 399 156<47.0006 411.752>
LayerCount: 2
Fore
SplineSet
289 47 m 2
 302 47 317 46 327 40 c 1
 333 44 344 47 363 47 c 2
 384 47 l 1
 395 49 399 53 399 89 c 2
 399 313 l 2
 399 402 374 431 336 431 c 0
 317 431 279 391 245 351 c 1
 253 357 l 1
 253 89 l 2
 253 55 259 47 270 47 c 2
 289 47 l 2
15 463 m 1
 44 472 l 1
 97 478 134 490 182 513 c 1
 253 513 l 1
 253 467 l 1
 287 492 333 513 382 513 c 0
 485 513 555 465 555 332 c 2
 555 89 l 2
 555 51 557 49 570 47 c 1
 581 47 l 2
 617 47 623 38 623 28 c 2
 623 -10 l 1
 623 -10 521 -6 475 -6 c 0
 435 -6 355 -8 330 -10 c 1
 327 -10 l 1
 321 -10 l 1
 298 -8 217 -6 175 -6 c 0
 129 -6 28 -10 28 -10 c 1
 28 30 l 2
 28 38 32 47 70 47 c 2
 83 47 l 1
 96 49 97 57 97 89 c 2
 97 382 l 2
 97 405 96 418 100 420 c 1
 90 420 65 416 21 406 c 1
 15 463 l 1
EndSplineSet
EndChar

StartChar: u1D428.ssty
Encoding: 1114139 -1 136
Width: 583
VWidth: 1210
Flags: W
HStem: -8 57<244.639 358.948> 463 57<219.757 333.44>
VStem: 32 142<136.317 360.114> 402 145<139.887 365.11>
LayerCount: 2
Fore
SplineSet
288 520 m 0
 495 520 547 352 547 249 c 0
 547 125 466 -8 287 -8 c 0
 108 -8 32 121 32 243 c 0
 32 351 90 520 288 520 c 0
402 212 m 0
 402 362 357 463 277 463 c 0
 220 463 174 426 174 266 c 0
 174 118 230 49 308 49 c 0
 357 49 402 92 402 212 c 0
EndSplineSet
EndChar

StartChar: u1D429.ssty
Encoding: 1114140 -1 137
Width: 624
VWidth: 1052
Flags: W
HStem: -247 53<45 114.304 245.39 319> 2 59<268.787 398.446> 427 51<35.451 86.4785> 440 68<299.615 393.46>
VStem: 116 125<-190.164 40 88.7566 400.754> 439 137<156.481 375.576>
LayerCount: 2
Fore
SplineSet
116 385 m 2xdc
 116 415 115 435 87 435 c 0
 76 435 57 433 36 427 c 1
 32 478 l 1xec
 95 486 136 497 182 520 c 1
 241 520 l 1
 241 511 l 1
 241 452 l 1
 281 480 332 508 389 508 c 0
 497 508 576 391 576 262 c 0
 576 121 471 2 347 2 c 0
 311 2 268 17 241 40 c 1
 241 -143 l 2
 241 -185 258 -194 288 -194 c 2
 309 -194 l 2
 315 -194 319 -196 319 -204 c 2
 319 -247 l 1
 319 -247 210 -245 161 -245 c 0
 115 -245 45 -247 45 -247 c 1
 45 -202 l 2
 45 -198 45 -194 55 -194 c 2
 68 -194 l 1
 116 -192 116 -181 116 -143 c 2
 116 385 l 2xdc
241 174 m 2
 241 75 290 61 330 61 c 0
 374 61 439 62 439 239 c 0
 439 378 398 440 347 440 c 0xdc
 298 440 277 414 241 380 c 1
 241 174 l 2
EndSplineSet
EndChar

StartChar: u1D42A.ssty
Encoding: 1114141 -1 138
Width: 615
VWidth: 1052
Flags: W
HStem: -247 53<321 394.77 526.13 595> 2 59<245.232 357.419> 452 57<237.021 348.527>
VStem: 55 144<130.508 355.958> 399 125<-190.164 53 91.4794 401.405>
LayerCount: 2
Fore
SplineSet
399 114 m 1
 399 376 l 1
 369 412 341 452 292 452 c 0
 229 452 199 409 199 268 c 0
 199 97 244 61 310 61 c 0
 352 61 361 74 399 114 c 1
490 505 m 2
 496 511 509 520 515 520 c 0
 521 520 524 514 524 503 c 2
 524 -143 l 2
 524 -181 526 -192 572 -194 c 1
 587 -194 l 2
 595 -194 595 -198 595 -202 c 2
 595 -247 l 1
 595 -247 492 -245 446 -245 c 0
 397 -245 321 -247 321 -247 c 1
 321 -204 l 2
 321 -196 326 -194 330 -194 c 2
 351 -194 l 2
 383 -194 399 -185 399 -143 c 2
 399 53 l 1
 365 23 323 2 279 2 c 0
 154 2 55 93 55 239 c 0
 55 361 126 509 272 509 c 0
 327 509 396 492 424 460 c 1
 490 505 l 2
EndSplineSet
EndChar

StartChar: u1D42B.ssty
Encoding: 1114142 -1 139
Width: 466
VWidth: 1118
Flags: W
TeX: 108 0
HStem: 4 45<47 138.372 237.844 326> 435 38<44.2632 111.832> 444 76<317.895 397.551>
VStem: 140 95<51.4375 389.795 408 447.384>
LayerCount: 2
Fore
SplineSet
235 336 m 2xb0
 235 97 l 2
 235 51 250 49 282 49 c 2
 316 49 l 2
 320 49 326 46 326 40 c 2
 326 4 l 1
 185 5 l 1
 47 4 l 1
 47 40 l 2
 47 46 48 49 58 49 c 2
 92 49 l 2
 138 49 140 61 140 97 c 2
 140 397 l 2
 140 424 134 448 113 448 c 0
 88 448 68 443 45 435 c 1
 41 473 l 1xd0
 115 488 160 499 206 520 c 1
 235 520 l 1
 231 408 l 1
 235 408 l 1
 267 456 320 520 379 520 c 0
 430 520 450 495 450 461 c 0
 450 429 428 412 394 412 c 0
 371 412 356 420 345 433 c 0
 337 441 328 444 320 444 c 0
 307 444 278 422 248 378 c 0
 240 368 235 351 235 336 c 2xb0
EndSplineSet
Colour: ff00ff
EndChar

StartChar: u1D42C.ssty
Encoding: 1114143 -1 140
Width: 480
VWidth: 497
Flags: W
HStem: -10 48<155.617 300.502> 473 48<181.199 309.016>
VStem: 53 42<104.904 180> 66 92<342.647 445.739> 323 103<63.8404 169.927> 372 44<346 400.371>
LayerCount: 2
Fore
SplineSet
53 180 m 1xe8
 95 180 l 1
 97 153 108 102 138 72 c 0
 151 61 188 38 232 38 c 0
 278 38 323 59 323 110 c 0xe8
 323 150 308 188 213 228 c 0
 126 264 66 294 66 380 c 0
 66 460 152 521 245 521 c 0
 304 521 378 501 399 488 c 1
 416 346 l 1
 372 344 l 1
 345 454 281 473 245 473 c 0
 197 473 158 448 158 397 c 0xd4
 158 351 176 335 241 308 c 0
 338 268 426 231 426 136 c 0
 426 20 300 -10 235 -10 c 0
 178 -10 137 17 99 17 c 0
 93 17 73 15 62 13 c 1
 64 59 59 119 53 180 c 1xe8
EndSplineSet
Colour: ff00ff
EndChar

StartChar: u1D42D.ssty
Encoding: 1114144 -1 141
Width: 432
VWidth: 1208
Flags: W
HStem: -10 74<200.5 328.684> 444 65<28 101.829 242 381> 669 20G<155.333 242>
VStem: 117 125<70.9062 444> 138 104<547.497 665>
LayerCount: 2
Fore
SplineSet
242 444 m 1xf0
 242 173 l 2
 242 101 251 64 283 64 c 0
 313 64 332 75 362 98 c 1
 393 57 l 1
 344 6 281 -10 228 -10 c 0
 173 -10 117 22 117 106 c 2
 117 444 l 1xf0
 34 444 l 2
 30 444 28 444 28 448 c 2
 28 503 l 2
 28 507 28 509 32 509 c 0
 110 509 138 555 138 644 c 2
 138 665 l 1
 242 689 l 1
 242 509 l 1xe8
 372 509 l 2
 378 509 381 505 381 501 c 2
 381 458 l 2
 381 448 365 444 355 444 c 2
 242 444 l 1xf0
EndSplineSet
EndChar

StartChar: u1D42E.ssty
Encoding: 1114145 -1 142
Width: 624
VWidth: 1052
Flags: W
HStem: -10 74<242.242 321.47> 32 51<537.614 590> 458 51<43 108.078 326 397.312>
VStem: 111 107<92.6726 455.015> 402 108<123.77 453.993>
LayerCount: 2
Fore
SplineSet
218 507 m 1xb8
 218 194 l 2
 218 97 242 64 299 64 c 0xb8
 339 64 366 106 402 150 c 1
 402 406 l 2
 402 448 386 458 354 458 c 2
 334 458 l 2
 330 458 324 457 324 465 c 2
 324 507 l 1
 326 509 l 1
 326 509 410 507 465 507 c 0
 482 507 508 509 508 509 c 1
 510 507 l 1
 510 125 l 2
 510 97 510 76 537 76 c 0
 550 76 569 77 590 83 c 1
 592 32 l 1x78
 531 24 490 15 442 -10 c 1
 402 -10 l 1
 402 89 l 1
 375 57 322 -10 254 -10 c 0
 168 -10 111 38 111 165 c 2
 111 406 l 2
 111 454 100 456 64 458 c 1
 50 458 l 2
 42 458 41 461 41 465 c 2
 41 507 l 1
 43 509 l 1
 43 509 113 507 159 507 c 0
 182 507 216 509 216 509 c 1
 218 507 l 1xb8
EndSplineSet
EndChar

StartChar: u1D42F.ssty
Encoding: 1114146 -1 143
Width: 633
VWidth: 512
Flags: W
HStem: -10 21G<298 309.5> 458 51<24 82.628 202.009 258 408 471.986 548.138 609>
LayerCount: 2
Fore
SplineSet
260 15 m 2
 106 389 l 2
 79 455 70 458 32 458 c 0
 26 458 22 457 22 465 c 2
 22 507 l 1
 24 509 l 1
 24 509 117 507 153 507 c 2
 258 509 l 1
 261 507 l 1
 261 465 l 2
 261 459 256 458 250 458 c 2
 231 458 l 2
 214 458 202 458 202 439 c 0
 202 429 204 419 210 406 c 2
 336 116 l 1
 461 401 l 2
 469 418 472 429 472 439 c 0
 472 454 453 458 413 458 c 0
 409 458 406 461 406 465 c 2
 406 507 l 1
 408 509 l 1
 408 509 474 507 514 507 c 0
 550 507 609 509 609 509 c 1
 611 507 l 1
 611 465 l 2
 611 457 604 458 598 458 c 0
 571 458 553 458 526 397 c 2
 360 17 l 2
 352 -4 316 -10 303 -10 c 0
 293 -10 266 2 260 15 c 2
EndSplineSet
EndChar

StartChar: u1D430.ssty
Encoding: 1114147 -1 144
Width: 844
VWidth: 512
Flags: W
TeX: 108 0
HStem: -10 21G<266 278.5 541 552.5> 465 44<24 82.2719 183.925 239 303 357.587 460.103 516 626 698.717 762.321 820>
LayerCount: 2
Fore
SplineSet
240 475 m 2
 240 469 237 465 233 465 c 2
 216 465 l 2
 180 465 176 455 195 406 c 2
 305 116 l 1
 394 361 l 1
 377 404 l 2
 358 453 345 465 311 465 c 0
 305 465 301 467 301 475 c 2
 301 507 l 1
 303 509 l 1
 303 509 376 507 412 507 c 2
 516 509 l 1
 520 507 l 1
 520 475 l 2
 520 469 516 465 510 465 c 0
 461 465 449 461 470 406 c 2
 579 116 l 1
 691 401 l 2
 710 452 697 465 649 465 c 2
 632 465 l 2
 628 465 624 471 624 475 c 2
 624 507 l 1
 626 509 l 1
 626 509 702 507 742 507 c 0
 778 507 820 509 820 509 c 1
 822 507 l 1
 822 475 l 2
 822 467 815 465 809 465 c 0
 782 465 757 450 736 397 c 2
 586 17 l 2
 576 -4 559 -10 546 -10 c 0
 536 -10 528 0 522 15 c 2
 415 296 l 1
 311 17 l 2
 303 -4 286 -10 271 -10 c 0
 261 -10 252 0 246 15 c 2
 102 404 l 2
 81 459 65 465 35 465 c 0
 29 465 22 469 22 475 c 2
 22 507 l 1
 24 509 l 1
 24 509 75 507 121 507 c 0
 170 507 239 509 239 509 c 1
 240 507 l 1
 240 475 l 2
EndSplineSet
Colour: ff00ff
EndChar

StartChar: u1D431.ssty
Encoding: 1114148 -1 145
Width: 630
VWidth: 465
Flags: W
HStem: 9 61<23 120.978 247 296 321 363 527.935 623.29> 444 59<19 114.321 519.369 620.039>
LayerCount: 2
Fore
SplineSet
23 49 m 2
 23 68 60 70 87 70 c 2
 103 70 l 1
 103 70 111 76 122 93 c 1
 122 93 243 241 251 247 c 1
 205 304 156 372 110 429 c 1
 102 442 101 444 97 444 c 2
 86 444 l 2
 42 444 19 452 19 465 c 2
 19 503 l 1
 329 503 l 1
 329 465 l 2
 329 452 313 446 283 444 c 1
 289 421 336 353 336 353 c 1
 382 412 388 427 388 427 c 2
 390 429 393 436 393 444 c 1
 370 446 348 450 348 465 c 2
 348 503 l 1
 621 503 l 1
 621 469 l 1
 617 452 595 444 555 444 c 0
 536 444 519 422 498 399 c 1
 466 357 431 313 399 271 c 1
 439 214 486 146 530 89 c 0
 540 76 548 72 559 70 c 0
 605 68 625 59 625 49 c 2
 625 7 l 1
 589 11 522 15 486 15 c 0
 442 15 363 11 321 9 c 1
 321 49 l 2
 321 62 335 68 363 70 c 1
 363 76 363 79 361 81 c 2
 361 81 318 146 308 161 c 1
 272 117 249 87 247 70 c 1
 281 70 296 62 296 49 c 2
 296 9 l 1
 260 11 195 13 165 13 c 0
 123 13 55 11 23 9 c 1
 23 49 l 2
EndSplineSet
Colour: ff00ff
EndChar

StartChar: u1D432.ssty
Encoding: 1114149 -1 146
Width: 642
VWidth: 482
Flags: W
TeX: 108 0
HStem: -278 78<142.5 213.856> 465 46<32 101.366 214.012 275 418 479.985 559.64 625>
LayerCount: 2
Fore
SplineSet
277 477 m 2
 277 469 270 465 264 465 c 0
 230 465 214 459 214 444 c 0
 214 440 216 430 220 422 c 2
 346 125 l 1
 475 418 l 2
 479 426 480 438 480 444 c 0
 480 463 460 465 433 465 c 2
 427 465 l 2
 421 465 416 471 416 475 c 2
 416 507 l 1
 418 511 l 1
 418 511 497 507 539 507 c 0
 571 507 621 511 621 511 c 1
 625 507 l 1
 625 477 l 2
 625 469 622 465 612 465 c 0
 566 465 543 429 528 395 c 0
 463 262 412 138 317 -92 c 0
 281 -176 238 -278 154 -278 c 0
 131 -278 70 -257 70 -215 c 0
 70 -179 106 -162 125 -162 c 0
 144 -162 155 -169 163 -177 c 0
 173 -190 183 -200 194 -200 c 0
 213 -200 249 -108 279 -36 c 0
 285 -21 287 -11 287 -0 c 0
 287 13 278 43 268 68 c 2
 125 399 l 2
 104 448 94 465 43 465 c 0
 37 465 32 471 32 475 c 2
 32 507 l 1
 36 511 l 1
 36 511 87 507 123 507 c 0
 178 507 275 511 275 511 c 1
 277 507 l 1
 277 477 l 2
EndSplineSet
Colour: ff00ff
EndChar

StartChar: u1D433.ssty
Encoding: 1114150 -1 147
Width: 557
VWidth: 1208
Flags: W
HStem: 2 64<202 412.848> 444 65<125.939 322>
VStem: 43 51<361 409.906>
LayerCount: 2
Fore
SplineSet
142 509 m 2
 356 509 l 2
 390 509 472 513 476 513 c 0
 482 513 491 513 491 507 c 2
 491 505 l 2
 491 501 490 494 467 458 c 2
 202 66 l 1
 328 66 l 2
 394 66 415 73 442 136 c 1
 457 169 l 1
 508 161 l 1
 485 91 474 36 470 2 c 1
 68 2 l 2
 49 2 41 7 41 15 c 0
 41 23 40 25 50 40 c 2
 322 444 l 1
 193 444 l 2
 157 444 117 443 94 359 c 1
 43 361 l 1
 53 418 60 469 60 522 c 1
 109 522 l 1
 111 516 123 509 142 509 c 2
EndSplineSet
EndChar

StartChar: u1D7CE.ssty
Encoding: 1114151 -1 148
Width: 629
VWidth: 83
Flags: W
HStem: -8 46<260.872 365.421> 572 46<266.932 365.766>
VStem: 58 154<165.221 425.935> 417 154<180.366 447.678>
LayerCount: 2
Fore
SplineSet
316 572 m 0
 217 572 212 393 212 292 c 0
 212 186 218 38 313 38 c 0
 412 38 417 184 417 330 c 0
 417 433 407 572 316 572 c 0
311 -8 m 0
 178 -8 58 93 58 302 c 0
 58 481 185 618 316 618 c 0
 426 618 571 541 571 311 c 0
 571 85 423 -8 311 -8 c 0
EndSplineSet
EndChar

StartChar: u1D7CF.ssty
Encoding: 1114152 -1 149
Width: 630
VWidth: 1210
Flags: W
HStem: -2 21G<156 334 334 520> 442 21G<123.4 152.5>
VStem: 268 138<74.9129 463.794>
LayerCount: 2
Fore
SplineSet
268 131 m 2
 268 382 l 2
 268 446 257 469 226 469 c 0
 205 469 174 457 131 442 c 1
 112 492 l 1
 205 528 267 549 359 606 c 0
 367 611 379 617 390 617 c 0
 403 617 410 614 410 606 c 2
 410 606 406 552 406 498 c 2
 406 131 l 2
 406 78 431 64 488 51 c 2
 505 47 l 2
 514 45 520 42 520 32 c 2
 520 2 l 1
 517 -2 l 1
 517 -2 408 2 334 2 c 0
 268 2 160 -2 160 -2 c 1
 156 2 l 1
 156 32 l 2
 156 42 162 45 171 47 c 2
 186 51 l 2
 245 66 268 78 268 131 c 2
EndSplineSet
EndChar

StartChar: u1D7D0.ssty
Encoding: 1114153 -1 150
Width: 630
VWidth: 1210
Flags: W
HStem: -6 74<237 485.317> 558 57<227.883 359.121>
VStem: 89 123<438.882 529.426> 395 148<378.876 521.726> 505 61<107.793 145.492>
LayerCount: 2
Fore
SplineSet
163 399 m 0xf0
 117 399 89 435 89 465 c 0
 89 516 137 615 317 615 c 0
 429 615 543 580 543 456 c 0xf0
 543 390 495 330 429 273 c 1
 275 155 243 117 237 68 c 1
 477 68 l 1
 488 96 494 109 505 157 c 1
 566 144 l 1xe8
 537 -6 l 1
 70 -6 l 1
 70 87 121 133 296 283 c 0
 355 334 395 384 395 452 c 0
 395 536 329 558 308 558 c 0
 244 558 212 532 212 511 c 0
 212 500 212 496 214 490 c 0
 216 480 220 462 220 458 c 0
 220 422 195 399 163 399 c 0xf0
EndSplineSet
EndChar

StartChar: u1D7D1.ssty
Encoding: 1114154 -1 151
Width: 630
VWidth: 1210
Flags: W
HStem: -10 57<212.109 353.764> 300 51<204.176 276.81> 564 53<242.14 355.033>
VStem: 85 120<439.197 531.083> 374 144<437.89 546.016> 425 142<120.509 269.788>
LayerCount: 2
Fore
SplineSet
374 490 m 0xf8
 374 541 340 564 304 564 c 0
 281 564 209 539 205 499 c 1
 205 474 203 429 148 429 c 0
 87 429 85 470 85 478 c 0
 85 512 130 617 326 617 c 0
 450 617 518 573 518 499 c 0xf8
 518 453 482 408 425 374 c 1
 497 355 567 302 567 205 c 0
 567 72 433 -10 262 -10 c 0
 175 -10 68 15 68 59 c 0
 68 89 87 119 121 119 c 0
 174 119 190 97 201 80 c 0
 214 61 249 47 281 47 c 0
 308 47 425 68 425 192 c 0xf4
 425 293 361 313 283 313 c 0
 277 313 258 311 205 300 c 1
 199 351 l 1
 283 362 374 414 374 490 c 0xf8
EndSplineSet
EndChar

StartChar: u1D7D2.ssty
Encoding: 1114155 -1 152
Width: 629
VWidth: 83
Flags: W
HStem: 4 55<268.625 348.906 482.639 562> 184 80<172 351 480 579>
VStem: 351 129<61.3804 184 264 443.298>
LayerCount: 2
Fore
SplineSet
480 456 m 2
 480 264 l 1
 584 264 l 1
 579 184 l 1
 480 184 l 1
 480 106 l 2
 480 70 488 59 524 59 c 2
 554 59 l 2
 560 59 562 55 562 51 c 2
 562 4 l 1
 562 4 467 5 406 5 c 0
 351 5 263 4 263 4 c 1
 271 51 l 2
 271 55 272 59 278 59 c 2
 307 59 l 2
 341 59 351 64 351 104 c 2
 351 184 l 1
 64 184 l 1
 41 207 l 1
 127 332 261 521 339 629 c 1
 410 610 l 1
 172 264 l 1
 351 264 l 1
 351 402 l 2
 351 413 358 429 362 435 c 0
 377 452 442 475 457 475 c 0
 467 475 480 473 480 456 c 2
EndSplineSet
EndChar

StartChar: u1D7D3.ssty
Encoding: 1114156 -1 153
Width: 631
VWidth: 77
Flags: W
HStem: -8 55<211.063 324.417> 347 61<190.657 316.465> 511 97<205 467>
VStem: 366 150<120.646 291.281>
LayerCount: 2
Fore
SplineSet
366 188 m 0
 366 245 357 347 243 347 c 0
 201 347 153 334 125 321 c 1
 116 328 l 1
 156 608 l 1
 475 608 l 1
 467 513 l 1
 467 511 l 1
 205 511 l 1
 190 387 l 1
 205 398 256 408 283 408 c 0
 431 408 516 310 516 207 c 0
 516 93 406 -8 275 -8 c 0
 210 -8 91 16 91 62 c 0
 91 87 108 121 142 121 c 0
 167 121 182 98 197 83 c 0
 214 66 226 47 268 47 c 0
 338 47 366 110 366 188 c 0
EndSplineSet
EndChar

StartChar: u1D7D4.ssty
Encoding: 1114157 -1 154
Width: 630
VWidth: 83
Flags: W
HStem: -8 53<275.27 379.064> 319 51<239.295 365.896> 579 38<457.025 531>
VStem: 79 137<133.682 294.971> 417 142<106.135 262.616>
LayerCount: 2
Fore
SplineSet
417 182 m 0
 417 220 391 319 313 319 c 0
 281 319 258 313 216 281 c 1
 216 271 216 257 216 247 c 0
 216 97 277 45 332 45 c 0
 393 45 417 116 417 182 c 0
559 192 m 0
 559 120 505 -8 332 -8 c 0
 226 -8 79 49 79 250 c 0
 79 408 199 592 531 617 c 1
 531 579 l 1
 354 549 261 450 231 355 c 1
 258 365 306 370 334 370 c 0
 545 370 559 226 559 192 c 0
EndSplineSet
EndChar

StartChar: u1D7D5.ssty
Encoding: 1114158 -1 155
Width: 630
VWidth: 83
Flags: W
HStem: 528 91<178.278 387>
VStem: 170 127<7 65.8565>
LayerCount: 2
Fore
SplineSet
201 528 m 2
 174 528 170 521 157 460 c 1
 64 460 l 1
 104 627 l 1
 178 627 l 1
 184 621 186 619 197 619 c 2
 568 619 l 1
 467 448 358 214 297 7 c 1
 170 7 l 1
 233 197 322 414 387 528 c 1
 201 528 l 2
EndSplineSet
EndChar

StartChar: u1D7D6.ssty
Encoding: 1114159 -1 156
Width: 630
VWidth: 83
Flags: W
HStem: -8 49<263.946 396.068> 572 46<272.949 379.535>
VStem: 91 127<86.5467 213.66> 120 126<434.253 536.48> 408 120<422.25 543.296> 439 137<95.757 216.105>
LayerCount: 2
Fore
SplineSet
327 572 m 0xd8
 278 572 246 535 246 486 c 0
 246 456 270 419 325 389 c 0
 336 383 331 386 344 378 c 1
 369 399 408 434 408 482 c 0
 408 526 380 572 327 572 c 0xd8
351 268 m 1
 313 285 l 1
 285 264 218 211 218 156 c 0
 218 78 279 41 328 41 c 0
 391 41 439 80 439 150 c 0xe4
 439 198 412 238 351 268 c 1
528 482 m 0xd8
 528 455 524 405 416 340 c 1
 475 306 l 1
 543 270 576 226 576 169 c 0
 576 104 519 -8 327 -8 c 0
 232 -8 91 25 91 156 c 0xe4
 91 219 167 281 241 323 c 1
 237 325 237 324 235 326 c 0
 148 368 120 414 120 469 c 0
 120 558 218 618 332 618 c 0
 433 618 528 562 528 482 c 0xd8
EndSplineSet
EndChar
